G04 (created by PCBNEW-RS274X (2010-03-14)-final) date Thu 12 Jan 2012 21:53:35 GMT*
G01*
G70*
G90*
%MOIN*%
G04 Gerber Fmt 3.4, Leading zero omitted, Abs format*
%FSLAX34Y34*%
G04 APERTURE LIST*
%ADD10C,0.006000*%
%ADD11C,0.015000*%
%ADD12C,0.010000*%
G04 APERTURE END LIST*
G54D10*
G54D11*
X38386Y-49803D02*
X38583Y-49921D01*
X38386Y-50197D02*
X38583Y-50079D01*
X38386Y-49803D02*
X38386Y-50197D01*
G54D12*
X45446Y-60363D02*
X45446Y-59563D01*
X46160Y-59525D02*
X45646Y-60553D01*
X46361Y-60363D02*
X46361Y-59563D01*
X46589Y-59563D01*
X46647Y-59601D01*
X46675Y-59639D01*
X46704Y-59715D01*
X46704Y-59829D01*
X46675Y-59906D01*
X46647Y-59944D01*
X46589Y-59982D01*
X46361Y-59982D01*
X46961Y-60287D02*
X46989Y-60325D01*
X46961Y-60363D01*
X46932Y-60325D01*
X46961Y-60287D01*
X46961Y-60363D01*
X46961Y-59868D02*
X46989Y-59906D01*
X46961Y-59944D01*
X46932Y-59906D01*
X46961Y-59868D01*
X46961Y-59944D01*
X47675Y-59639D02*
X47704Y-59601D01*
X47761Y-59563D01*
X47904Y-59563D01*
X47961Y-59601D01*
X47990Y-59639D01*
X48018Y-59715D01*
X48018Y-59791D01*
X47990Y-59906D01*
X47647Y-60363D01*
X48018Y-60363D01*
X48246Y-59639D02*
X48275Y-59601D01*
X48332Y-59563D01*
X48475Y-59563D01*
X48532Y-59601D01*
X48561Y-59639D01*
X48589Y-59715D01*
X48589Y-59791D01*
X48561Y-59906D01*
X48218Y-60363D01*
X48589Y-60363D01*
X48760Y-59563D02*
X48960Y-60363D01*
X49160Y-59563D01*
X49788Y-59639D02*
X49817Y-59601D01*
X49874Y-59563D01*
X50017Y-59563D01*
X50074Y-59601D01*
X50103Y-59639D01*
X50131Y-59715D01*
X50131Y-59791D01*
X50103Y-59906D01*
X49760Y-60363D01*
X50131Y-60363D01*
X50359Y-60134D02*
X50645Y-60134D01*
X50302Y-60363D02*
X50502Y-59563D01*
X50702Y-60363D01*
X44503Y-60803D02*
X44617Y-60803D01*
X44675Y-60841D01*
X44732Y-60917D01*
X44760Y-61069D01*
X44760Y-61336D01*
X44732Y-61489D01*
X44675Y-61565D01*
X44617Y-61603D01*
X44503Y-61603D01*
X44446Y-61565D01*
X44389Y-61489D01*
X44360Y-61336D01*
X44360Y-61069D01*
X44389Y-60917D01*
X44446Y-60841D01*
X44503Y-60803D01*
X45446Y-60765D02*
X44932Y-61793D01*
X45647Y-61603D02*
X45647Y-60803D01*
X45875Y-60803D01*
X45933Y-60841D01*
X45961Y-60879D01*
X45990Y-60955D01*
X45990Y-61069D01*
X45961Y-61146D01*
X45933Y-61184D01*
X45875Y-61222D01*
X45647Y-61222D01*
X46247Y-61527D02*
X46275Y-61565D01*
X46247Y-61603D01*
X46218Y-61565D01*
X46247Y-61527D01*
X46247Y-61603D01*
X46247Y-61108D02*
X46275Y-61146D01*
X46247Y-61184D01*
X46218Y-61146D01*
X46247Y-61108D01*
X46247Y-61184D01*
X47247Y-61069D02*
X47247Y-61603D01*
X47104Y-60765D02*
X46961Y-61336D01*
X47333Y-61336D01*
X47904Y-61603D02*
X47704Y-61222D01*
X47561Y-61603D02*
X47561Y-60803D01*
X47789Y-60803D01*
X47847Y-60841D01*
X47875Y-60879D01*
X47904Y-60955D01*
X47904Y-61069D01*
X47875Y-61146D01*
X47847Y-61184D01*
X47789Y-61222D01*
X47561Y-61222D01*
X48932Y-61603D02*
X48589Y-61603D01*
X48761Y-61603D02*
X48761Y-60803D01*
X48704Y-60917D01*
X48646Y-60993D01*
X48589Y-61031D01*
X49475Y-60803D02*
X49189Y-60803D01*
X49160Y-61184D01*
X49189Y-61146D01*
X49246Y-61108D01*
X49389Y-61108D01*
X49446Y-61146D01*
X49475Y-61184D01*
X49503Y-61260D01*
X49503Y-61450D01*
X49475Y-61527D01*
X49446Y-61565D01*
X49389Y-61603D01*
X49246Y-61603D01*
X49189Y-61565D01*
X49160Y-61527D01*
X49703Y-60803D02*
X49846Y-61603D01*
X49960Y-61031D01*
X50074Y-61603D01*
X50217Y-60803D01*
X50846Y-61603D02*
X51160Y-61069D01*
X50846Y-61069D02*
X51160Y-61603D01*
X51360Y-60879D02*
X51389Y-60841D01*
X51446Y-60803D01*
X51589Y-60803D01*
X51646Y-60841D01*
X51675Y-60879D01*
X51703Y-60955D01*
X51703Y-61031D01*
X51675Y-61146D01*
X51332Y-61603D01*
X51703Y-61603D01*
X56197Y-44386D02*
X56483Y-44386D01*
X56140Y-44615D02*
X56340Y-43815D01*
X56540Y-44615D01*
X56997Y-44615D02*
X56997Y-43815D01*
X56997Y-44577D02*
X56940Y-44615D01*
X56826Y-44615D01*
X56768Y-44577D01*
X56740Y-44539D01*
X56711Y-44462D01*
X56711Y-44234D01*
X56740Y-44158D01*
X56768Y-44120D01*
X56826Y-44081D01*
X56940Y-44081D01*
X56997Y-44120D01*
X57540Y-44615D02*
X57540Y-44196D01*
X57511Y-44120D01*
X57454Y-44081D01*
X57340Y-44081D01*
X57283Y-44120D01*
X57540Y-44577D02*
X57483Y-44615D01*
X57340Y-44615D01*
X57283Y-44577D01*
X57254Y-44501D01*
X57254Y-44424D01*
X57283Y-44348D01*
X57340Y-44310D01*
X57483Y-44310D01*
X57540Y-44272D01*
X57826Y-44615D02*
X57826Y-44081D01*
X57826Y-44158D02*
X57854Y-44120D01*
X57912Y-44081D01*
X57997Y-44081D01*
X58054Y-44120D01*
X58083Y-44196D01*
X58083Y-44615D01*
X58083Y-44196D02*
X58112Y-44120D01*
X58169Y-44081D01*
X58254Y-44081D01*
X58312Y-44120D01*
X58340Y-44196D01*
X58340Y-44615D01*
X56583Y-45093D02*
X56526Y-45055D01*
X56440Y-45055D01*
X56355Y-45093D01*
X56297Y-45169D01*
X56269Y-45245D01*
X56240Y-45398D01*
X56240Y-45512D01*
X56269Y-45664D01*
X56297Y-45741D01*
X56355Y-45817D01*
X56440Y-45855D01*
X56497Y-45855D01*
X56583Y-45817D01*
X56612Y-45779D01*
X56612Y-45512D01*
X56497Y-45512D01*
X56869Y-45855D02*
X56869Y-45321D01*
X56869Y-45474D02*
X56897Y-45398D01*
X56926Y-45360D01*
X56983Y-45321D01*
X57040Y-45321D01*
X57468Y-45817D02*
X57411Y-45855D01*
X57297Y-45855D01*
X57240Y-45817D01*
X57211Y-45741D01*
X57211Y-45436D01*
X57240Y-45360D01*
X57297Y-45321D01*
X57411Y-45321D01*
X57468Y-45360D01*
X57497Y-45436D01*
X57497Y-45512D01*
X57211Y-45588D01*
X57754Y-45855D02*
X57754Y-45321D01*
X57754Y-45055D02*
X57725Y-45093D01*
X57754Y-45131D01*
X57782Y-45093D01*
X57754Y-45055D01*
X57754Y-45131D01*
X58297Y-45321D02*
X58297Y-45969D01*
X58268Y-46045D01*
X58240Y-46083D01*
X58183Y-46121D01*
X58097Y-46121D01*
X58040Y-46083D01*
X58297Y-45817D02*
X58240Y-45855D01*
X58126Y-45855D01*
X58068Y-45817D01*
X58040Y-45779D01*
X58011Y-45702D01*
X58011Y-45474D01*
X58040Y-45398D01*
X58068Y-45360D01*
X58126Y-45321D01*
X58240Y-45321D01*
X58297Y-45360D01*
X50534Y-44996D02*
X50534Y-45567D01*
X50506Y-45682D01*
X50449Y-45758D01*
X50363Y-45796D01*
X50306Y-45796D01*
X51077Y-45796D02*
X51077Y-45377D01*
X51048Y-45301D01*
X50991Y-45262D01*
X50877Y-45262D01*
X50820Y-45301D01*
X51077Y-45758D02*
X51020Y-45796D01*
X50877Y-45796D01*
X50820Y-45758D01*
X50791Y-45682D01*
X50791Y-45605D01*
X50820Y-45529D01*
X50877Y-45491D01*
X51020Y-45491D01*
X51077Y-45453D01*
X51363Y-45262D02*
X51363Y-45796D01*
X51363Y-45339D02*
X51391Y-45301D01*
X51449Y-45262D01*
X51534Y-45262D01*
X51591Y-45301D01*
X51620Y-45377D01*
X51620Y-45796D01*
X52334Y-45072D02*
X52363Y-45034D01*
X52420Y-44996D01*
X52563Y-44996D01*
X52620Y-45034D01*
X52649Y-45072D01*
X52677Y-45148D01*
X52677Y-45224D01*
X52649Y-45339D01*
X52306Y-45796D01*
X52677Y-45796D01*
X53048Y-44996D02*
X53105Y-44996D01*
X53162Y-45034D01*
X53191Y-45072D01*
X53220Y-45148D01*
X53248Y-45301D01*
X53248Y-45491D01*
X53220Y-45643D01*
X53191Y-45720D01*
X53162Y-45758D01*
X53105Y-45796D01*
X53048Y-45796D01*
X52991Y-45758D01*
X52962Y-45720D01*
X52934Y-45643D01*
X52905Y-45491D01*
X52905Y-45301D01*
X52934Y-45148D01*
X52962Y-45072D01*
X52991Y-45034D01*
X53048Y-44996D01*
X53819Y-45796D02*
X53476Y-45796D01*
X53648Y-45796D02*
X53648Y-44996D01*
X53591Y-45110D01*
X53533Y-45186D01*
X53476Y-45224D01*
X54047Y-45072D02*
X54076Y-45034D01*
X54133Y-44996D01*
X54276Y-44996D01*
X54333Y-45034D01*
X54362Y-45072D01*
X54390Y-45148D01*
X54390Y-45224D01*
X54362Y-45339D01*
X54019Y-45796D01*
X54390Y-45796D01*
X50359Y-44386D02*
X50645Y-44386D01*
X50302Y-44615D02*
X50502Y-43815D01*
X50702Y-44615D01*
X50902Y-44615D02*
X50902Y-43815D01*
X51102Y-44386D01*
X51302Y-43815D01*
X51302Y-44615D01*
X51588Y-44615D02*
X51588Y-43815D01*
X51816Y-43815D01*
X51874Y-43853D01*
X51902Y-43891D01*
X51931Y-43967D01*
X51931Y-44081D01*
X51902Y-44158D01*
X51874Y-44196D01*
X51816Y-44234D01*
X51588Y-44234D01*
X52502Y-44615D02*
X52159Y-44615D01*
X52331Y-44615D02*
X52331Y-43815D01*
X52274Y-43929D01*
X52216Y-44005D01*
X52159Y-44043D01*
X53187Y-44386D02*
X53473Y-44386D01*
X53130Y-44615D02*
X53330Y-43815D01*
X53530Y-44615D01*
X53730Y-44615D02*
X53730Y-43815D01*
X53930Y-44386D01*
X54130Y-43815D01*
X54130Y-44615D01*
X54416Y-44615D02*
X54416Y-43815D01*
X54644Y-43815D01*
X54702Y-43853D01*
X54730Y-43891D01*
X54759Y-43967D01*
X54759Y-44081D01*
X54730Y-44158D01*
X54702Y-44196D01*
X54644Y-44234D01*
X54416Y-44234D01*
X42922Y-51232D02*
X42893Y-51270D01*
X42807Y-51308D01*
X42750Y-51308D01*
X42665Y-51270D01*
X42607Y-51194D01*
X42579Y-51117D01*
X42550Y-50965D01*
X42550Y-50851D01*
X42579Y-50698D01*
X42607Y-50622D01*
X42665Y-50546D01*
X42750Y-50508D01*
X42807Y-50508D01*
X42893Y-50546D01*
X42922Y-50584D01*
X43493Y-51308D02*
X43150Y-51308D01*
X43322Y-51308D02*
X43322Y-50508D01*
X43265Y-50622D01*
X43207Y-50698D01*
X43150Y-50736D01*
X43721Y-50584D02*
X43750Y-50546D01*
X43807Y-50508D01*
X43950Y-50508D01*
X44007Y-50546D01*
X44036Y-50584D01*
X44064Y-50660D01*
X44064Y-50736D01*
X44036Y-50851D01*
X43693Y-51308D01*
X44064Y-51308D01*
X42922Y-59894D02*
X42893Y-59932D01*
X42807Y-59970D01*
X42750Y-59970D01*
X42665Y-59932D01*
X42607Y-59856D01*
X42579Y-59779D01*
X42550Y-59627D01*
X42550Y-59513D01*
X42579Y-59360D01*
X42607Y-59284D01*
X42665Y-59208D01*
X42750Y-59170D01*
X42807Y-59170D01*
X42893Y-59208D01*
X42922Y-59246D01*
X43493Y-59970D02*
X43150Y-59970D01*
X43322Y-59970D02*
X43322Y-59170D01*
X43265Y-59284D01*
X43207Y-59360D01*
X43150Y-59398D01*
X44007Y-59436D02*
X44007Y-59970D01*
X43864Y-59132D02*
X43721Y-59703D01*
X44093Y-59703D01*
X54232Y-59303D02*
X54203Y-59341D01*
X54117Y-59379D01*
X54060Y-59379D01*
X53975Y-59341D01*
X53917Y-59265D01*
X53889Y-59188D01*
X53860Y-59036D01*
X53860Y-58922D01*
X53889Y-58769D01*
X53917Y-58693D01*
X53975Y-58617D01*
X54060Y-58579D01*
X54117Y-58579D01*
X54203Y-58617D01*
X54232Y-58655D01*
X54575Y-58922D02*
X54517Y-58884D01*
X54489Y-58845D01*
X54460Y-58769D01*
X54460Y-58731D01*
X54489Y-58655D01*
X54517Y-58617D01*
X54575Y-58579D01*
X54689Y-58579D01*
X54746Y-58617D01*
X54775Y-58655D01*
X54803Y-58731D01*
X54803Y-58769D01*
X54775Y-58845D01*
X54746Y-58884D01*
X54689Y-58922D01*
X54575Y-58922D01*
X54517Y-58960D01*
X54489Y-58998D01*
X54460Y-59074D01*
X54460Y-59226D01*
X54489Y-59303D01*
X54517Y-59341D01*
X54575Y-59379D01*
X54689Y-59379D01*
X54746Y-59341D01*
X54775Y-59303D01*
X54803Y-59226D01*
X54803Y-59074D01*
X54775Y-58998D01*
X54746Y-58960D01*
X54689Y-58922D01*
X54232Y-51429D02*
X54203Y-51467D01*
X54117Y-51505D01*
X54060Y-51505D01*
X53975Y-51467D01*
X53917Y-51391D01*
X53889Y-51314D01*
X53860Y-51162D01*
X53860Y-51048D01*
X53889Y-50895D01*
X53917Y-50819D01*
X53975Y-50743D01*
X54060Y-50705D01*
X54117Y-50705D01*
X54203Y-50743D01*
X54232Y-50781D01*
X54460Y-50781D02*
X54489Y-50743D01*
X54546Y-50705D01*
X54689Y-50705D01*
X54746Y-50743D01*
X54775Y-50781D01*
X54803Y-50857D01*
X54803Y-50933D01*
X54775Y-51048D01*
X54432Y-51505D01*
X54803Y-51505D01*
G54D11*
X38583Y-49921D02*
X38583Y-50079D01*
X38386Y-48150D02*
X38543Y-48268D01*
X38386Y-47913D02*
X38543Y-47795D01*
X38386Y-48031D02*
X38386Y-48150D01*
X38386Y-48031D02*
X38386Y-47913D01*
X38386Y-60630D02*
X38386Y-61024D01*
X38189Y-60433D02*
X38189Y-61220D01*
X38386Y-56299D02*
X38386Y-56693D01*
X38189Y-56102D02*
X38189Y-56890D01*
X38583Y-45866D02*
X38583Y-46260D01*
X38386Y-45669D02*
X38386Y-46457D01*
X59842Y-59055D02*
X60630Y-59055D01*
G54D12*
X60422Y-49537D02*
X60136Y-49537D01*
X60136Y-48737D01*
X57863Y-56033D02*
X57663Y-55652D01*
X57520Y-56033D02*
X57520Y-55233D01*
X57748Y-55233D01*
X57806Y-55271D01*
X57834Y-55309D01*
X57863Y-55385D01*
X57863Y-55499D01*
X57834Y-55576D01*
X57806Y-55614D01*
X57748Y-55652D01*
X57520Y-55652D01*
G54D11*
X58071Y-52953D02*
X57283Y-52953D01*
G54D12*
X38500Y-52710D02*
X38500Y-52339D01*
X38805Y-52539D01*
X38805Y-52453D01*
X38843Y-52396D01*
X38881Y-52367D01*
X38957Y-52339D01*
X39147Y-52339D01*
X39224Y-52367D01*
X39262Y-52396D01*
X39300Y-52453D01*
X39300Y-52625D01*
X39262Y-52682D01*
X39224Y-52710D01*
X38500Y-52168D02*
X39300Y-51968D01*
X38500Y-51768D01*
X38500Y-51625D02*
X38500Y-51254D01*
X38805Y-51454D01*
X38805Y-51368D01*
X38843Y-51311D01*
X38881Y-51282D01*
X38957Y-51254D01*
X39147Y-51254D01*
X39224Y-51282D01*
X39262Y-51311D01*
X39300Y-51368D01*
X39300Y-51540D01*
X39262Y-51597D01*
X39224Y-51625D01*
X38572Y-59182D02*
X38372Y-58801D01*
X38229Y-59182D02*
X38229Y-58382D01*
X38457Y-58382D01*
X38515Y-58420D01*
X38543Y-58458D01*
X38572Y-58534D01*
X38572Y-58648D01*
X38543Y-58725D01*
X38515Y-58763D01*
X38457Y-58801D01*
X38229Y-58801D01*
X38572Y-54851D02*
X38286Y-54851D01*
X38286Y-54051D01*
X53102Y-47752D02*
X53216Y-47752D01*
X53274Y-47790D01*
X53331Y-47866D01*
X53359Y-48018D01*
X53359Y-48285D01*
X53331Y-48438D01*
X53274Y-48514D01*
X53216Y-48552D01*
X53102Y-48552D01*
X53045Y-48514D01*
X52988Y-48438D01*
X52959Y-48285D01*
X52959Y-48018D01*
X52988Y-47866D01*
X53045Y-47790D01*
X53102Y-47752D01*
X53960Y-48552D02*
X53760Y-48171D01*
X53617Y-48552D02*
X53617Y-47752D01*
X53845Y-47752D01*
X53903Y-47790D01*
X53931Y-47828D01*
X53960Y-47904D01*
X53960Y-48018D01*
X53931Y-48095D01*
X53903Y-48133D01*
X53845Y-48171D01*
X53617Y-48171D01*
X54217Y-48552D02*
X54217Y-47752D01*
X54360Y-47752D01*
X54445Y-47790D01*
X54503Y-47866D01*
X54531Y-47942D01*
X54560Y-48095D01*
X54560Y-48209D01*
X54531Y-48361D01*
X54503Y-48438D01*
X54445Y-48514D01*
X54360Y-48552D01*
X54217Y-48552D01*
X54817Y-48133D02*
X55017Y-48133D01*
X55103Y-48552D02*
X54817Y-48552D01*
X54817Y-47752D01*
X55103Y-47752D01*
X55703Y-48552D02*
X55503Y-48171D01*
X55360Y-48552D02*
X55360Y-47752D01*
X55588Y-47752D01*
X55646Y-47790D01*
X55674Y-47828D01*
X55703Y-47904D01*
X55703Y-48018D01*
X55674Y-48095D01*
X55646Y-48133D01*
X55588Y-48171D01*
X55360Y-48171D01*
X53275Y-48992D02*
X53675Y-48992D01*
X53418Y-49792D01*
X54160Y-48992D02*
X54046Y-48992D01*
X53989Y-49030D01*
X53960Y-49068D01*
X53903Y-49182D01*
X53874Y-49335D01*
X53874Y-49639D01*
X53903Y-49716D01*
X53931Y-49754D01*
X53989Y-49792D01*
X54103Y-49792D01*
X54160Y-49754D01*
X54189Y-49716D01*
X54217Y-49639D01*
X54217Y-49449D01*
X54189Y-49373D01*
X54160Y-49335D01*
X54103Y-49297D01*
X53989Y-49297D01*
X53931Y-49335D01*
X53903Y-49373D01*
X53874Y-49449D01*
X54560Y-49335D02*
X54502Y-49297D01*
X54474Y-49258D01*
X54445Y-49182D01*
X54445Y-49144D01*
X54474Y-49068D01*
X54502Y-49030D01*
X54560Y-48992D01*
X54674Y-48992D01*
X54731Y-49030D01*
X54760Y-49068D01*
X54788Y-49144D01*
X54788Y-49182D01*
X54760Y-49258D01*
X54731Y-49297D01*
X54674Y-49335D01*
X54560Y-49335D01*
X54502Y-49373D01*
X54474Y-49411D01*
X54445Y-49487D01*
X54445Y-49639D01*
X54474Y-49716D01*
X54502Y-49754D01*
X54560Y-49792D01*
X54674Y-49792D01*
X54731Y-49754D01*
X54760Y-49716D01*
X54788Y-49639D01*
X54788Y-49487D01*
X54760Y-49411D01*
X54731Y-49373D01*
X54674Y-49335D01*
X55359Y-49792D02*
X55016Y-49792D01*
X55188Y-49792D02*
X55188Y-48992D01*
X55131Y-49106D01*
X55073Y-49182D01*
X55016Y-49220D01*
G54D11*
X48622Y-49409D02*
X49409Y-49409D01*
X46653Y-49409D02*
X47441Y-49409D01*
X47047Y-49016D02*
X47047Y-49803D01*
G54D12*
X46619Y-43891D02*
X46648Y-43853D01*
X46705Y-43815D01*
X46848Y-43815D01*
X46905Y-43853D01*
X46934Y-43891D01*
X46962Y-43967D01*
X46962Y-44043D01*
X46934Y-44158D01*
X46591Y-44615D01*
X46962Y-44615D01*
X47190Y-43891D02*
X47219Y-43853D01*
X47276Y-43815D01*
X47419Y-43815D01*
X47476Y-43853D01*
X47505Y-43891D01*
X47533Y-43967D01*
X47533Y-44043D01*
X47505Y-44158D01*
X47162Y-44615D01*
X47533Y-44615D01*
X47704Y-43815D02*
X47904Y-44615D01*
X48104Y-43815D01*
X48304Y-44615D02*
X48304Y-43815D01*
X48447Y-43815D01*
X48532Y-43853D01*
X48590Y-43929D01*
X48618Y-44005D01*
X48647Y-44158D01*
X48647Y-44272D01*
X48618Y-44424D01*
X48590Y-44501D01*
X48532Y-44577D01*
X48447Y-44615D01*
X48304Y-44615D01*
X49247Y-44539D02*
X49218Y-44577D01*
X49132Y-44615D01*
X49075Y-44615D01*
X48990Y-44577D01*
X48932Y-44501D01*
X48904Y-44424D01*
X48875Y-44272D01*
X48875Y-44158D01*
X48904Y-44005D01*
X48932Y-43929D01*
X48990Y-43853D01*
X49075Y-43815D01*
X49132Y-43815D01*
X49218Y-43853D01*
X49247Y-43891D01*
G54D11*
X46161Y-51378D02*
X46457Y-51378D01*
X55413Y-51378D02*
X56201Y-51378D01*
X55413Y-59252D02*
X56201Y-59252D01*
X44783Y-58366D02*
X44783Y-58957D01*
X44783Y-49705D02*
X44783Y-50295D01*
X34252Y-62205D02*
X34252Y-43307D01*
X62205Y-62205D02*
X34252Y-62205D01*
X62205Y-43307D02*
X62205Y-62205D01*
X34252Y-43307D02*
X62205Y-43307D01*
X44408Y-52914D02*
X44406Y-52929D01*
X44402Y-52943D01*
X44394Y-52957D01*
X44385Y-52968D01*
X44373Y-52978D01*
X44360Y-52985D01*
X44345Y-52990D01*
X44330Y-52991D01*
X44316Y-52990D01*
X44301Y-52986D01*
X44288Y-52979D01*
X44276Y-52969D01*
X44266Y-52958D01*
X44259Y-52944D01*
X44254Y-52930D01*
X44253Y-52915D01*
X44254Y-52900D01*
X44258Y-52886D01*
X44265Y-52872D01*
X44274Y-52860D01*
X44286Y-52850D01*
X44299Y-52843D01*
X44314Y-52838D01*
X44329Y-52837D01*
X44343Y-52838D01*
X44358Y-52842D01*
X44371Y-52849D01*
X44383Y-52858D01*
X44393Y-52870D01*
X44401Y-52883D01*
X44406Y-52897D01*
X44407Y-52912D01*
X44408Y-52914D01*
X45591Y-55748D02*
X44173Y-55748D01*
X45591Y-52914D02*
X44173Y-52914D01*
X41024Y-48110D02*
X41024Y-48189D01*
X41024Y-47402D02*
X41024Y-48110D01*
X40788Y-47244D02*
X40788Y-50394D01*
X40788Y-50394D02*
X38819Y-50394D01*
X38819Y-50394D02*
X38740Y-50394D01*
X38740Y-50394D02*
X38740Y-47244D01*
X38740Y-47244D02*
X40788Y-47244D01*
X46850Y-51772D02*
X46835Y-51924D01*
X46790Y-52071D01*
X46718Y-52207D01*
X46621Y-52326D01*
X46503Y-52424D01*
X46367Y-52497D01*
X46221Y-52542D01*
X46068Y-52558D01*
X45916Y-52545D01*
X45769Y-52501D01*
X45633Y-52430D01*
X45513Y-52334D01*
X45414Y-52216D01*
X45340Y-52082D01*
X45294Y-51935D01*
X45277Y-51782D01*
X45289Y-51630D01*
X45332Y-51483D01*
X45402Y-51346D01*
X45497Y-51226D01*
X45614Y-51126D01*
X45748Y-51051D01*
X45895Y-51004D01*
X46047Y-50986D01*
X46199Y-50997D01*
X46347Y-51039D01*
X46484Y-51108D01*
X46605Y-51203D01*
X46706Y-51319D01*
X46781Y-51452D01*
X46830Y-51598D01*
X46849Y-51751D01*
X46850Y-51772D01*
X45354Y-58661D02*
X45315Y-59058D01*
X45199Y-59441D01*
X45011Y-59793D01*
X44759Y-60103D01*
X44451Y-60358D01*
X44100Y-60548D01*
X43718Y-60666D01*
X43321Y-60707D01*
X42924Y-60671D01*
X42541Y-60558D01*
X42187Y-60373D01*
X41875Y-60123D01*
X41618Y-59817D01*
X41426Y-59467D01*
X41305Y-59086D01*
X41261Y-58689D01*
X41294Y-58292D01*
X41404Y-57908D01*
X41587Y-57553D01*
X41835Y-57240D01*
X42139Y-56981D01*
X42488Y-56786D01*
X42868Y-56662D01*
X43265Y-56615D01*
X43662Y-56646D01*
X44047Y-56753D01*
X44403Y-56933D01*
X44718Y-57179D01*
X44979Y-57482D01*
X45177Y-57829D01*
X45303Y-58208D01*
X45353Y-58604D01*
X45354Y-58661D01*
X45354Y-50000D02*
X45315Y-50397D01*
X45199Y-50780D01*
X45011Y-51132D01*
X44759Y-51442D01*
X44451Y-51697D01*
X44100Y-51887D01*
X43718Y-52005D01*
X43321Y-52046D01*
X42924Y-52010D01*
X42541Y-51897D01*
X42187Y-51712D01*
X41875Y-51462D01*
X41618Y-51156D01*
X41426Y-50806D01*
X41305Y-50425D01*
X41261Y-50028D01*
X41294Y-49631D01*
X41404Y-49247D01*
X41587Y-48892D01*
X41835Y-48579D01*
X42139Y-48320D01*
X42488Y-48125D01*
X42868Y-48001D01*
X43265Y-47954D01*
X43662Y-47985D01*
X44047Y-48092D01*
X44403Y-48272D01*
X44718Y-48518D01*
X44979Y-48821D01*
X45177Y-49168D01*
X45303Y-49547D01*
X45353Y-49943D01*
X45354Y-50000D01*
X57874Y-58268D02*
X57806Y-58956D01*
X57606Y-59618D01*
X57282Y-60228D01*
X56845Y-60764D01*
X56312Y-61205D01*
X55703Y-61534D01*
X55043Y-61738D01*
X54355Y-61810D01*
X53668Y-61748D01*
X53004Y-61553D01*
X52391Y-61232D01*
X51853Y-60799D01*
X51408Y-60269D01*
X51075Y-59663D01*
X50866Y-59004D01*
X50789Y-58317D01*
X50847Y-57629D01*
X51037Y-56964D01*
X51353Y-56349D01*
X51783Y-55807D01*
X52309Y-55359D01*
X52913Y-55022D01*
X53571Y-54808D01*
X54257Y-54726D01*
X54946Y-54779D01*
X55612Y-54965D01*
X56229Y-55277D01*
X56774Y-55703D01*
X57226Y-56226D01*
X57567Y-56827D01*
X57785Y-57484D01*
X57872Y-58170D01*
X57874Y-58268D01*
X57874Y-50394D02*
X57806Y-51082D01*
X57606Y-51744D01*
X57282Y-52354D01*
X56845Y-52890D01*
X56312Y-53331D01*
X55703Y-53660D01*
X55043Y-53864D01*
X54355Y-53936D01*
X53668Y-53874D01*
X53004Y-53679D01*
X52391Y-53358D01*
X51853Y-52925D01*
X51408Y-52395D01*
X51075Y-51789D01*
X50866Y-51130D01*
X50789Y-50443D01*
X50847Y-49755D01*
X51037Y-49090D01*
X51353Y-48475D01*
X51783Y-47933D01*
X52309Y-47485D01*
X52913Y-47148D01*
X53571Y-46934D01*
X54257Y-46852D01*
X54946Y-46905D01*
X55612Y-47091D01*
X56229Y-47403D01*
X56774Y-47829D01*
X57226Y-48352D01*
X57567Y-48953D01*
X57785Y-49610D01*
X57872Y-50296D01*
X57874Y-50394D01*
X58464Y-58662D02*
X62008Y-58662D01*
X62008Y-58662D02*
X62008Y-54724D01*
X62008Y-54724D02*
X58464Y-54724D01*
X58464Y-54724D02*
X58464Y-58662D01*
X34448Y-61811D02*
X37992Y-61811D01*
X37992Y-61811D02*
X37992Y-57873D01*
X37992Y-57873D02*
X34448Y-57873D01*
X34448Y-57873D02*
X34448Y-61811D01*
X34448Y-57481D02*
X37992Y-57481D01*
X37992Y-57481D02*
X37992Y-53543D01*
X37992Y-53543D02*
X34448Y-53543D01*
X34448Y-53543D02*
X34448Y-57481D01*
X58464Y-53937D02*
X62008Y-53937D01*
X62008Y-53937D02*
X62008Y-49999D01*
X62008Y-49999D02*
X58464Y-49999D01*
X58464Y-49999D02*
X58464Y-53937D01*
X50000Y-48622D02*
X50000Y-45078D01*
X50000Y-45078D02*
X46062Y-45078D01*
X46062Y-45078D02*
X46062Y-48622D01*
X46062Y-48622D02*
X50000Y-48622D01*
X36220Y-53149D02*
X34251Y-53149D01*
X34251Y-53149D02*
X34251Y-44881D01*
X34251Y-44881D02*
X38189Y-44881D01*
X38189Y-44881D02*
X38189Y-53149D01*
X38189Y-53149D02*
X36220Y-53149D01*
X44488Y-45354D02*
X44486Y-45369D01*
X44482Y-45384D01*
X44474Y-45397D01*
X44465Y-45409D01*
X44453Y-45419D01*
X44439Y-45426D01*
X44424Y-45431D01*
X44409Y-45432D01*
X44395Y-45431D01*
X44380Y-45427D01*
X44366Y-45420D01*
X44354Y-45410D01*
X44344Y-45398D01*
X44337Y-45385D01*
X44332Y-45370D01*
X44331Y-45355D01*
X44332Y-45340D01*
X44336Y-45325D01*
X44343Y-45312D01*
X44353Y-45300D01*
X44364Y-45290D01*
X44378Y-45282D01*
X44393Y-45277D01*
X44408Y-45276D01*
X44422Y-45277D01*
X44437Y-45281D01*
X44451Y-45288D01*
X44463Y-45297D01*
X44473Y-45309D01*
X44481Y-45322D01*
X44486Y-45337D01*
X44487Y-45352D01*
X44488Y-45354D01*
X41417Y-46141D02*
X41417Y-45197D01*
X44409Y-45275D02*
X44409Y-45197D01*
X44409Y-46141D02*
X44409Y-45275D01*
X61712Y-44980D02*
X61689Y-45209D01*
X61622Y-45430D01*
X61514Y-45633D01*
X61369Y-45812D01*
X61191Y-45959D01*
X60988Y-46068D01*
X60768Y-46136D01*
X60539Y-46160D01*
X60310Y-46140D01*
X60089Y-46075D01*
X59885Y-45968D01*
X59705Y-45823D01*
X59557Y-45647D01*
X59446Y-45445D01*
X59376Y-45225D01*
X59351Y-44996D01*
X59370Y-44767D01*
X59433Y-44546D01*
X59539Y-44341D01*
X59682Y-44160D01*
X59857Y-44011D01*
X60059Y-43898D01*
X60278Y-43827D01*
X60507Y-43800D01*
X60736Y-43817D01*
X60958Y-43879D01*
X61163Y-43983D01*
X61345Y-44125D01*
X61496Y-44300D01*
X61609Y-44500D01*
X61682Y-44719D01*
X61711Y-44948D01*
X61712Y-44980D01*
X61712Y-60531D02*
X61689Y-60760D01*
X61622Y-60981D01*
X61514Y-61184D01*
X61369Y-61363D01*
X61191Y-61510D01*
X60988Y-61619D01*
X60768Y-61687D01*
X60539Y-61711D01*
X60310Y-61691D01*
X60089Y-61626D01*
X59885Y-61519D01*
X59705Y-61374D01*
X59557Y-61198D01*
X59446Y-60996D01*
X59376Y-60776D01*
X59351Y-60547D01*
X59370Y-60318D01*
X59433Y-60097D01*
X59539Y-59892D01*
X59682Y-59711D01*
X59857Y-59562D01*
X60059Y-59449D01*
X60278Y-59378D01*
X60507Y-59351D01*
X60736Y-59368D01*
X60958Y-59430D01*
X61163Y-59534D01*
X61345Y-59676D01*
X61496Y-59851D01*
X61609Y-60051D01*
X61682Y-60270D01*
X61711Y-60499D01*
X61712Y-60531D01*
X40945Y-60531D02*
X40922Y-60760D01*
X40855Y-60981D01*
X40747Y-61184D01*
X40602Y-61363D01*
X40424Y-61510D01*
X40221Y-61619D01*
X40001Y-61687D01*
X39772Y-61711D01*
X39543Y-61691D01*
X39322Y-61626D01*
X39118Y-61519D01*
X38938Y-61374D01*
X38790Y-61198D01*
X38679Y-60996D01*
X38609Y-60776D01*
X38584Y-60547D01*
X38603Y-60318D01*
X38666Y-60097D01*
X38772Y-59892D01*
X38915Y-59711D01*
X39090Y-59562D01*
X39292Y-59449D01*
X39511Y-59378D01*
X39740Y-59351D01*
X39969Y-59368D01*
X40191Y-59430D01*
X40396Y-59534D01*
X40578Y-59676D01*
X40729Y-59851D01*
X40842Y-60051D01*
X40915Y-60270D01*
X40944Y-60499D01*
X40945Y-60531D01*
X40945Y-45079D02*
X40922Y-45308D01*
X40855Y-45529D01*
X40747Y-45732D01*
X40602Y-45911D01*
X40424Y-46058D01*
X40221Y-46167D01*
X40001Y-46235D01*
X39772Y-46259D01*
X39543Y-46239D01*
X39322Y-46174D01*
X39118Y-46067D01*
X38938Y-45922D01*
X38790Y-45746D01*
X38679Y-45544D01*
X38609Y-45324D01*
X38584Y-45095D01*
X38603Y-44866D01*
X38666Y-44645D01*
X38772Y-44440D01*
X38915Y-44259D01*
X39090Y-44110D01*
X39292Y-43997D01*
X39511Y-43926D01*
X39740Y-43899D01*
X39969Y-43916D01*
X40191Y-43978D01*
X40396Y-44082D01*
X40578Y-44224D01*
X40729Y-44399D01*
X40842Y-44599D01*
X40915Y-44818D01*
X40944Y-45047D01*
X40945Y-45079D01*
M02*
