G04 (created by PCBNEW-RS274X (2010-03-14)-final) date Thu 12 Jan 2012 21:53:35 GMT*
G01*
G70*
G90*
%MOIN*%
G04 Gerber Fmt 3.4, Leading zero omitted, Abs format*
%FSLAX34Y34*%
G04 APERTURE LIST*
%ADD10C,0.006000*%
%ADD11R,0.075000X0.075000*%
%ADD12C,0.075000*%
%ADD13C,0.037400*%
%ADD14C,0.063000*%
%ADD15C,0.078700*%
%ADD16O,0.126000X0.059100*%
%ADD17O,0.059100X0.126000*%
%ADD18C,0.094500*%
%ADD19C,0.126000*%
%ADD20C,0.039400*%
%ADD21C,0.015700*%
%ADD22C,0.031500*%
%ADD23C,0.035000*%
%ADD24C,0.007900*%
%ADD25C,0.039400*%
%ADD26C,0.078700*%
%ADD27C,0.010000*%
G04 APERTURE END LIST*
G54D10*
G54D11*
X40264Y-47819D03*
G54D12*
X40264Y-48819D03*
X40264Y-49819D03*
X39264Y-47819D03*
X39264Y-48819D03*
X39264Y-49819D03*
G54D13*
X45768Y-51772D03*
X46359Y-51772D03*
G54D14*
X42323Y-58661D03*
X44292Y-58661D03*
X42323Y-50000D03*
X44292Y-50000D03*
G54D15*
X52856Y-58268D03*
X55809Y-58268D03*
X52856Y-50394D03*
X55809Y-50394D03*
G54D16*
X60236Y-55708D03*
X60236Y-57677D03*
X36220Y-58857D03*
X36220Y-60826D03*
X36220Y-54527D03*
X36220Y-56496D03*
X60236Y-50983D03*
X60236Y-52952D03*
G54D17*
X47046Y-46850D03*
X49015Y-46850D03*
G54D18*
X36220Y-51968D03*
X36220Y-49999D03*
X36220Y-48031D03*
X36220Y-46062D03*
G54D19*
X60531Y-44980D03*
X60531Y-60531D03*
X39764Y-60531D03*
X39764Y-45079D03*
G54D20*
X45866Y-46161D03*
X49606Y-55197D03*
X49606Y-53464D03*
X49134Y-54331D03*
G54D21*
X45079Y-53150D03*
X45079Y-52756D03*
X44685Y-53150D03*
X44685Y-52756D03*
X45079Y-55512D03*
X45079Y-55905D03*
X44685Y-55512D03*
X44685Y-55905D03*
X45177Y-55118D03*
X44882Y-55118D03*
X44587Y-55118D03*
X45177Y-54331D03*
X44882Y-54331D03*
X44587Y-54331D03*
X45177Y-53543D03*
X44882Y-53543D03*
X44587Y-53543D03*
G54D22*
X44882Y-52953D03*
X44882Y-55709D03*
X46457Y-53051D03*
X46457Y-55610D03*
X43307Y-54823D03*
G54D23*
X39764Y-52362D03*
X39764Y-56299D03*
X39764Y-55512D03*
X39764Y-54724D03*
G54D22*
X38681Y-50984D03*
X39173Y-51476D03*
G54D21*
X45276Y-49213D03*
X45276Y-47539D03*
X44980Y-49213D03*
X44980Y-47539D03*
X43799Y-47539D03*
X43799Y-49213D03*
X43504Y-47539D03*
X43504Y-49213D03*
G54D20*
X46949Y-54429D03*
X46949Y-53051D03*
G54D24*
X38681Y-50984D02*
X39173Y-51476D01*
X45276Y-49213D02*
X45276Y-47539D01*
X44980Y-49213D02*
X44980Y-47539D01*
X43799Y-49213D02*
X43799Y-47539D01*
X43504Y-49213D02*
X43504Y-47539D01*
G54D25*
X46949Y-53051D02*
X46949Y-54429D01*
G54D26*
X42323Y-50000D02*
X42323Y-58661D01*
G54D27*
X34527Y-43582D02*
X61930Y-43582D01*
X34527Y-43662D02*
X61930Y-43662D01*
X34527Y-43742D02*
X61930Y-43742D01*
X34527Y-43822D02*
X61930Y-43822D01*
X34527Y-43902D02*
X61930Y-43902D01*
X34527Y-43982D02*
X61930Y-43982D01*
X34527Y-44062D02*
X61930Y-44062D01*
X34527Y-44142D02*
X60256Y-44142D01*
X60808Y-44142D02*
X61930Y-44142D01*
X34527Y-44222D02*
X39535Y-44222D01*
X39996Y-44222D02*
X60063Y-44222D01*
X60999Y-44222D02*
X61930Y-44222D01*
X34527Y-44302D02*
X39341Y-44302D01*
X40187Y-44302D02*
X59965Y-44302D01*
X61097Y-44302D02*
X61930Y-44302D01*
X34527Y-44382D02*
X39217Y-44382D01*
X40311Y-44382D02*
X59885Y-44382D01*
X61177Y-44382D02*
X61930Y-44382D01*
X34527Y-44462D02*
X39137Y-44462D01*
X40391Y-44462D02*
X59805Y-44462D01*
X61257Y-44462D02*
X61930Y-44462D01*
X34527Y-44542D02*
X39057Y-44542D01*
X40471Y-44542D02*
X59761Y-44542D01*
X61302Y-44542D02*
X61930Y-44542D01*
X34527Y-44622D02*
X39002Y-44622D01*
X40527Y-44622D02*
X59728Y-44622D01*
X61335Y-44622D02*
X61930Y-44622D01*
X34527Y-44702D02*
X38969Y-44702D01*
X40561Y-44702D02*
X59694Y-44702D01*
X61368Y-44702D02*
X61930Y-44702D01*
X34527Y-44782D02*
X38935Y-44782D01*
X40594Y-44782D02*
X59661Y-44782D01*
X61402Y-44782D02*
X61930Y-44782D01*
X34527Y-44862D02*
X38902Y-44862D01*
X40627Y-44862D02*
X59651Y-44862D01*
X61411Y-44862D02*
X61930Y-44862D01*
X34527Y-44942D02*
X38884Y-44942D01*
X40644Y-44942D02*
X59651Y-44942D01*
X61411Y-44942D02*
X61930Y-44942D01*
X34527Y-45022D02*
X38884Y-45022D01*
X40644Y-45022D02*
X59651Y-45022D01*
X61411Y-45022D02*
X61930Y-45022D01*
X34527Y-45102D02*
X38884Y-45102D01*
X40644Y-45102D02*
X59651Y-45102D01*
X61411Y-45102D02*
X61930Y-45102D01*
X34527Y-45182D02*
X38884Y-45182D01*
X40644Y-45182D02*
X59662Y-45182D01*
X61400Y-45182D02*
X61930Y-45182D01*
X34527Y-45262D02*
X38887Y-45262D01*
X40641Y-45262D02*
X59695Y-45262D01*
X61366Y-45262D02*
X61930Y-45262D01*
X34527Y-45342D02*
X36237Y-45342D01*
X36247Y-45342D02*
X38920Y-45342D01*
X40607Y-45342D02*
X59728Y-45342D01*
X61333Y-45342D02*
X61930Y-45342D01*
X34527Y-45422D02*
X35914Y-45422D01*
X36526Y-45422D02*
X38953Y-45422D01*
X40574Y-45422D02*
X59761Y-45422D01*
X61299Y-45422D02*
X61930Y-45422D01*
X34527Y-45502D02*
X35870Y-45502D01*
X36571Y-45502D02*
X38986Y-45502D01*
X40540Y-45502D02*
X59809Y-45502D01*
X61253Y-45502D02*
X61930Y-45502D01*
X34527Y-45582D02*
X35948Y-45582D01*
X36492Y-45582D02*
X39023Y-45582D01*
X40505Y-45582D02*
X59889Y-45582D01*
X61173Y-45582D02*
X61930Y-45582D01*
X34527Y-45662D02*
X36028Y-45662D01*
X36412Y-45662D02*
X39103Y-45662D01*
X40425Y-45662D02*
X59969Y-45662D01*
X61093Y-45662D02*
X61930Y-45662D01*
X34527Y-45742D02*
X35606Y-45742D01*
X35692Y-45742D02*
X36108Y-45742D01*
X36332Y-45742D02*
X36748Y-45742D01*
X36835Y-45742D02*
X39183Y-45742D01*
X40345Y-45742D02*
X60072Y-45742D01*
X60990Y-45742D02*
X61930Y-45742D01*
X34527Y-45822D02*
X35550Y-45822D01*
X35772Y-45822D02*
X36188Y-45822D01*
X36252Y-45822D02*
X36668Y-45822D01*
X36897Y-45822D02*
X39263Y-45822D01*
X40265Y-45822D02*
X60264Y-45822D01*
X60796Y-45822D02*
X61930Y-45822D01*
X34527Y-45902D02*
X35531Y-45902D01*
X35852Y-45902D02*
X36588Y-45902D01*
X36911Y-45902D02*
X39451Y-45902D01*
X40075Y-45902D02*
X61930Y-45902D01*
X34527Y-45982D02*
X35513Y-45982D01*
X35932Y-45982D02*
X36508Y-45982D01*
X36924Y-45982D02*
X46894Y-45982D01*
X47199Y-45982D02*
X61930Y-45982D01*
X34527Y-46062D02*
X35502Y-46062D01*
X36012Y-46062D02*
X36428Y-46062D01*
X36938Y-46062D02*
X46726Y-46062D01*
X47367Y-46062D02*
X48725Y-46062D01*
X48868Y-46062D02*
X49162Y-46062D01*
X49306Y-46062D02*
X61930Y-46062D01*
X34527Y-46142D02*
X35516Y-46142D01*
X35932Y-46142D02*
X36508Y-46142D01*
X36927Y-46142D02*
X46646Y-46142D01*
X47447Y-46142D02*
X48625Y-46142D01*
X48868Y-46142D02*
X49162Y-46142D01*
X49406Y-46142D02*
X61930Y-46142D01*
X34527Y-46222D02*
X35529Y-46222D01*
X35852Y-46222D02*
X36588Y-46222D01*
X36909Y-46222D02*
X46582Y-46222D01*
X47512Y-46222D02*
X48567Y-46222D01*
X48868Y-46222D02*
X49162Y-46222D01*
X49464Y-46222D02*
X61930Y-46222D01*
X34527Y-46302D02*
X35543Y-46302D01*
X35772Y-46302D02*
X36188Y-46302D01*
X36252Y-46302D02*
X36668Y-46302D01*
X36890Y-46302D02*
X46549Y-46302D01*
X47544Y-46302D02*
X48516Y-46302D01*
X48868Y-46302D02*
X49162Y-46302D01*
X49515Y-46302D02*
X61930Y-46302D01*
X34527Y-46382D02*
X35605Y-46382D01*
X35692Y-46382D02*
X36108Y-46382D01*
X36332Y-46382D02*
X36748Y-46382D01*
X36834Y-46382D02*
X46515Y-46382D01*
X47577Y-46382D02*
X48497Y-46382D01*
X48868Y-46382D02*
X49162Y-46382D01*
X49534Y-46382D02*
X61930Y-46382D01*
X34527Y-46462D02*
X36028Y-46462D01*
X36412Y-46462D02*
X46511Y-46462D01*
X47581Y-46462D02*
X48478Y-46462D01*
X48868Y-46462D02*
X49162Y-46462D01*
X49553Y-46462D02*
X61930Y-46462D01*
X34527Y-46542D02*
X35948Y-46542D01*
X36492Y-46542D02*
X46511Y-46542D01*
X47581Y-46542D02*
X48470Y-46542D01*
X48868Y-46542D02*
X49162Y-46542D01*
X49560Y-46542D02*
X61930Y-46542D01*
X34527Y-46622D02*
X35869Y-46622D01*
X36570Y-46622D02*
X46511Y-46622D01*
X47581Y-46622D02*
X48470Y-46622D01*
X48868Y-46622D02*
X49162Y-46622D01*
X49560Y-46622D02*
X61930Y-46622D01*
X34527Y-46702D02*
X35914Y-46702D01*
X36526Y-46702D02*
X46511Y-46702D01*
X47581Y-46702D02*
X48470Y-46702D01*
X48868Y-46702D02*
X49162Y-46702D01*
X49560Y-46702D02*
X61930Y-46702D01*
X34527Y-46782D02*
X36193Y-46782D01*
X36203Y-46782D02*
X46511Y-46782D01*
X47581Y-46782D02*
X61930Y-46782D01*
X34527Y-46862D02*
X46511Y-46862D01*
X47581Y-46862D02*
X61930Y-46862D01*
X34527Y-46942D02*
X46511Y-46942D01*
X47581Y-46942D02*
X61930Y-46942D01*
X34527Y-47022D02*
X46511Y-47022D01*
X47581Y-47022D02*
X48470Y-47022D01*
X48868Y-47022D02*
X49162Y-47022D01*
X49560Y-47022D02*
X61930Y-47022D01*
X34527Y-47102D02*
X46511Y-47102D01*
X47581Y-47102D02*
X48470Y-47102D01*
X48868Y-47102D02*
X49162Y-47102D01*
X49560Y-47102D02*
X61930Y-47102D01*
X34527Y-47182D02*
X46511Y-47182D01*
X47581Y-47182D02*
X48470Y-47182D01*
X48868Y-47182D02*
X49162Y-47182D01*
X49560Y-47182D02*
X61930Y-47182D01*
X34527Y-47262D02*
X38976Y-47262D01*
X39555Y-47262D02*
X39719Y-47262D01*
X40809Y-47262D02*
X43317Y-47262D01*
X43986Y-47262D02*
X44793Y-47262D01*
X45463Y-47262D02*
X46511Y-47262D01*
X47581Y-47262D02*
X48483Y-47262D01*
X48868Y-47262D02*
X49162Y-47262D01*
X49546Y-47262D02*
X61930Y-47262D01*
X34527Y-47342D02*
X35998Y-47342D01*
X36444Y-47342D02*
X38857Y-47342D01*
X40867Y-47342D02*
X43237Y-47342D01*
X44066Y-47342D02*
X44713Y-47342D01*
X45543Y-47342D02*
X46524Y-47342D01*
X47567Y-47342D02*
X48502Y-47342D01*
X48868Y-47342D02*
X49162Y-47342D01*
X49527Y-47342D02*
X61930Y-47342D01*
X34527Y-47422D02*
X35809Y-47422D01*
X36632Y-47422D02*
X38777Y-47422D01*
X40888Y-47422D02*
X43198Y-47422D01*
X44106Y-47422D02*
X44674Y-47422D01*
X45583Y-47422D02*
X46557Y-47422D01*
X47533Y-47422D02*
X48526Y-47422D01*
X48868Y-47422D02*
X49162Y-47422D01*
X49503Y-47422D02*
X61930Y-47422D01*
X34527Y-47502D02*
X35729Y-47502D01*
X36712Y-47502D02*
X38719Y-47502D01*
X40888Y-47502D02*
X43176Y-47502D01*
X44127Y-47502D02*
X44652Y-47502D01*
X45604Y-47502D02*
X46590Y-47502D01*
X47500Y-47502D02*
X48584Y-47502D01*
X48868Y-47502D02*
X49162Y-47502D01*
X49445Y-47502D02*
X61930Y-47502D01*
X34527Y-47582D02*
X35648Y-47582D01*
X36792Y-47582D02*
X38686Y-47582D01*
X40888Y-47582D02*
X43176Y-47582D01*
X44127Y-47582D02*
X44652Y-47582D01*
X45604Y-47582D02*
X46669Y-47582D01*
X47422Y-47582D02*
X48641Y-47582D01*
X48868Y-47582D02*
X49162Y-47582D01*
X49388Y-47582D02*
X61930Y-47582D01*
X34527Y-47662D02*
X35592Y-47662D01*
X36849Y-47662D02*
X38653Y-47662D01*
X40888Y-47662D02*
X43200Y-47662D01*
X44102Y-47662D02*
X44676Y-47662D01*
X45579Y-47662D02*
X46759Y-47662D01*
X47334Y-47662D02*
X48760Y-47662D01*
X48829Y-47662D02*
X49200Y-47662D01*
X49269Y-47662D02*
X61930Y-47662D01*
X34527Y-47742D02*
X35559Y-47742D01*
X36882Y-47742D02*
X38639Y-47742D01*
X40888Y-47742D02*
X43215Y-47742D01*
X44088Y-47742D02*
X44691Y-47742D01*
X45565Y-47742D02*
X61930Y-47742D01*
X34527Y-47822D02*
X35525Y-47822D01*
X36915Y-47822D02*
X38639Y-47822D01*
X40888Y-47822D02*
X43215Y-47822D01*
X44088Y-47822D02*
X44691Y-47822D01*
X45565Y-47822D02*
X61930Y-47822D01*
X34527Y-47902D02*
X35498Y-47902D01*
X36942Y-47902D02*
X38639Y-47902D01*
X40888Y-47902D02*
X43215Y-47902D01*
X44088Y-47902D02*
X44691Y-47902D01*
X45565Y-47902D02*
X61930Y-47902D01*
X34527Y-47982D02*
X35498Y-47982D01*
X36942Y-47982D02*
X38655Y-47982D01*
X40888Y-47982D02*
X43215Y-47982D01*
X44088Y-47982D02*
X44691Y-47982D01*
X45565Y-47982D02*
X61930Y-47982D01*
X34527Y-48062D02*
X35498Y-48062D01*
X36942Y-48062D02*
X38688Y-48062D01*
X40888Y-48062D02*
X43215Y-48062D01*
X44088Y-48062D02*
X44691Y-48062D01*
X45565Y-48062D02*
X61930Y-48062D01*
X34527Y-48142D02*
X35498Y-48142D01*
X36942Y-48142D02*
X38721Y-48142D01*
X40888Y-48142D02*
X43215Y-48142D01*
X44088Y-48142D02*
X44691Y-48142D01*
X45565Y-48142D02*
X61930Y-48142D01*
X34527Y-48222D02*
X35517Y-48222D01*
X36922Y-48222D02*
X38783Y-48222D01*
X40888Y-48222D02*
X43215Y-48222D01*
X44088Y-48222D02*
X44691Y-48222D01*
X45565Y-48222D02*
X61930Y-48222D01*
X34527Y-48302D02*
X35551Y-48302D01*
X36889Y-48302D02*
X38863Y-48302D01*
X40863Y-48302D02*
X43215Y-48302D01*
X44088Y-48302D02*
X44691Y-48302D01*
X45565Y-48302D02*
X61930Y-48302D01*
X34527Y-48382D02*
X35584Y-48382D01*
X36856Y-48382D02*
X38816Y-48382D01*
X40803Y-48382D02*
X43215Y-48382D01*
X44088Y-48382D02*
X44691Y-48382D01*
X45565Y-48382D02*
X61930Y-48382D01*
X34527Y-48462D02*
X35630Y-48462D01*
X36809Y-48462D02*
X38737Y-48462D01*
X40791Y-48462D02*
X43215Y-48462D01*
X44088Y-48462D02*
X44691Y-48462D01*
X45565Y-48462D02*
X61930Y-48462D01*
X34527Y-48542D02*
X35710Y-48542D01*
X36729Y-48542D02*
X38703Y-48542D01*
X40826Y-48542D02*
X43215Y-48542D01*
X44088Y-48542D02*
X44691Y-48542D01*
X45565Y-48542D02*
X61930Y-48542D01*
X34527Y-48622D02*
X35790Y-48622D01*
X36649Y-48622D02*
X38669Y-48622D01*
X40859Y-48622D02*
X43215Y-48622D01*
X44088Y-48622D02*
X44691Y-48622D01*
X45565Y-48622D02*
X61930Y-48622D01*
X34527Y-48702D02*
X35953Y-48702D01*
X36485Y-48702D02*
X38639Y-48702D01*
X40889Y-48702D02*
X43215Y-48702D01*
X44088Y-48702D02*
X44691Y-48702D01*
X45565Y-48702D02*
X61930Y-48702D01*
X34527Y-48782D02*
X38639Y-48782D01*
X40889Y-48782D02*
X43215Y-48782D01*
X44088Y-48782D02*
X44691Y-48782D01*
X45565Y-48782D02*
X61930Y-48782D01*
X34527Y-48862D02*
X38639Y-48862D01*
X40889Y-48862D02*
X43215Y-48862D01*
X44088Y-48862D02*
X44691Y-48862D01*
X45565Y-48862D02*
X61930Y-48862D01*
X34527Y-48942D02*
X38639Y-48942D01*
X40889Y-48942D02*
X43215Y-48942D01*
X44088Y-48942D02*
X44691Y-48942D01*
X45565Y-48942D02*
X61930Y-48942D01*
X34527Y-49022D02*
X38671Y-49022D01*
X40856Y-49022D02*
X43215Y-49022D01*
X44088Y-49022D02*
X44691Y-49022D01*
X45565Y-49022D02*
X61930Y-49022D01*
X34527Y-49102D02*
X38704Y-49102D01*
X40823Y-49102D02*
X43195Y-49102D01*
X44109Y-49102D02*
X44671Y-49102D01*
X45586Y-49102D02*
X61930Y-49102D01*
X34527Y-49182D02*
X38743Y-49182D01*
X40784Y-49182D02*
X43176Y-49182D01*
X44127Y-49182D02*
X44652Y-49182D01*
X45604Y-49182D02*
X61930Y-49182D01*
X34527Y-49262D02*
X38823Y-49262D01*
X39704Y-49262D02*
X39823Y-49262D01*
X40703Y-49262D02*
X43176Y-49262D01*
X44127Y-49262D02*
X44652Y-49262D01*
X45604Y-49262D02*
X61930Y-49262D01*
X34527Y-49342D02*
X35920Y-49342D01*
X36521Y-49342D02*
X38903Y-49342D01*
X39624Y-49342D02*
X39857Y-49342D01*
X40671Y-49342D02*
X43202Y-49342D01*
X44100Y-49342D02*
X44678Y-49342D01*
X45577Y-49342D02*
X61930Y-49342D01*
X34527Y-49422D02*
X35777Y-49422D01*
X36664Y-49422D02*
X39075Y-49422D01*
X39452Y-49422D02*
X39777Y-49422D01*
X40751Y-49422D02*
X42053Y-49422D01*
X42594Y-49422D02*
X43249Y-49422D01*
X44054Y-49422D02*
X44725Y-49422D01*
X45531Y-49422D02*
X61930Y-49422D01*
X34527Y-49502D02*
X35697Y-49502D01*
X36744Y-49502D02*
X39155Y-49502D01*
X39372Y-49502D02*
X39719Y-49502D01*
X40810Y-49502D02*
X41933Y-49502D01*
X42714Y-49502D02*
X43344Y-49502D01*
X43958Y-49502D02*
X44079Y-49502D01*
X44506Y-49502D02*
X44820Y-49502D01*
X45435Y-49502D02*
X61930Y-49502D01*
X34527Y-49582D02*
X35617Y-49582D01*
X36824Y-49582D02*
X38686Y-49582D01*
X38819Y-49582D02*
X39235Y-49582D01*
X39292Y-49582D02*
X39685Y-49582D01*
X40843Y-49582D02*
X41844Y-49582D01*
X42803Y-49582D02*
X44082Y-49582D01*
X44502Y-49582D02*
X61930Y-49582D01*
X34527Y-49662D02*
X35579Y-49662D01*
X36862Y-49662D02*
X38671Y-49662D01*
X38899Y-49662D02*
X39629Y-49662D01*
X40876Y-49662D02*
X41791Y-49662D01*
X42856Y-49662D02*
X44162Y-49662D01*
X44422Y-49662D02*
X61930Y-49662D01*
X34527Y-49742D02*
X35545Y-49742D01*
X36895Y-49742D02*
X38655Y-49742D01*
X38979Y-49742D02*
X39549Y-49742D01*
X40889Y-49742D02*
X41737Y-49742D01*
X42910Y-49742D02*
X44242Y-49742D01*
X44342Y-49742D02*
X61930Y-49742D01*
X34527Y-49822D02*
X35512Y-49822D01*
X36928Y-49822D02*
X38639Y-49822D01*
X39053Y-49822D02*
X39475Y-49822D01*
X40889Y-49822D02*
X41716Y-49822D01*
X42931Y-49822D02*
X43761Y-49822D01*
X43906Y-49822D02*
X44678Y-49822D01*
X44824Y-49822D02*
X52559Y-49822D01*
X53155Y-49822D02*
X55512Y-49822D01*
X56108Y-49822D02*
X61930Y-49822D01*
X34527Y-49902D02*
X35498Y-49902D01*
X36942Y-49902D02*
X38655Y-49902D01*
X38973Y-49902D02*
X39555Y-49902D01*
X40889Y-49902D02*
X41700Y-49902D01*
X42947Y-49902D02*
X43748Y-49902D01*
X43986Y-49902D02*
X44598Y-49902D01*
X44840Y-49902D02*
X52440Y-49902D01*
X53273Y-49902D02*
X55393Y-49902D01*
X56226Y-49902D02*
X61930Y-49902D01*
X34527Y-49982D02*
X35498Y-49982D01*
X36942Y-49982D02*
X38671Y-49982D01*
X38893Y-49982D02*
X39635Y-49982D01*
X40873Y-49982D02*
X41684Y-49982D01*
X42963Y-49982D02*
X43734Y-49982D01*
X44066Y-49982D02*
X44518Y-49982D01*
X44856Y-49982D02*
X52360Y-49982D01*
X53353Y-49982D02*
X55313Y-49982D01*
X56306Y-49982D02*
X61930Y-49982D01*
X34527Y-50062D02*
X35498Y-50062D01*
X36942Y-50062D02*
X38696Y-50062D01*
X38813Y-50062D02*
X39229Y-50062D01*
X39299Y-50062D02*
X39688Y-50062D01*
X40840Y-50062D02*
X41680Y-50062D01*
X42966Y-50062D02*
X43737Y-50062D01*
X44022Y-50062D02*
X44562Y-50062D01*
X44842Y-50062D02*
X52299Y-50062D01*
X53414Y-50062D02*
X55252Y-50062D01*
X56367Y-50062D02*
X61930Y-50062D01*
X34527Y-50142D02*
X35498Y-50142D01*
X36942Y-50142D02*
X39149Y-50142D01*
X39379Y-50142D02*
X39721Y-50142D01*
X40806Y-50142D02*
X41680Y-50142D01*
X42966Y-50142D02*
X43753Y-50142D01*
X43942Y-50142D02*
X44642Y-50142D01*
X44829Y-50142D02*
X52265Y-50142D01*
X53448Y-50142D02*
X55218Y-50142D01*
X56401Y-50142D02*
X61930Y-50142D01*
X34527Y-50222D02*
X35531Y-50222D01*
X36909Y-50222D02*
X39069Y-50222D01*
X39459Y-50222D02*
X39783Y-50222D01*
X40745Y-50222D02*
X41680Y-50222D01*
X42966Y-50222D02*
X43813Y-50222D01*
X43862Y-50222D02*
X44278Y-50222D01*
X44306Y-50222D02*
X44722Y-50222D01*
X44770Y-50222D02*
X52232Y-50222D01*
X53481Y-50222D02*
X55185Y-50222D01*
X56434Y-50222D02*
X61930Y-50222D01*
X34527Y-50302D02*
X35564Y-50302D01*
X36876Y-50302D02*
X38989Y-50302D01*
X39539Y-50302D02*
X39863Y-50302D01*
X40665Y-50302D02*
X41680Y-50302D01*
X42966Y-50302D02*
X44198Y-50302D01*
X44386Y-50302D02*
X52213Y-50302D01*
X53499Y-50302D02*
X55166Y-50302D01*
X56452Y-50302D02*
X61930Y-50302D01*
X34527Y-50382D02*
X35597Y-50382D01*
X36842Y-50382D02*
X39019Y-50382D01*
X39509Y-50382D02*
X39989Y-50382D01*
X40538Y-50382D02*
X41680Y-50382D01*
X42966Y-50382D02*
X44118Y-50382D01*
X44466Y-50382D02*
X52213Y-50382D01*
X53499Y-50382D02*
X55166Y-50382D01*
X56452Y-50382D02*
X61930Y-50382D01*
X34527Y-50462D02*
X35662Y-50462D01*
X36777Y-50462D02*
X41680Y-50462D01*
X42966Y-50462D02*
X44063Y-50462D01*
X44520Y-50462D02*
X52213Y-50462D01*
X53499Y-50462D02*
X55166Y-50462D01*
X56452Y-50462D02*
X59744Y-50462D01*
X60729Y-50462D02*
X61930Y-50462D01*
X34527Y-50542D02*
X35742Y-50542D01*
X36697Y-50542D02*
X41680Y-50542D01*
X42966Y-50542D02*
X44178Y-50542D01*
X44418Y-50542D02*
X52221Y-50542D01*
X53491Y-50542D02*
X55174Y-50542D01*
X56444Y-50542D02*
X59569Y-50542D01*
X60904Y-50542D02*
X61930Y-50542D01*
X34527Y-50622D02*
X35837Y-50622D01*
X36601Y-50622D02*
X38496Y-50622D01*
X38870Y-50622D02*
X41680Y-50622D01*
X42966Y-50622D02*
X52254Y-50622D01*
X53457Y-50622D02*
X55207Y-50622D01*
X56410Y-50622D02*
X59489Y-50622D01*
X60984Y-50622D02*
X61930Y-50622D01*
X34527Y-50702D02*
X36030Y-50702D01*
X36408Y-50702D02*
X38389Y-50702D01*
X38973Y-50702D02*
X41680Y-50702D01*
X42966Y-50702D02*
X52288Y-50702D01*
X53423Y-50702D02*
X55241Y-50702D01*
X56376Y-50702D02*
X59422Y-50702D01*
X61052Y-50702D02*
X61930Y-50702D01*
X34527Y-50782D02*
X38326Y-50782D01*
X39037Y-50782D02*
X41680Y-50782D01*
X42966Y-50782D02*
X52335Y-50782D01*
X53376Y-50782D02*
X55288Y-50782D01*
X56329Y-50782D02*
X59389Y-50782D01*
X61084Y-50782D02*
X61930Y-50782D01*
X34527Y-50862D02*
X38292Y-50862D01*
X39070Y-50862D02*
X41680Y-50862D01*
X42966Y-50862D02*
X52415Y-50862D01*
X53296Y-50862D02*
X55368Y-50862D01*
X56249Y-50862D02*
X59355Y-50862D01*
X61117Y-50862D02*
X61930Y-50862D01*
X34527Y-50942D02*
X38275Y-50942D01*
X39087Y-50942D02*
X41680Y-50942D01*
X42966Y-50942D02*
X52500Y-50942D01*
X53211Y-50942D02*
X55453Y-50942D01*
X56164Y-50942D02*
X59349Y-50942D01*
X61123Y-50942D02*
X61930Y-50942D01*
X34527Y-51022D02*
X38275Y-51022D01*
X39128Y-51022D02*
X41680Y-51022D01*
X42966Y-51022D02*
X52691Y-51022D01*
X53019Y-51022D02*
X55644Y-51022D01*
X55972Y-51022D02*
X59349Y-51022D01*
X61123Y-51022D02*
X61930Y-51022D01*
X34527Y-51102D02*
X38290Y-51102D01*
X39333Y-51102D02*
X41680Y-51102D01*
X42966Y-51102D02*
X59354Y-51102D01*
X61117Y-51102D02*
X61930Y-51102D01*
X34527Y-51182D02*
X38324Y-51182D01*
X39454Y-51182D02*
X41680Y-51182D01*
X42966Y-51182D02*
X59387Y-51182D01*
X61084Y-51182D02*
X61930Y-51182D01*
X34527Y-51262D02*
X36038Y-51262D01*
X36403Y-51262D02*
X38385Y-51262D01*
X39524Y-51262D02*
X41680Y-51262D01*
X42966Y-51262D02*
X59420Y-51262D01*
X61051Y-51262D02*
X61930Y-51262D01*
X34527Y-51342D02*
X35846Y-51342D01*
X36596Y-51342D02*
X38483Y-51342D01*
X39557Y-51342D02*
X41680Y-51342D01*
X42966Y-51342D02*
X45665Y-51342D01*
X45873Y-51342D02*
X46335Y-51342D01*
X46396Y-51342D02*
X59486Y-51342D01*
X60985Y-51342D02*
X61930Y-51342D01*
X34527Y-51422D02*
X35746Y-51422D01*
X36695Y-51422D02*
X38710Y-51422D01*
X39579Y-51422D02*
X41680Y-51422D01*
X42966Y-51422D02*
X45500Y-51422D01*
X46036Y-51422D02*
X46150Y-51422D01*
X46545Y-51422D02*
X59566Y-51422D01*
X60905Y-51422D02*
X61930Y-51422D01*
X34527Y-51502D02*
X35666Y-51502D01*
X36775Y-51502D02*
X38767Y-51502D01*
X39579Y-51502D02*
X41680Y-51502D01*
X42966Y-51502D02*
X45420Y-51502D01*
X46497Y-51502D02*
X59738Y-51502D01*
X60732Y-51502D02*
X61930Y-51502D01*
X34527Y-51582D02*
X35599Y-51582D01*
X36842Y-51582D02*
X38777Y-51582D01*
X39568Y-51582D02*
X41680Y-51582D01*
X42966Y-51582D02*
X45374Y-51582D01*
X46417Y-51582D02*
X46681Y-51582D01*
X46686Y-51582D02*
X61930Y-51582D01*
X34527Y-51662D02*
X35566Y-51662D01*
X36875Y-51662D02*
X38811Y-51662D01*
X39535Y-51662D02*
X41680Y-51662D01*
X42966Y-51662D02*
X45341Y-51662D01*
X46260Y-51662D02*
X46601Y-51662D01*
X46775Y-51662D02*
X61930Y-51662D01*
X34527Y-51742D02*
X35533Y-51742D01*
X36908Y-51742D02*
X38865Y-51742D01*
X39481Y-51742D02*
X41680Y-51742D01*
X42966Y-51742D02*
X45331Y-51742D01*
X46205Y-51742D02*
X46521Y-51742D01*
X46789Y-51742D02*
X61930Y-51742D01*
X34527Y-51822D02*
X35499Y-51822D01*
X36941Y-51822D02*
X38946Y-51822D01*
X39397Y-51822D02*
X41680Y-51822D01*
X42966Y-51822D02*
X45331Y-51822D01*
X46205Y-51822D02*
X46540Y-51822D01*
X46786Y-51822D02*
X61930Y-51822D01*
X34527Y-51902D02*
X35498Y-51902D01*
X36942Y-51902D02*
X41680Y-51902D01*
X42966Y-51902D02*
X45349Y-51902D01*
X46281Y-51902D02*
X46620Y-51902D01*
X46768Y-51902D02*
X61930Y-51902D01*
X34527Y-51982D02*
X35498Y-51982D01*
X36942Y-51982D02*
X41680Y-51982D01*
X42966Y-51982D02*
X45381Y-51982D01*
X46438Y-51982D02*
X61930Y-51982D01*
X34527Y-52062D02*
X35498Y-52062D01*
X36942Y-52062D02*
X41680Y-52062D01*
X42966Y-52062D02*
X45440Y-52062D01*
X46518Y-52062D02*
X61930Y-52062D01*
X34527Y-52142D02*
X35510Y-52142D01*
X36929Y-52142D02*
X41680Y-52142D01*
X42966Y-52142D02*
X45520Y-52142D01*
X46015Y-52142D02*
X46171Y-52142D01*
X46540Y-52142D02*
X61930Y-52142D01*
X34527Y-52222D02*
X35544Y-52222D01*
X36896Y-52222D02*
X41680Y-52222D01*
X42966Y-52222D02*
X61930Y-52222D01*
X34527Y-52302D02*
X35577Y-52302D01*
X36863Y-52302D02*
X41680Y-52302D01*
X42966Y-52302D02*
X61930Y-52302D01*
X34527Y-52382D02*
X35613Y-52382D01*
X36826Y-52382D02*
X41680Y-52382D01*
X42966Y-52382D02*
X61930Y-52382D01*
X34527Y-52462D02*
X35693Y-52462D01*
X36746Y-52462D02*
X41680Y-52462D01*
X42966Y-52462D02*
X59666Y-52462D01*
X60089Y-52462D02*
X60383Y-52462D01*
X60807Y-52462D02*
X61930Y-52462D01*
X34527Y-52542D02*
X35773Y-52542D01*
X36666Y-52542D02*
X41680Y-52542D01*
X42966Y-52542D02*
X59555Y-52542D01*
X60089Y-52542D02*
X60383Y-52542D01*
X60918Y-52542D02*
X61930Y-52542D01*
X34527Y-52622D02*
X35912Y-52622D01*
X36526Y-52622D02*
X41680Y-52622D01*
X42966Y-52622D02*
X46819Y-52622D01*
X47079Y-52622D02*
X59474Y-52622D01*
X60089Y-52622D02*
X60383Y-52622D01*
X60999Y-52622D02*
X61930Y-52622D01*
X34527Y-52702D02*
X41680Y-52702D01*
X42966Y-52702D02*
X46667Y-52702D01*
X47231Y-52702D02*
X59422Y-52702D01*
X60089Y-52702D02*
X60383Y-52702D01*
X61051Y-52702D02*
X61930Y-52702D01*
X34527Y-52782D02*
X41680Y-52782D01*
X42966Y-52782D02*
X46587Y-52782D01*
X47311Y-52782D02*
X59430Y-52782D01*
X60089Y-52782D02*
X60383Y-52782D01*
X61041Y-52782D02*
X61930Y-52782D01*
X34527Y-52862D02*
X41680Y-52862D01*
X42966Y-52862D02*
X46544Y-52862D01*
X47354Y-52862D02*
X61930Y-52862D01*
X34527Y-52942D02*
X41680Y-52942D01*
X42966Y-52942D02*
X46512Y-52942D01*
X47387Y-52942D02*
X61930Y-52942D01*
X34527Y-53022D02*
X41680Y-53022D01*
X42966Y-53022D02*
X46503Y-53022D01*
X47395Y-53022D02*
X61930Y-53022D01*
X34527Y-53102D02*
X41680Y-53102D01*
X42966Y-53102D02*
X46502Y-53102D01*
X47396Y-53102D02*
X59440Y-53102D01*
X60089Y-53102D02*
X60383Y-53102D01*
X61033Y-53102D02*
X61930Y-53102D01*
X34527Y-53182D02*
X41680Y-53182D01*
X42966Y-53182D02*
X46502Y-53182D01*
X47396Y-53182D02*
X59407Y-53182D01*
X60089Y-53182D02*
X60383Y-53182D01*
X61064Y-53182D02*
X61930Y-53182D01*
X34527Y-53262D02*
X41680Y-53262D01*
X42966Y-53262D02*
X46502Y-53262D01*
X47396Y-53262D02*
X59460Y-53262D01*
X60089Y-53262D02*
X60383Y-53262D01*
X61011Y-53262D02*
X61930Y-53262D01*
X34527Y-53342D02*
X41680Y-53342D01*
X42966Y-53342D02*
X46502Y-53342D01*
X47396Y-53342D02*
X59527Y-53342D01*
X60089Y-53342D02*
X60383Y-53342D01*
X60944Y-53342D02*
X61930Y-53342D01*
X34527Y-53422D02*
X41680Y-53422D01*
X42966Y-53422D02*
X46502Y-53422D01*
X47396Y-53422D02*
X59638Y-53422D01*
X60089Y-53422D02*
X60383Y-53422D01*
X60833Y-53422D02*
X61930Y-53422D01*
X34527Y-53502D02*
X41680Y-53502D01*
X42966Y-53502D02*
X46502Y-53502D01*
X47396Y-53502D02*
X61930Y-53502D01*
X34527Y-53582D02*
X41680Y-53582D01*
X42966Y-53582D02*
X46502Y-53582D01*
X47396Y-53582D02*
X61930Y-53582D01*
X34527Y-53662D02*
X41680Y-53662D01*
X42966Y-53662D02*
X46502Y-53662D01*
X47396Y-53662D02*
X61930Y-53662D01*
X34527Y-53742D02*
X41680Y-53742D01*
X42966Y-53742D02*
X46502Y-53742D01*
X47396Y-53742D02*
X61930Y-53742D01*
X34527Y-53822D02*
X41680Y-53822D01*
X42966Y-53822D02*
X46502Y-53822D01*
X47396Y-53822D02*
X61930Y-53822D01*
X34527Y-53902D02*
X41680Y-53902D01*
X42966Y-53902D02*
X46502Y-53902D01*
X47396Y-53902D02*
X61930Y-53902D01*
X34527Y-53982D02*
X41680Y-53982D01*
X42966Y-53982D02*
X46502Y-53982D01*
X47396Y-53982D02*
X61930Y-53982D01*
X34527Y-54062D02*
X35592Y-54062D01*
X36847Y-54062D02*
X41680Y-54062D01*
X42966Y-54062D02*
X46502Y-54062D01*
X47396Y-54062D02*
X61930Y-54062D01*
X34527Y-54142D02*
X35497Y-54142D01*
X36944Y-54142D02*
X41680Y-54142D01*
X42966Y-54142D02*
X46502Y-54142D01*
X47396Y-54142D02*
X61930Y-54142D01*
X34527Y-54222D02*
X35417Y-54222D01*
X37024Y-54222D02*
X41680Y-54222D01*
X42966Y-54222D02*
X46502Y-54222D01*
X47396Y-54222D02*
X61930Y-54222D01*
X34527Y-54302D02*
X35383Y-54302D01*
X37059Y-54302D02*
X41680Y-54302D01*
X42966Y-54302D02*
X46502Y-54302D01*
X47396Y-54302D02*
X61930Y-54302D01*
X34527Y-54382D02*
X35349Y-54382D01*
X37091Y-54382D02*
X41680Y-54382D01*
X42966Y-54382D02*
X46502Y-54382D01*
X47396Y-54382D02*
X61930Y-54382D01*
X34527Y-54462D02*
X35333Y-54462D01*
X37107Y-54462D02*
X41680Y-54462D01*
X42966Y-54462D02*
X46503Y-54462D01*
X47395Y-54462D02*
X61930Y-54462D01*
X34527Y-54542D02*
X35333Y-54542D01*
X37107Y-54542D02*
X41680Y-54542D01*
X42966Y-54542D02*
X46513Y-54542D01*
X47384Y-54542D02*
X61930Y-54542D01*
X34527Y-54622D02*
X35333Y-54622D01*
X37107Y-54622D02*
X41680Y-54622D01*
X42966Y-54622D02*
X46546Y-54622D01*
X47351Y-54622D02*
X61930Y-54622D01*
X34527Y-54702D02*
X35361Y-54702D01*
X37078Y-54702D02*
X41680Y-54702D01*
X42966Y-54702D02*
X46591Y-54702D01*
X47306Y-54702D02*
X61930Y-54702D01*
X34527Y-54782D02*
X35394Y-54782D01*
X37045Y-54782D02*
X41680Y-54782D01*
X42966Y-54782D02*
X46671Y-54782D01*
X47226Y-54782D02*
X61930Y-54782D01*
X34527Y-54862D02*
X35446Y-54862D01*
X36993Y-54862D02*
X41680Y-54862D01*
X42966Y-54862D02*
X46829Y-54862D01*
X47067Y-54862D02*
X61930Y-54862D01*
X34527Y-54942D02*
X35526Y-54942D01*
X36913Y-54942D02*
X41680Y-54942D01*
X42966Y-54942D02*
X61930Y-54942D01*
X34527Y-55022D02*
X35665Y-55022D01*
X36775Y-55022D02*
X41680Y-55022D01*
X42966Y-55022D02*
X61930Y-55022D01*
X34527Y-55102D02*
X41680Y-55102D01*
X42966Y-55102D02*
X61930Y-55102D01*
X34527Y-55182D02*
X41680Y-55182D01*
X42966Y-55182D02*
X59756Y-55182D01*
X60717Y-55182D02*
X61930Y-55182D01*
X34527Y-55262D02*
X41680Y-55262D01*
X42966Y-55262D02*
X59574Y-55262D01*
X60899Y-55262D02*
X61930Y-55262D01*
X34527Y-55342D02*
X41680Y-55342D01*
X42966Y-55342D02*
X59494Y-55342D01*
X60979Y-55342D02*
X61930Y-55342D01*
X34527Y-55422D02*
X41680Y-55422D01*
X42966Y-55422D02*
X59424Y-55422D01*
X61049Y-55422D02*
X61930Y-55422D01*
X34527Y-55502D02*
X41680Y-55502D01*
X42966Y-55502D02*
X59391Y-55502D01*
X61082Y-55502D02*
X61930Y-55502D01*
X34527Y-55582D02*
X41680Y-55582D01*
X42966Y-55582D02*
X59357Y-55582D01*
X61115Y-55582D02*
X61930Y-55582D01*
X34527Y-55662D02*
X41680Y-55662D01*
X42966Y-55662D02*
X59349Y-55662D01*
X61123Y-55662D02*
X61930Y-55662D01*
X34527Y-55742D02*
X41680Y-55742D01*
X42966Y-55742D02*
X59349Y-55742D01*
X61123Y-55742D02*
X61930Y-55742D01*
X34527Y-55822D02*
X41680Y-55822D01*
X42966Y-55822D02*
X59352Y-55822D01*
X61120Y-55822D02*
X61930Y-55822D01*
X34527Y-55902D02*
X41680Y-55902D01*
X42966Y-55902D02*
X59385Y-55902D01*
X61086Y-55902D02*
X61930Y-55902D01*
X34527Y-55982D02*
X35733Y-55982D01*
X36073Y-55982D02*
X36367Y-55982D01*
X36706Y-55982D02*
X41680Y-55982D01*
X42966Y-55982D02*
X59418Y-55982D01*
X61053Y-55982D02*
X61930Y-55982D01*
X34527Y-56062D02*
X35573Y-56062D01*
X36073Y-56062D02*
X36367Y-56062D01*
X36868Y-56062D02*
X41680Y-56062D01*
X42966Y-56062D02*
X59481Y-56062D01*
X60990Y-56062D02*
X61930Y-56062D01*
X34527Y-56142D02*
X35474Y-56142D01*
X36073Y-56142D02*
X36367Y-56142D01*
X36967Y-56142D02*
X41680Y-56142D01*
X42966Y-56142D02*
X59561Y-56142D01*
X60910Y-56142D02*
X61930Y-56142D01*
X34527Y-56222D02*
X35422Y-56222D01*
X36073Y-56222D02*
X36367Y-56222D01*
X37019Y-56222D02*
X41680Y-56222D01*
X42966Y-56222D02*
X59726Y-56222D01*
X60745Y-56222D02*
X61930Y-56222D01*
X34527Y-56302D02*
X35404Y-56302D01*
X36073Y-56302D02*
X36367Y-56302D01*
X37035Y-56302D02*
X41680Y-56302D01*
X42966Y-56302D02*
X61930Y-56302D01*
X34527Y-56382D02*
X41680Y-56382D01*
X42966Y-56382D02*
X61930Y-56382D01*
X34527Y-56462D02*
X41680Y-56462D01*
X42966Y-56462D02*
X61930Y-56462D01*
X34527Y-56542D02*
X41680Y-56542D01*
X42966Y-56542D02*
X61930Y-56542D01*
X34527Y-56622D02*
X41680Y-56622D01*
X42966Y-56622D02*
X61930Y-56622D01*
X34527Y-56702D02*
X35400Y-56702D01*
X36073Y-56702D02*
X36367Y-56702D01*
X37041Y-56702D02*
X41680Y-56702D01*
X42966Y-56702D02*
X61930Y-56702D01*
X34527Y-56782D02*
X35428Y-56782D01*
X36073Y-56782D02*
X36367Y-56782D01*
X37011Y-56782D02*
X41680Y-56782D01*
X42966Y-56782D02*
X61930Y-56782D01*
X34527Y-56862D02*
X35481Y-56862D01*
X36073Y-56862D02*
X36367Y-56862D01*
X36958Y-56862D02*
X41680Y-56862D01*
X42966Y-56862D02*
X61930Y-56862D01*
X34527Y-56942D02*
X35588Y-56942D01*
X36073Y-56942D02*
X36367Y-56942D01*
X36851Y-56942D02*
X41680Y-56942D01*
X42966Y-56942D02*
X61930Y-56942D01*
X34527Y-57022D02*
X35785Y-57022D01*
X36073Y-57022D02*
X36367Y-57022D01*
X36655Y-57022D02*
X41680Y-57022D01*
X42966Y-57022D02*
X61930Y-57022D01*
X34527Y-57102D02*
X41680Y-57102D01*
X42966Y-57102D02*
X61930Y-57102D01*
X34527Y-57182D02*
X41680Y-57182D01*
X42966Y-57182D02*
X59673Y-57182D01*
X60089Y-57182D02*
X60383Y-57182D01*
X60800Y-57182D02*
X61930Y-57182D01*
X34527Y-57262D02*
X41680Y-57262D01*
X42966Y-57262D02*
X59562Y-57262D01*
X60089Y-57262D02*
X60383Y-57262D01*
X60911Y-57262D02*
X61930Y-57262D01*
X34527Y-57342D02*
X41680Y-57342D01*
X42966Y-57342D02*
X59478Y-57342D01*
X60089Y-57342D02*
X60383Y-57342D01*
X60995Y-57342D02*
X61930Y-57342D01*
X34527Y-57422D02*
X41680Y-57422D01*
X42966Y-57422D02*
X59425Y-57422D01*
X60089Y-57422D02*
X60383Y-57422D01*
X61048Y-57422D02*
X61930Y-57422D01*
X34527Y-57502D02*
X41680Y-57502D01*
X42966Y-57502D02*
X59428Y-57502D01*
X60089Y-57502D02*
X60383Y-57502D01*
X61043Y-57502D02*
X61930Y-57502D01*
X34527Y-57582D02*
X41680Y-57582D01*
X42966Y-57582D02*
X61930Y-57582D01*
X34527Y-57662D02*
X41680Y-57662D01*
X42966Y-57662D02*
X52639Y-57662D01*
X53074Y-57662D02*
X55592Y-57662D01*
X56027Y-57662D02*
X61930Y-57662D01*
X34527Y-57742D02*
X41680Y-57742D01*
X42966Y-57742D02*
X52474Y-57742D01*
X53239Y-57742D02*
X55427Y-57742D01*
X56192Y-57742D02*
X61930Y-57742D01*
X34527Y-57822D02*
X41680Y-57822D01*
X42966Y-57822D02*
X52394Y-57822D01*
X53319Y-57822D02*
X55347Y-57822D01*
X56272Y-57822D02*
X61930Y-57822D01*
X34527Y-57902D02*
X41680Y-57902D01*
X42966Y-57902D02*
X52314Y-57902D01*
X53399Y-57902D02*
X55267Y-57902D01*
X56352Y-57902D02*
X59407Y-57902D01*
X60089Y-57902D02*
X60383Y-57902D01*
X61066Y-57902D02*
X61930Y-57902D01*
X34527Y-57982D02*
X41680Y-57982D01*
X42966Y-57982D02*
X52279Y-57982D01*
X53433Y-57982D02*
X55232Y-57982D01*
X56386Y-57982D02*
X59457Y-57982D01*
X60089Y-57982D02*
X60383Y-57982D01*
X61014Y-57982D02*
X61930Y-57982D01*
X34527Y-58062D02*
X41680Y-58062D01*
X42966Y-58062D02*
X52246Y-58062D01*
X53467Y-58062D02*
X55199Y-58062D01*
X56420Y-58062D02*
X59520Y-58062D01*
X60089Y-58062D02*
X60383Y-58062D01*
X60951Y-58062D02*
X61930Y-58062D01*
X34527Y-58142D02*
X41680Y-58142D01*
X42966Y-58142D02*
X44087Y-58142D01*
X44498Y-58142D02*
X52213Y-58142D01*
X53499Y-58142D02*
X55166Y-58142D01*
X56452Y-58142D02*
X59631Y-58142D01*
X60089Y-58142D02*
X60383Y-58142D01*
X60840Y-58142D02*
X61930Y-58142D01*
X34527Y-58222D02*
X41680Y-58222D01*
X42966Y-58222D02*
X44061Y-58222D01*
X44523Y-58222D02*
X52213Y-58222D01*
X53499Y-58222D02*
X55166Y-58222D01*
X56452Y-58222D02*
X61930Y-58222D01*
X34527Y-58302D02*
X41680Y-58302D01*
X42966Y-58302D02*
X44141Y-58302D01*
X44443Y-58302D02*
X52213Y-58302D01*
X53499Y-58302D02*
X55166Y-58302D01*
X56452Y-58302D02*
X61930Y-58302D01*
X34527Y-58382D02*
X35616Y-58382D01*
X36823Y-58382D02*
X41680Y-58382D01*
X42966Y-58382D02*
X44221Y-58382D01*
X44363Y-58382D02*
X52213Y-58382D01*
X53499Y-58382D02*
X55166Y-58382D01*
X56452Y-58382D02*
X61930Y-58382D01*
X34527Y-58462D02*
X35507Y-58462D01*
X36934Y-58462D02*
X41680Y-58462D01*
X42966Y-58462D02*
X43765Y-58462D01*
X43885Y-58462D02*
X44699Y-58462D01*
X44820Y-58462D02*
X52240Y-58462D01*
X53471Y-58462D02*
X55193Y-58462D01*
X56424Y-58462D02*
X61930Y-58462D01*
X34527Y-58542D02*
X35427Y-58542D01*
X37014Y-58542D02*
X41680Y-58542D01*
X42966Y-58542D02*
X43751Y-58542D01*
X43965Y-58542D02*
X44619Y-58542D01*
X44836Y-58542D02*
X52274Y-58542D01*
X53438Y-58542D02*
X55227Y-58542D01*
X56391Y-58542D02*
X61930Y-58542D01*
X34527Y-58622D02*
X35387Y-58622D01*
X37054Y-58622D02*
X41680Y-58622D01*
X42966Y-58622D02*
X43738Y-58622D01*
X44045Y-58622D02*
X44539Y-58622D01*
X44852Y-58622D02*
X52307Y-58622D01*
X53404Y-58622D02*
X55260Y-58622D01*
X56357Y-58622D02*
X61930Y-58622D01*
X34527Y-58702D02*
X35354Y-58702D01*
X37087Y-58702D02*
X41688Y-58702D01*
X42957Y-58702D02*
X43733Y-58702D01*
X44043Y-58702D02*
X44541Y-58702D01*
X44846Y-58702D02*
X52381Y-58702D01*
X53330Y-58702D02*
X55334Y-58702D01*
X56283Y-58702D02*
X61930Y-58702D01*
X34527Y-58782D02*
X35333Y-58782D01*
X37107Y-58782D02*
X41704Y-58782D01*
X42941Y-58782D02*
X43748Y-58782D01*
X43963Y-58782D02*
X44621Y-58782D01*
X44832Y-58782D02*
X52461Y-58782D01*
X53250Y-58782D02*
X55414Y-58782D01*
X56203Y-58782D02*
X61930Y-58782D01*
X34527Y-58862D02*
X35333Y-58862D01*
X37107Y-58862D02*
X41720Y-58862D01*
X42925Y-58862D02*
X43764Y-58862D01*
X43883Y-58862D02*
X44701Y-58862D01*
X44819Y-58862D02*
X52610Y-58862D01*
X53101Y-58862D02*
X55563Y-58862D01*
X56054Y-58862D02*
X61930Y-58862D01*
X34527Y-58942D02*
X35333Y-58942D01*
X37107Y-58942D02*
X41752Y-58942D01*
X42893Y-58942D02*
X44219Y-58942D01*
X44365Y-58942D02*
X61930Y-58942D01*
X34527Y-59022D02*
X35357Y-59022D01*
X37082Y-59022D02*
X41805Y-59022D01*
X42840Y-59022D02*
X44139Y-59022D01*
X44445Y-59022D02*
X61930Y-59022D01*
X34527Y-59102D02*
X35390Y-59102D01*
X37049Y-59102D02*
X41858Y-59102D01*
X42787Y-59102D02*
X44059Y-59102D01*
X44525Y-59102D02*
X61930Y-59102D01*
X34527Y-59182D02*
X35436Y-59182D01*
X37003Y-59182D02*
X41967Y-59182D01*
X42678Y-59182D02*
X44087Y-59182D01*
X44496Y-59182D02*
X61930Y-59182D01*
X34527Y-59262D02*
X35516Y-59262D01*
X36923Y-59262D02*
X42112Y-59262D01*
X42533Y-59262D02*
X61930Y-59262D01*
X34527Y-59342D02*
X35641Y-59342D01*
X36799Y-59342D02*
X61930Y-59342D01*
X34527Y-59422D02*
X61930Y-59422D01*
X34527Y-59502D02*
X61930Y-59502D01*
X34527Y-59582D02*
X61930Y-59582D01*
X34527Y-59662D02*
X39564Y-59662D01*
X39967Y-59662D02*
X60331Y-59662D01*
X60734Y-59662D02*
X61930Y-59662D01*
X34527Y-59742D02*
X39370Y-59742D01*
X40159Y-59742D02*
X60137Y-59742D01*
X60925Y-59742D02*
X61930Y-59742D01*
X34527Y-59822D02*
X39229Y-59822D01*
X40299Y-59822D02*
X59996Y-59822D01*
X61066Y-59822D02*
X61930Y-59822D01*
X34527Y-59902D02*
X39149Y-59902D01*
X40379Y-59902D02*
X59916Y-59902D01*
X61146Y-59902D02*
X61930Y-59902D01*
X34527Y-59982D02*
X39069Y-59982D01*
X40459Y-59982D02*
X59836Y-59982D01*
X61226Y-59982D02*
X61930Y-59982D01*
X34527Y-60062D02*
X39007Y-60062D01*
X40522Y-60062D02*
X59774Y-60062D01*
X61289Y-60062D02*
X61930Y-60062D01*
X34527Y-60142D02*
X38974Y-60142D01*
X40556Y-60142D02*
X59740Y-60142D01*
X61323Y-60142D02*
X61930Y-60142D01*
X34527Y-60222D02*
X38940Y-60222D01*
X40589Y-60222D02*
X59707Y-60222D01*
X61356Y-60222D02*
X61930Y-60222D01*
X34527Y-60302D02*
X35774Y-60302D01*
X36073Y-60302D02*
X36367Y-60302D01*
X36664Y-60302D02*
X38907Y-60302D01*
X40622Y-60302D02*
X59674Y-60302D01*
X61389Y-60302D02*
X61930Y-60302D01*
X34527Y-60382D02*
X35587Y-60382D01*
X36073Y-60382D02*
X36367Y-60382D01*
X36854Y-60382D02*
X38884Y-60382D01*
X40644Y-60382D02*
X59651Y-60382D01*
X61411Y-60382D02*
X61930Y-60382D01*
X34527Y-60462D02*
X35481Y-60462D01*
X36073Y-60462D02*
X36367Y-60462D01*
X36960Y-60462D02*
X38884Y-60462D01*
X40644Y-60462D02*
X59651Y-60462D01*
X61411Y-60462D02*
X61930Y-60462D01*
X34527Y-60542D02*
X35428Y-60542D01*
X36073Y-60542D02*
X36367Y-60542D01*
X37013Y-60542D02*
X38884Y-60542D01*
X40644Y-60542D02*
X59651Y-60542D01*
X61411Y-60542D02*
X61930Y-60542D01*
X34527Y-60622D02*
X35400Y-60622D01*
X36073Y-60622D02*
X36367Y-60622D01*
X37039Y-60622D02*
X38884Y-60622D01*
X40644Y-60622D02*
X59651Y-60622D01*
X61411Y-60622D02*
X61930Y-60622D01*
X34527Y-60702D02*
X38884Y-60702D01*
X40644Y-60702D02*
X59651Y-60702D01*
X61411Y-60702D02*
X61930Y-60702D01*
X34527Y-60782D02*
X38915Y-60782D01*
X40612Y-60782D02*
X59682Y-60782D01*
X61379Y-60782D02*
X61930Y-60782D01*
X34527Y-60862D02*
X38948Y-60862D01*
X40579Y-60862D02*
X59715Y-60862D01*
X61346Y-60862D02*
X61930Y-60862D01*
X34527Y-60942D02*
X38982Y-60942D01*
X40545Y-60942D02*
X59749Y-60942D01*
X61312Y-60942D02*
X61930Y-60942D01*
X34527Y-61022D02*
X35404Y-61022D01*
X36073Y-61022D02*
X36367Y-61022D01*
X37037Y-61022D02*
X39015Y-61022D01*
X40512Y-61022D02*
X59782Y-61022D01*
X61279Y-61022D02*
X61930Y-61022D01*
X34527Y-61102D02*
X35422Y-61102D01*
X36073Y-61102D02*
X36367Y-61102D01*
X37017Y-61102D02*
X39091Y-61102D01*
X40437Y-61102D02*
X59858Y-61102D01*
X61204Y-61102D02*
X61930Y-61102D01*
X34527Y-61182D02*
X35475Y-61182D01*
X36073Y-61182D02*
X36367Y-61182D01*
X36964Y-61182D02*
X39171Y-61182D01*
X40357Y-61182D02*
X59938Y-61182D01*
X61124Y-61182D02*
X61930Y-61182D01*
X34527Y-61262D02*
X35574Y-61262D01*
X36073Y-61262D02*
X36367Y-61262D01*
X36865Y-61262D02*
X39251Y-61262D01*
X40277Y-61262D02*
X60018Y-61262D01*
X61044Y-61262D02*
X61930Y-61262D01*
X34527Y-61342D02*
X35743Y-61342D01*
X36073Y-61342D02*
X36367Y-61342D01*
X36697Y-61342D02*
X39422Y-61342D01*
X40104Y-61342D02*
X60189Y-61342D01*
X60871Y-61342D02*
X61930Y-61342D01*
X34527Y-61422D02*
X61930Y-61422D01*
X34527Y-61502D02*
X61930Y-61502D01*
X34527Y-61582D02*
X61930Y-61582D01*
X34527Y-61662D02*
X61930Y-61662D01*
X34527Y-61742D02*
X61930Y-61742D01*
X34527Y-61822D02*
X61930Y-61822D01*
X34527Y-61902D02*
X61930Y-61902D01*
X61930Y-61930D02*
X61930Y-43582D01*
X34527Y-43582D01*
X34527Y-61930D01*
X35865Y-61930D01*
X35865Y-61371D01*
X35761Y-61346D01*
X35658Y-61322D01*
X35485Y-61197D01*
X35390Y-61053D01*
X35425Y-60973D01*
X35761Y-60973D01*
X35761Y-60679D01*
X35425Y-60679D01*
X35390Y-60599D01*
X35485Y-60455D01*
X35658Y-60330D01*
X35761Y-60305D01*
X35761Y-59392D01*
X35565Y-59310D01*
X35414Y-59160D01*
X35333Y-58963D01*
X35333Y-58750D01*
X35415Y-58554D01*
X35565Y-58403D01*
X35761Y-58322D01*
X35865Y-58322D01*
X35865Y-57041D01*
X35761Y-57016D01*
X35658Y-56992D01*
X35485Y-56867D01*
X35390Y-56723D01*
X35425Y-56643D01*
X35761Y-56643D01*
X35761Y-56349D01*
X35425Y-56349D01*
X35390Y-56269D01*
X35485Y-56125D01*
X35658Y-56000D01*
X35761Y-55975D01*
X35761Y-55062D01*
X35565Y-54980D01*
X35414Y-54830D01*
X35333Y-54633D01*
X35333Y-54420D01*
X35415Y-54224D01*
X35565Y-54073D01*
X35762Y-53992D01*
X36076Y-53992D01*
X36076Y-52690D01*
X35811Y-52580D01*
X35608Y-52376D01*
X35498Y-52111D01*
X35498Y-51824D01*
X35608Y-51559D01*
X35812Y-51356D01*
X36076Y-51246D01*
X36076Y-50721D01*
X35811Y-50611D01*
X35608Y-50407D01*
X35498Y-50142D01*
X35498Y-49855D01*
X35608Y-49590D01*
X35812Y-49387D01*
X36076Y-49277D01*
X36076Y-48753D01*
X35811Y-48643D01*
X35608Y-48439D01*
X35498Y-48174D01*
X35498Y-47887D01*
X35608Y-47622D01*
X35661Y-47569D01*
X35661Y-46413D01*
X35562Y-46358D01*
X35546Y-46317D01*
X35499Y-46040D01*
X35562Y-45766D01*
X35661Y-45711D01*
X36012Y-46062D01*
X35661Y-46413D01*
X35661Y-47569D01*
X35812Y-47419D01*
X36077Y-47309D01*
X36198Y-47309D01*
X36198Y-46783D01*
X35924Y-46720D01*
X35869Y-46621D01*
X36220Y-46270D01*
X36220Y-45854D01*
X35869Y-45503D01*
X35924Y-45404D01*
X35965Y-45388D01*
X36242Y-45341D01*
X36516Y-45404D01*
X36571Y-45503D01*
X36220Y-45854D01*
X36220Y-46270D01*
X36571Y-46621D01*
X36516Y-46720D01*
X36475Y-46736D01*
X36198Y-46783D01*
X36198Y-47309D01*
X36364Y-47309D01*
X36629Y-47419D01*
X36779Y-47569D01*
X36779Y-46413D01*
X36428Y-46062D01*
X36779Y-45711D01*
X36878Y-45766D01*
X36894Y-45807D01*
X36941Y-46084D01*
X36878Y-46358D01*
X36779Y-46413D01*
X36779Y-47569D01*
X36832Y-47623D01*
X36942Y-47888D01*
X36942Y-48175D01*
X36832Y-48440D01*
X36628Y-48643D01*
X36363Y-48753D01*
X36076Y-48753D01*
X36076Y-49277D01*
X36364Y-49277D01*
X36629Y-49387D01*
X36832Y-49591D01*
X36942Y-49856D01*
X36942Y-50143D01*
X36832Y-50408D01*
X36628Y-50611D01*
X36363Y-50721D01*
X36076Y-50721D01*
X36076Y-51246D01*
X36364Y-51246D01*
X36629Y-51356D01*
X36832Y-51560D01*
X36942Y-51825D01*
X36942Y-52112D01*
X36832Y-52377D01*
X36628Y-52580D01*
X36363Y-52690D01*
X36076Y-52690D01*
X36076Y-53992D01*
X36679Y-53992D01*
X36875Y-54074D01*
X37026Y-54224D01*
X37107Y-54421D01*
X37107Y-54634D01*
X37025Y-54830D01*
X36875Y-54981D01*
X36678Y-55062D01*
X35761Y-55062D01*
X35761Y-55975D01*
X35865Y-55951D01*
X36073Y-55951D01*
X36073Y-56349D01*
X35761Y-56349D01*
X35761Y-56643D01*
X36073Y-56643D01*
X36073Y-57041D01*
X35865Y-57041D01*
X35865Y-58322D01*
X36367Y-58322D01*
X36367Y-57041D01*
X36367Y-56643D01*
X36367Y-56349D01*
X36367Y-55951D01*
X36575Y-55951D01*
X36782Y-56000D01*
X36955Y-56125D01*
X37050Y-56269D01*
X37015Y-56349D01*
X36367Y-56349D01*
X36367Y-56643D01*
X37015Y-56643D01*
X37050Y-56723D01*
X36955Y-56867D01*
X36782Y-56992D01*
X36575Y-57041D01*
X36367Y-57041D01*
X36367Y-58322D01*
X36679Y-58322D01*
X36875Y-58404D01*
X37026Y-58554D01*
X37107Y-58751D01*
X37107Y-58964D01*
X37025Y-59160D01*
X36875Y-59311D01*
X36678Y-59392D01*
X35761Y-59392D01*
X35761Y-60305D01*
X35865Y-60281D01*
X36073Y-60281D01*
X36073Y-60679D01*
X35761Y-60679D01*
X35761Y-60973D01*
X36073Y-60973D01*
X36073Y-61371D01*
X35865Y-61371D01*
X35865Y-61930D01*
X36367Y-61930D01*
X36367Y-61371D01*
X36367Y-60973D01*
X36367Y-60679D01*
X36367Y-60281D01*
X36575Y-60281D01*
X36782Y-60330D01*
X36955Y-60455D01*
X37050Y-60599D01*
X37015Y-60679D01*
X36367Y-60679D01*
X36367Y-60973D01*
X37015Y-60973D01*
X37050Y-61053D01*
X36955Y-61197D01*
X36782Y-61322D01*
X36575Y-61371D01*
X36367Y-61371D01*
X36367Y-61930D01*
X39588Y-61930D01*
X39588Y-61411D01*
X39265Y-61276D01*
X39018Y-61029D01*
X38884Y-60705D01*
X38884Y-60355D01*
X39019Y-60032D01*
X39092Y-59959D01*
X39092Y-51882D01*
X38942Y-51820D01*
X38829Y-51705D01*
X38767Y-51556D01*
X38767Y-51478D01*
X38678Y-51390D01*
X38600Y-51390D01*
X38450Y-51328D01*
X38337Y-51213D01*
X38275Y-51064D01*
X38275Y-50903D01*
X38337Y-50753D01*
X38452Y-50640D01*
X38601Y-50578D01*
X38762Y-50578D01*
X38776Y-50583D01*
X38776Y-50099D01*
X38686Y-50057D01*
X38639Y-49820D01*
X38686Y-49581D01*
X38776Y-49539D01*
X39056Y-49819D01*
X38776Y-50099D01*
X38776Y-50583D01*
X38912Y-50640D01*
X39025Y-50755D01*
X39087Y-50904D01*
X39087Y-50981D01*
X39175Y-51070D01*
X39254Y-51070D01*
X39265Y-51074D01*
X39265Y-50444D01*
X39026Y-50397D01*
X38984Y-50307D01*
X39264Y-50027D01*
X39544Y-50307D01*
X39502Y-50397D01*
X39265Y-50444D01*
X39265Y-51074D01*
X39404Y-51132D01*
X39517Y-51247D01*
X39579Y-51396D01*
X39579Y-51557D01*
X39517Y-51707D01*
X39402Y-51820D01*
X39253Y-51882D01*
X39092Y-51882D01*
X39092Y-59959D01*
X39266Y-59785D01*
X39590Y-59651D01*
X39940Y-59651D01*
X40139Y-59734D01*
X40139Y-50444D01*
X39910Y-50349D01*
X39734Y-50173D01*
X39669Y-50016D01*
X39472Y-49819D01*
X39668Y-49622D01*
X39734Y-49465D01*
X39880Y-49319D01*
X39764Y-49202D01*
X39618Y-49349D01*
X39461Y-49413D01*
X39264Y-49611D01*
X39067Y-49414D01*
X38910Y-49349D01*
X38734Y-49173D01*
X38639Y-48943D01*
X38639Y-48694D01*
X38734Y-48465D01*
X38879Y-48318D01*
X38734Y-48173D01*
X38639Y-47943D01*
X38639Y-47694D01*
X38734Y-47465D01*
X38910Y-47289D01*
X39140Y-47194D01*
X39389Y-47194D01*
X39588Y-47276D01*
X39588Y-45959D01*
X39265Y-45824D01*
X39018Y-45577D01*
X38884Y-45253D01*
X38884Y-44903D01*
X39019Y-44580D01*
X39266Y-44333D01*
X39590Y-44199D01*
X39940Y-44199D01*
X40263Y-44334D01*
X40510Y-44581D01*
X40644Y-44905D01*
X40644Y-45255D01*
X40509Y-45578D01*
X40262Y-45825D01*
X39938Y-45959D01*
X39588Y-45959D01*
X39588Y-47276D01*
X39618Y-47289D01*
X39664Y-47335D01*
X39678Y-47303D01*
X39748Y-47233D01*
X39840Y-47195D01*
X40689Y-47195D01*
X40780Y-47233D01*
X40850Y-47303D01*
X40888Y-47395D01*
X40888Y-48244D01*
X40850Y-48335D01*
X40780Y-48405D01*
X40747Y-48418D01*
X40794Y-48465D01*
X40889Y-48695D01*
X40889Y-48944D01*
X40794Y-49173D01*
X40647Y-49318D01*
X40794Y-49465D01*
X40889Y-49695D01*
X40889Y-49944D01*
X40794Y-50173D01*
X40618Y-50349D01*
X40388Y-50444D01*
X40139Y-50444D01*
X40139Y-59734D01*
X40263Y-59786D01*
X40510Y-60033D01*
X40644Y-60357D01*
X40644Y-60707D01*
X40509Y-61030D01*
X40262Y-61277D01*
X39938Y-61411D01*
X39588Y-61411D01*
X39588Y-61930D01*
X42323Y-61930D01*
X42323Y-59304D01*
X42077Y-59255D01*
X41868Y-59116D01*
X41729Y-58907D01*
X41680Y-58661D01*
X41680Y-50000D01*
X41729Y-49754D01*
X41868Y-49545D01*
X42077Y-49406D01*
X42323Y-49357D01*
X42569Y-49406D01*
X42778Y-49545D01*
X42917Y-49754D01*
X42966Y-50000D01*
X42966Y-58661D01*
X42917Y-58907D01*
X42778Y-59116D01*
X42569Y-59255D01*
X42323Y-59304D01*
X42323Y-61930D01*
X43848Y-61930D01*
X43848Y-58897D01*
X43765Y-58863D01*
X43734Y-58707D01*
X43728Y-58677D01*
X43734Y-58641D01*
X43765Y-58459D01*
X43848Y-58425D01*
X43848Y-50236D01*
X43765Y-50202D01*
X43734Y-50046D01*
X43728Y-50016D01*
X43734Y-49980D01*
X43734Y-49541D01*
X43651Y-49506D01*
X43569Y-49541D01*
X43439Y-49541D01*
X43318Y-49491D01*
X43226Y-49399D01*
X43176Y-49278D01*
X43176Y-49148D01*
X43215Y-49053D01*
X43215Y-47698D01*
X43176Y-47604D01*
X43176Y-47474D01*
X43226Y-47353D01*
X43318Y-47261D01*
X43439Y-47211D01*
X43569Y-47211D01*
X43651Y-47245D01*
X43734Y-47211D01*
X43864Y-47211D01*
X43985Y-47261D01*
X44077Y-47353D01*
X44127Y-47474D01*
X44127Y-47604D01*
X44088Y-47698D01*
X44088Y-49053D01*
X44127Y-49148D01*
X44127Y-49278D01*
X44077Y-49399D01*
X43985Y-49491D01*
X43864Y-49541D01*
X43734Y-49541D01*
X43734Y-49980D01*
X43765Y-49798D01*
X43848Y-49764D01*
X44084Y-50000D01*
X43848Y-50236D01*
X43848Y-58425D01*
X44084Y-58661D01*
X43848Y-58897D01*
X43848Y-61930D01*
X44308Y-61930D01*
X44308Y-59225D01*
X44090Y-59188D01*
X44056Y-59105D01*
X44292Y-58869D01*
X44292Y-58453D01*
X44056Y-58217D01*
X44090Y-58134D01*
X44276Y-58097D01*
X44308Y-58102D01*
X44308Y-50564D01*
X44090Y-50527D01*
X44056Y-50444D01*
X44292Y-50208D01*
X44292Y-49792D01*
X44056Y-49556D01*
X44090Y-49473D01*
X44276Y-49436D01*
X44494Y-49473D01*
X44528Y-49556D01*
X44292Y-49792D01*
X44292Y-50208D01*
X44528Y-50444D01*
X44494Y-50527D01*
X44308Y-50564D01*
X44308Y-58102D01*
X44494Y-58134D01*
X44528Y-58217D01*
X44292Y-58453D01*
X44292Y-58869D01*
X44528Y-59105D01*
X44494Y-59188D01*
X44308Y-59225D01*
X44308Y-61930D01*
X44736Y-61930D01*
X44736Y-58897D01*
X44500Y-58661D01*
X44736Y-58425D01*
X44736Y-50236D01*
X44500Y-50000D01*
X44736Y-49764D01*
X44819Y-49798D01*
X44856Y-49984D01*
X44819Y-50202D01*
X44736Y-50236D01*
X44736Y-58425D01*
X44819Y-58459D01*
X44856Y-58645D01*
X44819Y-58863D01*
X44736Y-58897D01*
X44736Y-61930D01*
X45211Y-61930D01*
X45211Y-49541D01*
X45127Y-49506D01*
X45045Y-49541D01*
X44915Y-49541D01*
X44794Y-49491D01*
X44702Y-49399D01*
X44652Y-49278D01*
X44652Y-49148D01*
X44691Y-49053D01*
X44691Y-47698D01*
X44652Y-47604D01*
X44652Y-47474D01*
X44702Y-47353D01*
X44794Y-47261D01*
X44915Y-47211D01*
X45045Y-47211D01*
X45127Y-47245D01*
X45211Y-47211D01*
X45341Y-47211D01*
X45462Y-47261D01*
X45554Y-47353D01*
X45604Y-47474D01*
X45604Y-47604D01*
X45565Y-47698D01*
X45565Y-49053D01*
X45604Y-49148D01*
X45604Y-49278D01*
X45554Y-49399D01*
X45462Y-49491D01*
X45341Y-49541D01*
X45211Y-49541D01*
X45211Y-61930D01*
X45680Y-61930D01*
X45680Y-52209D01*
X45520Y-52142D01*
X45397Y-52019D01*
X45331Y-51858D01*
X45331Y-51684D01*
X45398Y-51524D01*
X45521Y-51401D01*
X45682Y-51335D01*
X45856Y-51335D01*
X46016Y-51402D01*
X46093Y-51479D01*
X46179Y-51393D01*
X46184Y-51373D01*
X46201Y-51365D01*
X46369Y-51336D01*
X46534Y-51373D01*
X46550Y-51450D01*
X46359Y-51640D01*
X46320Y-51602D01*
X46205Y-51718D01*
X46205Y-51749D01*
X46227Y-51772D01*
X46205Y-51794D01*
X46205Y-51826D01*
X46320Y-51941D01*
X46359Y-51904D01*
X46550Y-52094D01*
X46534Y-52171D01*
X46517Y-52179D01*
X46349Y-52208D01*
X46184Y-52171D01*
X46179Y-52150D01*
X46093Y-52064D01*
X46015Y-52143D01*
X45854Y-52209D01*
X45680Y-52209D01*
X45680Y-61930D01*
X46349Y-61930D01*
X46949Y-61930D01*
X46949Y-54876D01*
X46943Y-54875D01*
X46860Y-54875D01*
X46782Y-54842D01*
X46778Y-54842D01*
X46774Y-54839D01*
X46696Y-54807D01*
X46637Y-54747D01*
X46633Y-54745D01*
X46629Y-54740D01*
X46571Y-54681D01*
X46539Y-54605D01*
X46536Y-54600D01*
X46534Y-54593D01*
X46503Y-54517D01*
X46503Y-54434D01*
X46502Y-54429D01*
X46502Y-53051D01*
X46503Y-53045D01*
X46503Y-52962D01*
X46535Y-52884D01*
X46536Y-52880D01*
X46538Y-52876D01*
X46571Y-52798D01*
X46630Y-52739D01*
X46633Y-52735D01*
X46637Y-52731D01*
X46681Y-52688D01*
X46681Y-51963D01*
X46491Y-51772D01*
X46681Y-51581D01*
X46758Y-51597D01*
X46766Y-51614D01*
X46795Y-51782D01*
X46758Y-51947D01*
X46681Y-51963D01*
X46681Y-52688D01*
X46697Y-52673D01*
X46772Y-52641D01*
X46778Y-52638D01*
X46784Y-52636D01*
X46861Y-52605D01*
X46939Y-52605D01*
X46939Y-47737D01*
X46743Y-47655D01*
X46592Y-47505D01*
X46511Y-47308D01*
X46511Y-46391D01*
X46593Y-46195D01*
X46743Y-46044D01*
X46940Y-45963D01*
X47153Y-45963D01*
X47349Y-46045D01*
X47500Y-46195D01*
X47581Y-46392D01*
X47581Y-47309D01*
X47499Y-47505D01*
X47349Y-47656D01*
X47152Y-47737D01*
X46939Y-47737D01*
X46939Y-52605D01*
X46943Y-52605D01*
X46949Y-52604D01*
X46954Y-52605D01*
X47038Y-52605D01*
X47115Y-52637D01*
X47120Y-52638D01*
X47123Y-52640D01*
X47202Y-52673D01*
X47260Y-52732D01*
X47265Y-52735D01*
X47268Y-52739D01*
X47327Y-52799D01*
X47358Y-52874D01*
X47362Y-52880D01*
X47363Y-52886D01*
X47395Y-52963D01*
X47395Y-53045D01*
X47396Y-53051D01*
X47396Y-54429D01*
X47395Y-54434D01*
X47395Y-54518D01*
X47362Y-54595D01*
X47362Y-54600D01*
X47359Y-54603D01*
X47327Y-54682D01*
X47267Y-54740D01*
X47265Y-54745D01*
X47260Y-54748D01*
X47201Y-54807D01*
X47125Y-54838D01*
X47120Y-54842D01*
X47113Y-54843D01*
X47037Y-54875D01*
X46954Y-54875D01*
X46949Y-54876D01*
X46949Y-61930D01*
X48788Y-61930D01*
X48788Y-47680D01*
X48644Y-47585D01*
X48519Y-47412D01*
X48470Y-47205D01*
X48470Y-46997D01*
X48470Y-46703D01*
X48470Y-46495D01*
X48519Y-46288D01*
X48644Y-46115D01*
X48788Y-46020D01*
X48868Y-46055D01*
X48868Y-46703D01*
X48470Y-46703D01*
X48470Y-46997D01*
X48868Y-46997D01*
X48868Y-47645D01*
X48788Y-47680D01*
X48788Y-61930D01*
X49242Y-61930D01*
X49242Y-47680D01*
X49162Y-47645D01*
X49162Y-46997D01*
X49162Y-46703D01*
X49162Y-46055D01*
X49242Y-46020D01*
X49386Y-46115D01*
X49511Y-46288D01*
X49560Y-46495D01*
X49560Y-46703D01*
X49162Y-46703D01*
X49162Y-46997D01*
X49560Y-46997D01*
X49560Y-47205D01*
X49511Y-47412D01*
X49386Y-47585D01*
X49242Y-47680D01*
X49242Y-61930D01*
X52727Y-61930D01*
X52727Y-58911D01*
X52491Y-58812D01*
X52311Y-58631D01*
X52213Y-58395D01*
X52213Y-58139D01*
X52312Y-57903D01*
X52493Y-57723D01*
X52727Y-57625D01*
X52727Y-51037D01*
X52491Y-50938D01*
X52311Y-50757D01*
X52213Y-50521D01*
X52213Y-50265D01*
X52312Y-50029D01*
X52493Y-49849D01*
X52729Y-49751D01*
X52985Y-49751D01*
X53221Y-49850D01*
X53401Y-50031D01*
X53499Y-50267D01*
X53499Y-50523D01*
X53400Y-50759D01*
X53219Y-50939D01*
X52983Y-51037D01*
X52727Y-51037D01*
X52727Y-57625D01*
X52985Y-57625D01*
X53221Y-57724D01*
X53401Y-57905D01*
X53499Y-58141D01*
X53499Y-58397D01*
X53400Y-58633D01*
X53219Y-58813D01*
X52983Y-58911D01*
X52727Y-58911D01*
X52727Y-61930D01*
X55680Y-61930D01*
X55680Y-58911D01*
X55444Y-58812D01*
X55264Y-58631D01*
X55166Y-58395D01*
X55166Y-58139D01*
X55265Y-57903D01*
X55446Y-57723D01*
X55680Y-57625D01*
X55680Y-51037D01*
X55444Y-50938D01*
X55264Y-50757D01*
X55166Y-50521D01*
X55166Y-50265D01*
X55265Y-50029D01*
X55446Y-49849D01*
X55682Y-49751D01*
X55938Y-49751D01*
X56174Y-49850D01*
X56354Y-50031D01*
X56452Y-50267D01*
X56452Y-50523D01*
X56353Y-50759D01*
X56172Y-50939D01*
X55936Y-51037D01*
X55680Y-51037D01*
X55680Y-57625D01*
X55938Y-57625D01*
X56174Y-57724D01*
X56354Y-57905D01*
X56452Y-58141D01*
X56452Y-58397D01*
X56353Y-58633D01*
X56172Y-58813D01*
X55936Y-58911D01*
X55680Y-58911D01*
X55680Y-61930D01*
X60355Y-61930D01*
X60355Y-61411D01*
X60032Y-61276D01*
X59785Y-61029D01*
X59651Y-60705D01*
X59651Y-60355D01*
X59777Y-60053D01*
X59786Y-60032D01*
X59881Y-59937D01*
X59881Y-58222D01*
X59777Y-58197D01*
X59674Y-58173D01*
X59501Y-58048D01*
X59406Y-57904D01*
X59441Y-57824D01*
X59777Y-57824D01*
X59777Y-57530D01*
X59441Y-57530D01*
X59406Y-57450D01*
X59501Y-57306D01*
X59674Y-57181D01*
X59777Y-57156D01*
X59777Y-56243D01*
X59581Y-56161D01*
X59430Y-56011D01*
X59349Y-55814D01*
X59349Y-55601D01*
X59431Y-55405D01*
X59581Y-55254D01*
X59777Y-55173D01*
X59881Y-55173D01*
X59881Y-53497D01*
X59777Y-53472D01*
X59674Y-53448D01*
X59501Y-53323D01*
X59406Y-53179D01*
X59441Y-53099D01*
X59777Y-53099D01*
X59777Y-52805D01*
X59441Y-52805D01*
X59406Y-52725D01*
X59501Y-52581D01*
X59674Y-52456D01*
X59777Y-52431D01*
X59777Y-51518D01*
X59581Y-51436D01*
X59430Y-51286D01*
X59349Y-51089D01*
X59349Y-50876D01*
X59431Y-50680D01*
X59581Y-50529D01*
X59778Y-50448D01*
X60355Y-50448D01*
X60355Y-45860D01*
X60032Y-45725D01*
X59785Y-45478D01*
X59651Y-45154D01*
X59651Y-44804D01*
X59786Y-44481D01*
X60033Y-44234D01*
X60357Y-44100D01*
X60707Y-44100D01*
X61030Y-44235D01*
X61277Y-44482D01*
X61411Y-44806D01*
X61411Y-45156D01*
X61276Y-45479D01*
X61029Y-45726D01*
X60705Y-45860D01*
X60355Y-45860D01*
X60355Y-50448D01*
X60695Y-50448D01*
X60891Y-50530D01*
X61042Y-50680D01*
X61123Y-50877D01*
X61123Y-51090D01*
X61041Y-51286D01*
X60891Y-51437D01*
X60694Y-51518D01*
X59777Y-51518D01*
X59777Y-52431D01*
X59881Y-52407D01*
X60089Y-52407D01*
X60089Y-52805D01*
X59777Y-52805D01*
X59777Y-53099D01*
X60089Y-53099D01*
X60089Y-53497D01*
X59881Y-53497D01*
X59881Y-55173D01*
X60383Y-55173D01*
X60383Y-53497D01*
X60383Y-53099D01*
X60383Y-52805D01*
X60383Y-52407D01*
X60591Y-52407D01*
X60798Y-52456D01*
X60971Y-52581D01*
X61066Y-52725D01*
X61031Y-52805D01*
X60383Y-52805D01*
X60383Y-53099D01*
X61031Y-53099D01*
X61066Y-53179D01*
X60971Y-53323D01*
X60798Y-53448D01*
X60591Y-53497D01*
X60383Y-53497D01*
X60383Y-55173D01*
X60695Y-55173D01*
X60891Y-55255D01*
X61042Y-55405D01*
X61123Y-55602D01*
X61123Y-55815D01*
X61041Y-56011D01*
X60891Y-56162D01*
X60694Y-56243D01*
X59777Y-56243D01*
X59777Y-57156D01*
X59881Y-57132D01*
X60089Y-57132D01*
X60089Y-57530D01*
X59777Y-57530D01*
X59777Y-57824D01*
X60089Y-57824D01*
X60089Y-58222D01*
X59881Y-58222D01*
X59881Y-59937D01*
X60033Y-59785D01*
X60357Y-59651D01*
X60383Y-59651D01*
X60383Y-58222D01*
X60383Y-57824D01*
X60383Y-57530D01*
X60383Y-57132D01*
X60591Y-57132D01*
X60798Y-57181D01*
X60971Y-57306D01*
X61066Y-57450D01*
X61031Y-57530D01*
X60383Y-57530D01*
X60383Y-57824D01*
X61031Y-57824D01*
X61066Y-57904D01*
X60971Y-58048D01*
X60798Y-58173D01*
X60591Y-58222D01*
X60383Y-58222D01*
X60383Y-59651D01*
X60707Y-59651D01*
X61030Y-59786D01*
X61277Y-60033D01*
X61411Y-60357D01*
X61411Y-60707D01*
X61276Y-61030D01*
X61029Y-61277D01*
X60705Y-61411D01*
X60355Y-61411D01*
X60355Y-61930D01*
X61930Y-61930D01*
M02*
