G04 (created by PCBNEW-RS274X (2010-03-14)-final) date Thu 12 Jan 2012 21:53:35 GMT*
G01*
G70*
G90*
%MOIN*%
G04 Gerber Fmt 3.4, Leading zero omitted, Abs format*
%FSLAX34Y34*%
G04 APERTURE LIST*
%ADD10C,0.006000*%
%ADD11R,0.039400X0.011800*%
%ADD12R,0.094500X0.196900*%
%ADD13R,0.075000X0.075000*%
%ADD14C,0.075000*%
%ADD15C,0.037400*%
%ADD16C,0.063000*%
%ADD17C,0.078700*%
%ADD18O,0.126000X0.059100*%
%ADD19O,0.059100X0.126000*%
%ADD20C,0.094500*%
%ADD21R,0.055100X0.055100*%
%ADD22R,0.047200X0.076000*%
%ADD23R,0.019700X0.055100*%
%ADD24C,0.126000*%
%ADD25C,0.039400*%
%ADD26C,0.015700*%
%ADD27C,0.031500*%
%ADD28C,0.035000*%
%ADD29C,0.015700*%
%ADD30C,0.007900*%
%ADD31C,0.039400*%
%ADD32C,0.078700*%
%ADD33C,0.019700*%
%ADD34C,0.011800*%
%ADD35C,0.118100*%
G04 APERTURE END LIST*
G54D10*
G54D11*
X43808Y-52925D03*
X43808Y-53181D03*
X43808Y-53437D03*
X43808Y-53693D03*
X43808Y-53949D03*
X43808Y-54205D03*
X43808Y-54460D03*
X43808Y-54716D03*
X43808Y-54972D03*
X43808Y-55228D03*
X43808Y-55484D03*
X43808Y-55740D03*
X45934Y-55740D03*
X45934Y-55484D03*
X45934Y-55228D03*
X45934Y-54972D03*
X45934Y-54716D03*
X45934Y-54460D03*
X45934Y-54205D03*
X45934Y-53949D03*
X45934Y-53693D03*
X45934Y-53437D03*
X45934Y-53181D03*
X45934Y-52925D03*
G54D12*
X44882Y-54331D03*
G54D13*
X40264Y-47819D03*
G54D14*
X40264Y-48819D03*
X40264Y-49819D03*
X39264Y-47819D03*
X39264Y-48819D03*
X39264Y-49819D03*
G54D15*
X45768Y-51772D03*
X46359Y-51772D03*
G54D16*
X42323Y-58661D03*
X44292Y-58661D03*
X42323Y-50000D03*
X44292Y-50000D03*
G54D17*
X52856Y-58268D03*
X55809Y-58268D03*
X52856Y-50394D03*
X55809Y-50394D03*
G54D18*
X60236Y-55708D03*
X60236Y-57677D03*
X36220Y-58857D03*
X36220Y-60826D03*
X36220Y-54527D03*
X36220Y-56496D03*
X60236Y-50983D03*
X60236Y-52952D03*
G54D19*
X47046Y-46850D03*
X49015Y-46850D03*
G54D20*
X36220Y-51968D03*
X36220Y-49999D03*
X36220Y-48031D03*
X36220Y-46062D03*
G54D21*
X47519Y-54331D03*
X48543Y-54331D03*
X41457Y-56299D03*
X40433Y-56299D03*
X41457Y-52362D03*
X40433Y-52362D03*
X49606Y-56811D03*
X49606Y-55787D03*
X40433Y-55512D03*
X41457Y-55512D03*
X40433Y-54724D03*
X41457Y-54724D03*
X48543Y-55512D03*
X47519Y-55512D03*
X41457Y-53937D03*
X40433Y-53937D03*
X48543Y-53150D03*
X47519Y-53150D03*
X41457Y-53150D03*
X40433Y-53150D03*
X49606Y-51850D03*
X49606Y-52874D03*
X45276Y-46181D03*
X45276Y-45157D03*
G54D22*
X48582Y-56693D03*
X47480Y-56693D03*
X48582Y-51968D03*
X47480Y-51968D03*
G54D23*
X44413Y-44769D03*
X43913Y-44769D03*
X43413Y-44769D03*
X42913Y-44769D03*
X42413Y-44769D03*
X41913Y-44769D03*
X41413Y-44769D03*
X41413Y-46569D03*
X41913Y-46569D03*
X42413Y-46569D03*
X42913Y-46569D03*
X43413Y-46569D03*
X43913Y-46569D03*
X44413Y-46569D03*
G54D24*
X60531Y-44980D03*
X60531Y-60531D03*
X39764Y-60531D03*
X39764Y-45079D03*
G54D25*
X45866Y-46161D03*
X49606Y-55197D03*
X49606Y-53464D03*
X49134Y-54331D03*
G54D26*
X45079Y-53150D03*
X45079Y-52756D03*
X44685Y-53150D03*
X44685Y-52756D03*
X45079Y-55512D03*
X45079Y-55905D03*
X44685Y-55512D03*
X44685Y-55905D03*
X45177Y-55118D03*
X44882Y-55118D03*
X44587Y-55118D03*
X45177Y-54331D03*
X44882Y-54331D03*
X44587Y-54331D03*
X45177Y-53543D03*
X44882Y-53543D03*
X44587Y-53543D03*
G54D27*
X44882Y-52953D03*
X44882Y-55709D03*
X46457Y-53051D03*
X46457Y-55610D03*
X43307Y-54823D03*
G54D28*
X39764Y-52362D03*
X39764Y-56299D03*
X39764Y-55512D03*
X39764Y-54724D03*
G54D27*
X38681Y-50984D03*
X39173Y-51476D03*
G54D26*
X45276Y-49213D03*
X45276Y-47539D03*
X44980Y-49213D03*
X44980Y-47539D03*
X43799Y-47539D03*
X43799Y-49213D03*
X43504Y-47539D03*
X43504Y-49213D03*
G54D25*
X46949Y-54429D03*
X46949Y-53051D03*
G54D29*
X36220Y-51968D02*
X38190Y-51968D01*
X39764Y-49319D02*
X40264Y-48819D01*
G54D30*
X39764Y-50394D02*
X39764Y-49319D01*
G54D29*
X38190Y-51968D02*
X39764Y-50394D01*
G54D30*
X44413Y-44769D02*
X44413Y-45062D01*
X44413Y-45062D02*
X44508Y-45157D01*
G54D31*
X45276Y-45157D02*
X44508Y-45157D01*
X44508Y-45157D02*
X44488Y-45177D01*
X44390Y-43898D02*
X44883Y-43898D01*
X35433Y-51968D02*
X35039Y-51574D01*
X35039Y-51574D02*
X35039Y-44292D01*
X35039Y-44292D02*
X35433Y-43898D01*
X35433Y-43898D02*
X44390Y-43898D01*
X36220Y-51968D02*
X35433Y-51968D01*
X45276Y-44291D02*
X45276Y-45157D01*
X44883Y-43898D02*
X45276Y-44291D01*
G54D30*
X44413Y-46569D02*
X44413Y-46276D01*
X44413Y-46276D02*
X44508Y-46181D01*
G54D31*
X45276Y-46181D02*
X44508Y-46181D01*
X44508Y-46181D02*
X44488Y-46161D01*
X45276Y-46181D02*
X45846Y-46181D01*
X45846Y-46181D02*
X45866Y-46161D01*
X49606Y-55787D02*
X49606Y-55197D01*
X49606Y-52874D02*
X49606Y-53464D01*
X48543Y-54331D02*
X49134Y-54331D01*
G54D30*
X45079Y-52756D02*
X45079Y-53150D01*
X45079Y-53150D02*
X44882Y-53347D01*
X44685Y-52756D02*
X44685Y-53150D01*
X44685Y-53150D02*
X44882Y-53347D01*
X44882Y-54331D02*
X44882Y-53347D01*
X45079Y-55905D02*
X45079Y-55512D01*
X45079Y-55512D02*
X44882Y-55315D01*
X44685Y-55905D02*
X44685Y-55512D01*
X44685Y-55512D02*
X44882Y-55315D01*
X44882Y-54331D02*
X44882Y-55315D01*
X44882Y-54331D02*
X44882Y-54823D01*
X44882Y-54823D02*
X45177Y-55118D01*
X44882Y-54331D02*
X44882Y-55118D01*
X44882Y-54823D02*
X44587Y-55118D01*
X44882Y-54331D02*
X45177Y-54331D01*
X44882Y-54331D02*
X44587Y-54331D01*
X44882Y-54331D02*
X44882Y-53838D01*
X44882Y-53838D02*
X45177Y-53543D01*
X44882Y-54331D02*
X44882Y-53543D01*
X44882Y-53838D02*
X44587Y-53543D01*
G54D32*
X44882Y-54331D02*
X44882Y-52953D01*
X44882Y-54331D02*
X44882Y-55709D01*
G54D33*
X45934Y-53051D02*
X46457Y-53051D01*
G54D30*
X45934Y-53181D02*
X45934Y-53051D01*
X45934Y-53051D02*
X45934Y-52925D01*
G54D33*
X45934Y-55610D02*
X46457Y-55610D01*
G54D30*
X45934Y-55484D02*
X45934Y-55610D01*
X45934Y-55610D02*
X45934Y-55740D01*
G54D33*
X43808Y-54823D02*
X43307Y-54823D01*
G54D30*
X43808Y-54972D02*
X43808Y-54823D01*
X43808Y-54823D02*
X43808Y-54716D01*
G54D31*
X40433Y-52362D02*
X39764Y-52362D01*
X40433Y-56299D02*
X39764Y-56299D01*
X40433Y-55512D02*
X39764Y-55512D01*
X40433Y-54724D02*
X39764Y-54724D01*
G54D30*
X36220Y-48032D02*
X35433Y-48819D01*
X35433Y-48819D02*
X35433Y-50492D01*
X35433Y-50492D02*
X35925Y-50984D01*
X35925Y-50984D02*
X38681Y-50984D01*
X36220Y-48031D02*
X36220Y-48032D01*
X40264Y-50385D02*
X40264Y-49819D01*
X39173Y-51476D02*
X40264Y-50385D01*
X41913Y-46569D02*
X41913Y-47556D01*
X40830Y-49819D02*
X40264Y-49819D01*
X41142Y-49507D02*
X40830Y-49819D01*
X41142Y-48327D02*
X41142Y-49507D01*
X41913Y-47556D02*
X41142Y-48327D01*
X42913Y-44769D02*
X42913Y-45473D01*
X39764Y-48319D02*
X39264Y-48819D01*
X39764Y-47146D02*
X39764Y-48319D01*
X41044Y-45866D02*
X39764Y-47146D01*
X42520Y-45866D02*
X41044Y-45866D01*
X42913Y-45473D02*
X42520Y-45866D01*
X43913Y-46569D02*
X43913Y-46964D01*
X45276Y-49409D02*
X45276Y-49213D01*
X45276Y-47539D02*
X44981Y-47244D01*
X45604Y-52592D02*
X45604Y-52657D01*
X45374Y-52362D02*
X45276Y-52264D01*
X45604Y-52592D02*
X45374Y-52362D01*
X45276Y-52264D02*
X45276Y-49409D01*
X44784Y-47047D02*
X44981Y-47244D01*
X43996Y-47047D02*
X44784Y-47047D01*
X43913Y-46964D02*
X43996Y-47047D01*
X45604Y-52657D02*
X45604Y-52756D01*
X45643Y-54460D02*
X45604Y-54421D01*
X45604Y-54421D02*
X45604Y-52657D01*
X45934Y-54460D02*
X45643Y-54460D01*
X41413Y-46569D02*
X41413Y-47465D01*
X41059Y-47819D02*
X40264Y-47819D01*
X41413Y-47465D02*
X41059Y-47819D01*
X41413Y-44769D02*
X41413Y-45201D01*
X39264Y-47350D02*
X39264Y-47819D01*
X41413Y-45201D02*
X39264Y-47350D01*
X36220Y-49999D02*
X37084Y-49999D01*
X37084Y-49999D02*
X39264Y-47819D01*
G54D34*
X43808Y-54205D02*
X42394Y-54205D01*
X42394Y-54205D02*
X42323Y-54134D01*
X42126Y-53937D02*
X41457Y-53937D01*
X42126Y-53937D02*
X42323Y-54134D01*
X43808Y-54460D02*
X42390Y-54460D01*
X42390Y-54460D02*
X42323Y-54527D01*
X42126Y-54724D02*
X41457Y-54724D01*
X42126Y-54724D02*
X42323Y-54527D01*
X43808Y-55484D02*
X41485Y-55484D01*
X41485Y-55484D02*
X41457Y-55512D01*
X43808Y-53949D02*
X42925Y-53949D01*
X42925Y-53949D02*
X42913Y-53937D01*
X42126Y-53150D02*
X41457Y-53150D01*
X42126Y-53150D02*
X42913Y-53937D01*
G54D31*
X36220Y-58857D02*
X37403Y-58857D01*
X39567Y-53937D02*
X38386Y-55118D01*
X38386Y-55118D02*
X38386Y-56299D01*
X39567Y-53937D02*
X40433Y-53937D01*
X38386Y-57874D02*
X38386Y-56299D01*
X37403Y-58857D02*
X38386Y-57874D01*
G54D35*
X60236Y-50983D02*
X56398Y-50983D01*
X56398Y-50983D02*
X55809Y-50394D01*
X60236Y-55708D02*
X58369Y-55708D01*
X58369Y-55708D02*
X55809Y-58268D01*
G54D30*
X44882Y-47441D02*
X44685Y-47244D01*
X44980Y-49508D02*
X44980Y-49213D01*
X44980Y-47539D02*
X44882Y-47441D01*
X45472Y-52953D02*
X45472Y-52657D01*
X45934Y-54716D02*
X45562Y-54716D01*
X45472Y-54626D02*
X45472Y-52953D01*
X45562Y-54716D02*
X45472Y-54626D01*
X44991Y-52166D02*
X44980Y-50492D01*
X45472Y-52657D02*
X44991Y-52166D01*
X44980Y-50492D02*
X44980Y-49508D01*
X43413Y-46957D02*
X43413Y-46569D01*
X43700Y-47244D02*
X43413Y-46957D01*
X44685Y-47244D02*
X43700Y-47244D01*
X43405Y-46577D02*
X43413Y-46569D01*
X44390Y-50886D02*
X43799Y-50295D01*
X43799Y-50295D02*
X43799Y-49213D01*
X44291Y-53248D02*
X44291Y-52756D01*
X43808Y-53693D02*
X44141Y-53693D01*
X44291Y-53543D02*
X44291Y-53248D01*
X44141Y-53693D02*
X44291Y-53543D01*
X44390Y-52657D02*
X44390Y-51181D01*
X44291Y-52756D02*
X44390Y-52657D01*
X44390Y-51181D02*
X44390Y-50886D01*
X42913Y-46949D02*
X42913Y-46569D01*
X43208Y-47244D02*
X42913Y-46949D01*
X43504Y-47244D02*
X43208Y-47244D01*
X43799Y-47539D02*
X43504Y-47244D01*
X44193Y-51181D02*
X44193Y-50984D01*
X44173Y-52579D02*
X44193Y-52559D01*
X44193Y-52559D02*
X44193Y-51181D01*
X44159Y-53085D02*
X44159Y-52612D01*
X43808Y-53181D02*
X44063Y-53181D01*
X44063Y-53181D02*
X44159Y-53085D01*
X44159Y-52612D02*
X44173Y-52598D01*
X44173Y-52598D02*
X44173Y-52579D01*
X42413Y-46941D02*
X42413Y-46569D01*
X42913Y-47441D02*
X42413Y-46941D01*
X43406Y-47441D02*
X42913Y-47441D01*
X43504Y-47539D02*
X43406Y-47441D01*
X43504Y-50295D02*
X43504Y-49213D01*
X44193Y-50984D02*
X43504Y-50295D01*
G54D34*
X45934Y-53693D02*
X48000Y-53693D01*
X48000Y-53693D02*
X48543Y-53150D01*
G54D31*
X47519Y-55512D02*
X47519Y-56654D01*
X47519Y-56654D02*
X47480Y-56693D01*
G54D34*
X45934Y-55228D02*
X47235Y-55228D01*
X47235Y-55228D02*
X47519Y-55512D01*
X45934Y-54972D02*
X48003Y-54972D01*
X48003Y-54972D02*
X48543Y-55512D01*
G54D31*
X36220Y-54527D02*
X37796Y-54527D01*
X39173Y-53150D02*
X40433Y-53150D01*
X37796Y-54527D02*
X39173Y-53150D01*
X47519Y-53150D02*
X47519Y-52007D01*
X47519Y-52007D02*
X47480Y-51968D01*
G54D34*
X45934Y-53437D02*
X47232Y-53437D01*
X47232Y-53437D02*
X47519Y-53150D01*
G54D35*
X49606Y-56811D02*
X51399Y-56811D01*
X51399Y-56811D02*
X52856Y-58268D01*
G54D32*
X48582Y-56693D02*
X49488Y-56693D01*
X49488Y-56693D02*
X49606Y-56811D01*
G54D35*
X49606Y-51850D02*
X51400Y-51850D01*
X51400Y-51850D02*
X52856Y-50394D01*
G54D32*
X48582Y-51968D02*
X49488Y-51968D01*
X49488Y-51968D02*
X49606Y-51850D01*
G54D31*
X45768Y-51772D02*
X45768Y-52166D01*
X47047Y-54331D02*
X47519Y-54331D01*
X46949Y-54429D02*
X47047Y-54331D01*
X46948Y-53050D02*
X46949Y-53051D01*
X46948Y-52854D02*
X46948Y-53050D01*
X46456Y-52362D02*
X46948Y-52854D01*
X45964Y-52362D02*
X46456Y-52362D01*
X45768Y-52166D02*
X45964Y-52362D01*
X45768Y-51772D02*
X45768Y-48818D01*
X45768Y-48818D02*
X46161Y-48425D01*
G54D35*
X42323Y-50000D02*
X42323Y-49212D01*
X47046Y-47540D02*
X46161Y-48425D01*
X46161Y-48425D02*
X44291Y-48425D01*
X47046Y-47540D02*
X47046Y-46850D01*
X43110Y-48425D02*
X44291Y-48425D01*
X42323Y-49212D02*
X43110Y-48425D01*
G54D34*
X43808Y-52925D02*
X43453Y-52925D01*
X43437Y-53437D02*
X43307Y-53307D01*
X43307Y-53307D02*
X43307Y-53071D01*
X43437Y-53437D02*
X43808Y-53437D01*
X43453Y-52925D02*
X43307Y-53071D01*
G54D33*
X45934Y-54094D02*
X47243Y-54094D01*
X47243Y-54094D02*
X47480Y-54331D01*
X47480Y-54331D02*
X47519Y-54331D01*
G54D30*
X45934Y-54205D02*
X45934Y-54094D01*
X45934Y-54094D02*
X45934Y-53967D01*
X45964Y-53937D02*
X45934Y-53949D01*
X45934Y-53967D02*
X45964Y-53937D01*
X43799Y-52756D02*
X43799Y-52953D01*
G54D31*
X41457Y-52362D02*
X43307Y-52362D01*
X43307Y-52362D02*
X43799Y-52362D01*
X43799Y-52756D02*
X43799Y-52362D01*
G54D30*
X43799Y-52953D02*
X43808Y-52925D01*
G54D31*
X41457Y-52362D02*
X41457Y-50866D01*
X41457Y-50866D02*
X42323Y-50000D01*
G54D34*
X43808Y-55740D02*
X44063Y-55740D01*
X44063Y-55740D02*
X44193Y-55610D01*
X44106Y-55228D02*
X43808Y-55228D01*
X44193Y-55315D02*
X44193Y-55610D01*
X44106Y-55228D02*
X44193Y-55315D01*
G54D31*
X43799Y-55905D02*
X43799Y-56004D01*
G54D30*
X43808Y-55740D02*
X43808Y-55798D01*
X43808Y-55798D02*
X43799Y-55807D01*
G54D29*
X43799Y-55905D02*
X43799Y-55807D01*
G54D31*
X43504Y-56299D02*
X41457Y-56299D01*
X43799Y-56004D02*
X43504Y-56299D01*
X41457Y-56299D02*
X41457Y-57795D01*
X41457Y-57795D02*
X42323Y-58661D01*
M02*
