M48
INCH,TZ
T1C0.012
T2C0.020
T3C0.024
T4C0.025
T5C0.032
T6C0.039
T7C0.047
T8C0.126
%
G05
T1
X043504Y-047539
X043504Y-049213
X043799Y-047539
X043799Y-049213
X044587Y-053543
X044587Y-054331
X044587Y-055118
X044685Y-052756
X044685Y-053150
X044685Y-055512
X044685Y-055905
X044882Y-053543
X044882Y-054331
X044882Y-055118
X044980Y-047539
X044980Y-049213
X045079Y-052756
X045079Y-053150
X045079Y-055512
X045079Y-055905
X045177Y-053543
X045177Y-054331
X045177Y-055118
X045276Y-047539
X045276Y-049213
T2
X038681Y-050984
X039173Y-051476
X043307Y-054823
X044882Y-052953
X044882Y-055709
X046457Y-053051
X046457Y-055610
T3
X045768Y-051772
X046359Y-051772
T4
X039764Y-052362
X039764Y-054724
X039764Y-055512
X039764Y-056299
T5
X042323Y-050000
X042323Y-058661
X044292Y-050000
X044292Y-058661
X045866Y-046161
X046949Y-053051
X046949Y-054429
X049134Y-054331
X049606Y-053464
X049606Y-055197
T6
X039264Y-047819
X039264Y-048819
X039264Y-049819
X040264Y-047819
X040264Y-048819
X040264Y-049819
X052856Y-050394
X052856Y-058268
X055809Y-050394
X055809Y-058268
T7
X036220Y-046062
X036220Y-048031
X036220Y-049999
X036220Y-051968
X036220Y-054527
X036220Y-056496
X036220Y-058857
X036220Y-060826
X047046Y-046850
X049015Y-046850
X060236Y-050983
X060236Y-052952
X060236Y-055708
X060236Y-057677
T8
X039764Y-045079
X039764Y-060531
X060531Y-044980
X060531Y-060531
T0
M30
