G04 (created by PCBNEW-RS274X (2010-03-14)-final) date Tue 10 Jan 2012 23:21:23 GMT*
G01*
G70*
G90*
%MOIN*%
G04 Gerber Fmt 3.4, Leading zero omitted, Abs format*
%FSLAX34Y34*%
G04 APERTURE LIST*
%ADD10C,0.006000*%
%ADD11C,0.010000*%
%ADD12C,0.015000*%
%ADD13C,0.006600*%
%ADD14C,0.008000*%
G04 APERTURE END LIST*
G54D10*
G54D11*
X48291Y-22752D02*
X48405Y-22752D01*
X48463Y-22790D01*
X48520Y-22866D01*
X48548Y-23018D01*
X48548Y-23285D01*
X48520Y-23438D01*
X48463Y-23514D01*
X48405Y-23552D01*
X48291Y-23552D01*
X48234Y-23514D01*
X48177Y-23438D01*
X48148Y-23285D01*
X48148Y-23018D01*
X48177Y-22866D01*
X48234Y-22790D01*
X48291Y-22752D01*
X49149Y-23552D02*
X48949Y-23171D01*
X48806Y-23552D02*
X48806Y-22752D01*
X49034Y-22752D01*
X49092Y-22790D01*
X49120Y-22828D01*
X49149Y-22904D01*
X49149Y-23018D01*
X49120Y-23095D01*
X49092Y-23133D01*
X49034Y-23171D01*
X48806Y-23171D01*
X49406Y-23552D02*
X49406Y-22752D01*
X49549Y-22752D01*
X49634Y-22790D01*
X49692Y-22866D01*
X49720Y-22942D01*
X49749Y-23095D01*
X49749Y-23209D01*
X49720Y-23361D01*
X49692Y-23438D01*
X49634Y-23514D01*
X49549Y-23552D01*
X49406Y-23552D01*
X50006Y-23133D02*
X50206Y-23133D01*
X50292Y-23552D02*
X50006Y-23552D01*
X50006Y-22752D01*
X50292Y-22752D01*
X50892Y-23552D02*
X50692Y-23171D01*
X50549Y-23552D02*
X50549Y-22752D01*
X50777Y-22752D01*
X50835Y-22790D01*
X50863Y-22828D01*
X50892Y-22904D01*
X50892Y-23018D01*
X50863Y-23095D01*
X50835Y-23133D01*
X50777Y-23171D01*
X50549Y-23171D01*
X51577Y-23018D02*
X52006Y-23018D01*
X51749Y-22676D02*
X51577Y-23704D01*
X51949Y-23361D02*
X51520Y-23361D01*
X51777Y-23704D02*
X51949Y-22676D01*
X52463Y-23018D02*
X52463Y-23552D01*
X52320Y-22714D02*
X52177Y-23285D01*
X52549Y-23285D01*
X52748Y-22828D02*
X52777Y-22790D01*
X52834Y-22752D01*
X52977Y-22752D01*
X53034Y-22790D01*
X53063Y-22828D01*
X53091Y-22904D01*
X53091Y-22980D01*
X53063Y-23095D01*
X52720Y-23552D01*
X53091Y-23552D01*
X53319Y-22828D02*
X53348Y-22790D01*
X53405Y-22752D01*
X53548Y-22752D01*
X53605Y-22790D01*
X53634Y-22828D01*
X53662Y-22904D01*
X53662Y-22980D01*
X53634Y-23095D01*
X53291Y-23552D01*
X53662Y-23552D01*
X54005Y-23095D02*
X53947Y-23057D01*
X53919Y-23018D01*
X53890Y-22942D01*
X53890Y-22904D01*
X53919Y-22828D01*
X53947Y-22790D01*
X54005Y-22752D01*
X54119Y-22752D01*
X54176Y-22790D01*
X54205Y-22828D01*
X54233Y-22904D01*
X54233Y-22942D01*
X54205Y-23018D01*
X54176Y-23057D01*
X54119Y-23095D01*
X54005Y-23095D01*
X53947Y-23133D01*
X53919Y-23171D01*
X53890Y-23247D01*
X53890Y-23399D01*
X53919Y-23476D01*
X53947Y-23514D01*
X54005Y-23552D01*
X54119Y-23552D01*
X54176Y-23514D01*
X54205Y-23476D01*
X54233Y-23399D01*
X54233Y-23247D01*
X54205Y-23171D01*
X54176Y-23133D01*
X54119Y-23095D01*
X54804Y-23552D02*
X54461Y-23552D01*
X54633Y-23552D02*
X54633Y-22752D01*
X54576Y-22866D01*
X54518Y-22942D01*
X54461Y-22980D01*
G54D12*
X31496Y-37795D02*
X31496Y-21850D01*
X66142Y-37795D02*
X31496Y-37795D01*
X66142Y-21850D02*
X66142Y-37795D01*
X31496Y-21850D02*
X66142Y-21850D01*
X35236Y-31299D02*
X35039Y-31299D01*
G54D13*
X36699Y-36631D02*
X36474Y-36631D01*
X36587Y-36631D02*
X36587Y-36103D01*
X36549Y-36178D01*
X36512Y-36228D01*
X36474Y-36254D01*
X36943Y-36103D02*
X36980Y-36103D01*
X37018Y-36128D01*
X37037Y-36153D01*
X37055Y-36203D01*
X37074Y-36304D01*
X37074Y-36430D01*
X37055Y-36530D01*
X37037Y-36580D01*
X37018Y-36606D01*
X36980Y-36631D01*
X36943Y-36631D01*
X36905Y-36606D01*
X36887Y-36580D01*
X36868Y-36530D01*
X36849Y-36430D01*
X36849Y-36304D01*
X36868Y-36203D01*
X36887Y-36153D01*
X36905Y-36128D01*
X36943Y-36103D01*
X37243Y-36631D02*
X37243Y-36279D01*
X37243Y-36329D02*
X37262Y-36304D01*
X37299Y-36279D01*
X37355Y-36279D01*
X37393Y-36304D01*
X37412Y-36354D01*
X37412Y-36631D01*
X37412Y-36354D02*
X37430Y-36304D01*
X37468Y-36279D01*
X37524Y-36279D01*
X37562Y-36304D01*
X37581Y-36354D01*
X37581Y-36631D01*
X37899Y-36354D02*
X37768Y-36354D01*
X37768Y-36631D02*
X37768Y-36103D01*
X37955Y-36103D01*
X36774Y-37468D02*
X36549Y-37468D01*
X36662Y-37468D02*
X36662Y-36940D01*
X36624Y-37015D01*
X36587Y-37065D01*
X36549Y-37091D01*
X37018Y-36940D02*
X37055Y-36940D01*
X37093Y-36965D01*
X37112Y-36990D01*
X37130Y-37040D01*
X37149Y-37141D01*
X37149Y-37267D01*
X37130Y-37367D01*
X37112Y-37417D01*
X37093Y-37443D01*
X37055Y-37468D01*
X37018Y-37468D01*
X36980Y-37443D01*
X36962Y-37417D01*
X36943Y-37367D01*
X36924Y-37267D01*
X36924Y-37141D01*
X36943Y-37040D01*
X36962Y-36990D01*
X36980Y-36965D01*
X37018Y-36940D01*
X37393Y-36940D02*
X37430Y-36940D01*
X37468Y-36965D01*
X37487Y-36990D01*
X37505Y-37040D01*
X37524Y-37141D01*
X37524Y-37267D01*
X37505Y-37367D01*
X37487Y-37417D01*
X37468Y-37443D01*
X37430Y-37468D01*
X37393Y-37468D01*
X37355Y-37443D01*
X37337Y-37417D01*
X37318Y-37367D01*
X37299Y-37267D01*
X37299Y-37141D01*
X37318Y-37040D01*
X37337Y-36990D01*
X37355Y-36965D01*
X37393Y-36940D01*
X37637Y-36940D02*
X37768Y-37468D01*
X37899Y-36940D01*
X35240Y-30575D02*
X35428Y-30575D01*
X35203Y-30726D02*
X35334Y-30198D01*
X35465Y-30726D01*
X35822Y-30675D02*
X35803Y-30701D01*
X35747Y-30726D01*
X35709Y-30726D01*
X35653Y-30701D01*
X35616Y-30650D01*
X35597Y-30600D01*
X35578Y-30499D01*
X35578Y-30424D01*
X35597Y-30323D01*
X35616Y-30273D01*
X35653Y-30223D01*
X35709Y-30198D01*
X35747Y-30198D01*
X35803Y-30223D01*
X35822Y-30248D01*
X35231Y-32005D02*
X35231Y-31477D01*
X35325Y-31477D01*
X35381Y-31502D01*
X35418Y-31552D01*
X35437Y-31602D01*
X35456Y-31703D01*
X35456Y-31778D01*
X35437Y-31879D01*
X35418Y-31929D01*
X35381Y-31980D01*
X35325Y-32005D01*
X35231Y-32005D01*
X35850Y-31954D02*
X35831Y-31980D01*
X35775Y-32005D01*
X35737Y-32005D01*
X35681Y-31980D01*
X35644Y-31929D01*
X35625Y-31879D01*
X35606Y-31778D01*
X35606Y-31703D01*
X35625Y-31602D01*
X35644Y-31552D01*
X35681Y-31502D01*
X35737Y-31477D01*
X35775Y-31477D01*
X35831Y-31502D01*
X35850Y-31527D01*
G54D11*
X39633Y-23946D02*
X39633Y-23412D01*
X39633Y-23565D02*
X39661Y-23489D01*
X39690Y-23451D01*
X39747Y-23412D01*
X39804Y-23412D01*
X40318Y-23946D02*
X39975Y-23946D01*
X40147Y-23946D02*
X40147Y-23146D01*
X40090Y-23260D01*
X40032Y-23336D01*
X39975Y-23374D01*
G54D12*
X38583Y-22048D02*
X38583Y-22047D01*
X38976Y-22441D02*
X38583Y-22048D01*
X38976Y-22835D02*
X38582Y-22441D01*
X38976Y-23228D02*
X38583Y-22835D01*
X38583Y-23229D02*
X38583Y-23228D01*
X38976Y-23622D02*
X38583Y-23229D01*
X38583Y-23623D02*
X38583Y-23622D01*
X38976Y-24016D02*
X38583Y-23623D01*
X38976Y-24409D02*
X38583Y-24016D01*
X38583Y-24410D02*
X38583Y-24409D01*
X38976Y-24803D02*
X38583Y-24410D01*
X38583Y-24804D02*
X38583Y-24803D01*
X38976Y-25197D02*
X38583Y-24804D01*
X38583Y-25198D02*
X38583Y-25197D01*
X38976Y-25591D02*
X38583Y-25198D01*
X38976Y-25984D02*
X38583Y-25591D01*
X38583Y-25985D02*
X38583Y-25984D01*
X38976Y-26378D02*
X38583Y-25985D01*
X38583Y-26379D02*
X38583Y-26378D01*
X38976Y-26772D02*
X38583Y-26379D01*
X38976Y-27165D02*
X38583Y-26772D01*
X38583Y-27166D02*
X38583Y-27165D01*
X38976Y-27559D02*
X38583Y-27166D01*
X38583Y-27560D02*
X38583Y-27559D01*
X38976Y-27953D02*
X38583Y-27560D01*
X38976Y-28346D02*
X38583Y-27953D01*
X38976Y-28739D02*
X38976Y-28740D01*
X38583Y-28346D02*
X38976Y-28739D01*
X38976Y-29133D02*
X38976Y-29134D01*
X38583Y-28740D02*
X38976Y-29133D01*
X38976Y-29527D02*
X38976Y-29528D01*
X38583Y-29134D02*
X38976Y-29527D01*
X38976Y-29921D02*
X38583Y-29528D01*
X38976Y-30314D02*
X38976Y-30315D01*
X38583Y-29921D02*
X38976Y-30314D01*
X38583Y-30316D02*
X38583Y-30315D01*
X38976Y-30709D02*
X38583Y-30316D01*
X38976Y-31102D02*
X38583Y-30709D01*
X38386Y-30905D02*
X38780Y-31299D01*
X37992Y-30905D02*
X38386Y-31299D01*
X37795Y-31298D02*
X37795Y-31299D01*
X37402Y-30905D02*
X37795Y-31298D01*
X37008Y-30905D02*
X37402Y-31299D01*
X37008Y-31299D02*
X37106Y-31299D01*
X36614Y-30905D02*
X37008Y-31299D01*
X36614Y-31299D02*
X36713Y-31299D01*
X36220Y-30905D02*
X36614Y-31299D01*
X36220Y-31298D02*
X36220Y-31299D01*
X35827Y-30905D02*
X36220Y-31298D01*
X35433Y-30905D02*
X35827Y-31299D01*
X35433Y-31299D02*
X35039Y-30905D01*
X34646Y-30906D02*
X34646Y-30905D01*
X35039Y-31299D02*
X34646Y-30906D01*
X34646Y-31300D02*
X34646Y-31299D01*
X35039Y-31693D02*
X34646Y-31300D01*
X34646Y-31694D02*
X34646Y-31693D01*
X35039Y-32087D02*
X34646Y-31694D01*
X35039Y-32480D02*
X34646Y-32087D01*
X34646Y-32481D02*
X34646Y-32480D01*
X35039Y-32874D02*
X34646Y-32481D01*
X34842Y-33070D02*
X34842Y-33071D01*
X34449Y-32677D02*
X34842Y-33070D01*
X34055Y-32677D02*
X34449Y-33071D01*
X33661Y-32677D02*
X34055Y-33071D01*
X33661Y-33070D02*
X33661Y-33071D01*
X33268Y-32677D02*
X33661Y-33070D01*
X33268Y-33071D02*
X33465Y-33071D01*
X32874Y-32677D02*
X33268Y-33071D01*
X32480Y-32677D02*
X32874Y-33071D01*
X32480Y-33070D02*
X32480Y-33071D01*
X32087Y-32677D02*
X32480Y-33070D01*
X31693Y-32677D02*
X32087Y-33071D01*
X35039Y-33071D02*
X31693Y-33071D01*
X35039Y-31299D02*
X35039Y-33071D01*
X38976Y-31299D02*
X35236Y-31299D01*
X38976Y-22047D02*
X38976Y-31299D01*
X35236Y-29331D02*
X35236Y-28346D01*
X34055Y-30512D02*
X35236Y-29331D01*
X32677Y-29725D02*
X33071Y-29725D01*
X32480Y-29528D02*
X33268Y-29528D01*
X32874Y-29134D02*
X32874Y-29528D01*
X33071Y-30906D02*
X33465Y-30512D01*
X32677Y-30512D02*
X33071Y-30906D01*
X32283Y-30906D02*
X32677Y-30512D01*
X33071Y-32087D02*
X33465Y-31693D01*
X32677Y-31693D02*
X33071Y-32087D01*
X32283Y-32087D02*
X32677Y-31693D01*
X31890Y-31299D02*
X34055Y-31299D01*
X31890Y-30118D02*
X34055Y-30118D01*
X34055Y-28740D02*
X31890Y-28740D01*
X34055Y-32480D02*
X34055Y-28740D01*
X31890Y-32480D02*
X34055Y-32480D01*
X31890Y-28740D02*
X31890Y-32480D01*
G54D11*
X35958Y-35878D02*
X35929Y-35916D01*
X35843Y-35954D01*
X35786Y-35954D01*
X35701Y-35916D01*
X35643Y-35840D01*
X35615Y-35763D01*
X35586Y-35611D01*
X35586Y-35497D01*
X35615Y-35344D01*
X35643Y-35268D01*
X35701Y-35192D01*
X35786Y-35154D01*
X35843Y-35154D01*
X35929Y-35192D01*
X35958Y-35230D01*
X36186Y-35725D02*
X36472Y-35725D01*
X36129Y-35954D02*
X36329Y-35154D01*
X36529Y-35954D01*
X36729Y-35954D02*
X36729Y-35154D01*
X36957Y-35154D01*
X37015Y-35192D01*
X37043Y-35230D01*
X37072Y-35306D01*
X37072Y-35420D01*
X37043Y-35497D01*
X37015Y-35535D01*
X36957Y-35573D01*
X36729Y-35573D01*
X37300Y-35916D02*
X37386Y-35954D01*
X37529Y-35954D01*
X37586Y-35916D01*
X37615Y-35878D01*
X37643Y-35801D01*
X37643Y-35725D01*
X37615Y-35649D01*
X37586Y-35611D01*
X37529Y-35573D01*
X37415Y-35535D01*
X37357Y-35497D01*
X37329Y-35459D01*
X37300Y-35382D01*
X37300Y-35306D01*
X37329Y-35230D01*
X37357Y-35192D01*
X37415Y-35154D01*
X37557Y-35154D01*
X37643Y-35192D01*
G54D12*
X35531Y-36713D02*
X36122Y-36713D01*
X35827Y-36417D02*
X35827Y-37008D01*
X35827Y-34252D02*
X35827Y-34842D01*
G54D11*
X38579Y-35528D02*
X38865Y-35528D01*
X38522Y-35757D02*
X38722Y-34957D01*
X38922Y-35757D01*
X39379Y-35757D02*
X39379Y-34957D01*
X39379Y-35719D02*
X39322Y-35757D01*
X39208Y-35757D01*
X39150Y-35719D01*
X39122Y-35681D01*
X39093Y-35604D01*
X39093Y-35376D01*
X39122Y-35300D01*
X39150Y-35262D01*
X39208Y-35223D01*
X39322Y-35223D01*
X39379Y-35262D01*
X39922Y-35757D02*
X39922Y-35338D01*
X39893Y-35262D01*
X39836Y-35223D01*
X39722Y-35223D01*
X39665Y-35262D01*
X39922Y-35719D02*
X39865Y-35757D01*
X39722Y-35757D01*
X39665Y-35719D01*
X39636Y-35643D01*
X39636Y-35566D01*
X39665Y-35490D01*
X39722Y-35452D01*
X39865Y-35452D01*
X39922Y-35414D01*
X40208Y-35757D02*
X40208Y-35223D01*
X40208Y-35300D02*
X40236Y-35262D01*
X40294Y-35223D01*
X40379Y-35223D01*
X40436Y-35262D01*
X40465Y-35338D01*
X40465Y-35757D01*
X40465Y-35338D02*
X40494Y-35262D01*
X40551Y-35223D01*
X40636Y-35223D01*
X40694Y-35262D01*
X40722Y-35338D01*
X40722Y-35757D01*
X38965Y-36235D02*
X38908Y-36197D01*
X38822Y-36197D01*
X38737Y-36235D01*
X38679Y-36311D01*
X38651Y-36387D01*
X38622Y-36540D01*
X38622Y-36654D01*
X38651Y-36806D01*
X38679Y-36883D01*
X38737Y-36959D01*
X38822Y-36997D01*
X38879Y-36997D01*
X38965Y-36959D01*
X38994Y-36921D01*
X38994Y-36654D01*
X38879Y-36654D01*
X39251Y-36997D02*
X39251Y-36463D01*
X39251Y-36616D02*
X39279Y-36540D01*
X39308Y-36502D01*
X39365Y-36463D01*
X39422Y-36463D01*
X39850Y-36959D02*
X39793Y-36997D01*
X39679Y-36997D01*
X39622Y-36959D01*
X39593Y-36883D01*
X39593Y-36578D01*
X39622Y-36502D01*
X39679Y-36463D01*
X39793Y-36463D01*
X39850Y-36502D01*
X39879Y-36578D01*
X39879Y-36654D01*
X39593Y-36730D01*
X40136Y-36997D02*
X40136Y-36463D01*
X40136Y-36197D02*
X40107Y-36235D01*
X40136Y-36273D01*
X40164Y-36235D01*
X40136Y-36197D01*
X40136Y-36273D01*
X40679Y-36463D02*
X40679Y-37111D01*
X40650Y-37187D01*
X40622Y-37225D01*
X40565Y-37263D01*
X40479Y-37263D01*
X40422Y-37225D01*
X40679Y-36959D02*
X40622Y-36997D01*
X40508Y-36997D01*
X40450Y-36959D01*
X40422Y-36921D01*
X40393Y-36844D01*
X40393Y-36616D01*
X40422Y-36540D01*
X40450Y-36502D01*
X40508Y-36463D01*
X40622Y-36463D01*
X40679Y-36502D01*
X44425Y-22359D02*
X44425Y-22930D01*
X44397Y-23045D01*
X44340Y-23121D01*
X44254Y-23159D01*
X44197Y-23159D01*
X44968Y-23159D02*
X44968Y-22740D01*
X44939Y-22664D01*
X44882Y-22625D01*
X44768Y-22625D01*
X44711Y-22664D01*
X44968Y-23121D02*
X44911Y-23159D01*
X44768Y-23159D01*
X44711Y-23121D01*
X44682Y-23045D01*
X44682Y-22968D01*
X44711Y-22892D01*
X44768Y-22854D01*
X44911Y-22854D01*
X44968Y-22816D01*
X45254Y-22625D02*
X45254Y-23159D01*
X45254Y-22702D02*
X45282Y-22664D01*
X45340Y-22625D01*
X45425Y-22625D01*
X45482Y-22664D01*
X45511Y-22740D01*
X45511Y-23159D01*
X43854Y-23675D02*
X43883Y-23637D01*
X43940Y-23599D01*
X44083Y-23599D01*
X44140Y-23637D01*
X44169Y-23675D01*
X44197Y-23751D01*
X44197Y-23827D01*
X44169Y-23942D01*
X43826Y-24399D01*
X44197Y-24399D01*
X44568Y-23599D02*
X44625Y-23599D01*
X44682Y-23637D01*
X44711Y-23675D01*
X44740Y-23751D01*
X44768Y-23904D01*
X44768Y-24094D01*
X44740Y-24246D01*
X44711Y-24323D01*
X44682Y-24361D01*
X44625Y-24399D01*
X44568Y-24399D01*
X44511Y-24361D01*
X44482Y-24323D01*
X44454Y-24246D01*
X44425Y-24094D01*
X44425Y-23904D01*
X44454Y-23751D01*
X44482Y-23675D01*
X44511Y-23637D01*
X44568Y-23599D01*
X45339Y-24399D02*
X44996Y-24399D01*
X45168Y-24399D02*
X45168Y-23599D01*
X45111Y-23713D01*
X45053Y-23789D01*
X44996Y-23827D01*
X45567Y-23675D02*
X45596Y-23637D01*
X45653Y-23599D01*
X45796Y-23599D01*
X45853Y-23637D01*
X45882Y-23675D01*
X45910Y-23751D01*
X45910Y-23827D01*
X45882Y-23942D01*
X45539Y-24399D01*
X45910Y-24399D01*
X57446Y-23126D02*
X57732Y-23126D01*
X57389Y-23355D02*
X57589Y-22555D01*
X57789Y-23355D01*
X57989Y-23355D02*
X57989Y-22555D01*
X58189Y-23126D01*
X58389Y-22555D01*
X58389Y-23355D01*
X58675Y-23355D02*
X58675Y-22555D01*
X58903Y-22555D01*
X58961Y-22593D01*
X58989Y-22631D01*
X59018Y-22707D01*
X59018Y-22821D01*
X58989Y-22898D01*
X58961Y-22936D01*
X58903Y-22974D01*
X58675Y-22974D01*
X59589Y-23355D02*
X59246Y-23355D01*
X59418Y-23355D02*
X59418Y-22555D01*
X59361Y-22669D01*
X59303Y-22745D01*
X59246Y-22783D01*
X60303Y-23355D02*
X60303Y-22555D01*
X60531Y-22555D01*
X60589Y-22593D01*
X60617Y-22631D01*
X60646Y-22707D01*
X60646Y-22821D01*
X60617Y-22898D01*
X60589Y-22936D01*
X60531Y-22974D01*
X60303Y-22974D01*
X60874Y-23317D02*
X60960Y-23355D01*
X61103Y-23355D01*
X61160Y-23317D01*
X61189Y-23279D01*
X61217Y-23202D01*
X61217Y-23126D01*
X61189Y-23050D01*
X61160Y-23012D01*
X61103Y-22974D01*
X60989Y-22936D01*
X60931Y-22898D01*
X60903Y-22860D01*
X60874Y-22783D01*
X60874Y-22707D01*
X60903Y-22631D01*
X60931Y-22593D01*
X60989Y-22555D01*
X61131Y-22555D01*
X61217Y-22593D01*
X61474Y-22555D02*
X61474Y-23202D01*
X61502Y-23279D01*
X61531Y-23317D01*
X61588Y-23355D01*
X61702Y-23355D01*
X61760Y-23317D01*
X61788Y-23279D01*
X61817Y-23202D01*
X61817Y-22555D01*
X59940Y-29677D02*
X59911Y-29715D01*
X59825Y-29753D01*
X59768Y-29753D01*
X59683Y-29715D01*
X59625Y-29639D01*
X59597Y-29562D01*
X59568Y-29410D01*
X59568Y-29296D01*
X59597Y-29143D01*
X59625Y-29067D01*
X59683Y-28991D01*
X59768Y-28953D01*
X59825Y-28953D01*
X59911Y-28991D01*
X59940Y-29029D01*
X60454Y-28953D02*
X60340Y-28953D01*
X60283Y-28991D01*
X60254Y-29029D01*
X60197Y-29143D01*
X60168Y-29296D01*
X60168Y-29600D01*
X60197Y-29677D01*
X60225Y-29715D01*
X60283Y-29753D01*
X60397Y-29753D01*
X60454Y-29715D01*
X60483Y-29677D01*
X60511Y-29600D01*
X60511Y-29410D01*
X60483Y-29334D01*
X60454Y-29296D01*
X60397Y-29258D01*
X60283Y-29258D01*
X60225Y-29296D01*
X60197Y-29334D01*
X60168Y-29410D01*
X59940Y-33614D02*
X59911Y-33652D01*
X59825Y-33690D01*
X59768Y-33690D01*
X59683Y-33652D01*
X59625Y-33576D01*
X59597Y-33499D01*
X59568Y-33347D01*
X59568Y-33233D01*
X59597Y-33080D01*
X59625Y-33004D01*
X59683Y-32928D01*
X59768Y-32890D01*
X59825Y-32890D01*
X59911Y-32928D01*
X59940Y-32966D01*
X60225Y-33690D02*
X60340Y-33690D01*
X60397Y-33652D01*
X60425Y-33614D01*
X60483Y-33499D01*
X60511Y-33347D01*
X60511Y-33042D01*
X60483Y-32966D01*
X60454Y-32928D01*
X60397Y-32890D01*
X60283Y-32890D01*
X60225Y-32928D01*
X60197Y-32966D01*
X60168Y-33042D01*
X60168Y-33233D01*
X60197Y-33309D01*
X60225Y-33347D01*
X60283Y-33385D01*
X60397Y-33385D01*
X60454Y-33347D01*
X60483Y-33309D01*
X60511Y-33233D01*
X44783Y-32039D02*
X44754Y-32077D01*
X44668Y-32115D01*
X44611Y-32115D01*
X44526Y-32077D01*
X44468Y-32001D01*
X44440Y-31924D01*
X44411Y-31772D01*
X44411Y-31658D01*
X44440Y-31505D01*
X44468Y-31429D01*
X44526Y-31353D01*
X44611Y-31315D01*
X44668Y-31315D01*
X44754Y-31353D01*
X44783Y-31391D01*
X44983Y-31315D02*
X45383Y-31315D01*
X45126Y-32115D01*
X44094Y-28299D02*
X44065Y-28337D01*
X43979Y-28375D01*
X43922Y-28375D01*
X43837Y-28337D01*
X43779Y-28261D01*
X43751Y-28184D01*
X43722Y-28032D01*
X43722Y-27918D01*
X43751Y-27765D01*
X43779Y-27689D01*
X43837Y-27613D01*
X43922Y-27575D01*
X43979Y-27575D01*
X44065Y-27613D01*
X44094Y-27651D01*
X44608Y-27841D02*
X44608Y-28375D01*
X44465Y-27537D02*
X44322Y-28108D01*
X44694Y-28108D01*
X42125Y-28299D02*
X42096Y-28337D01*
X42010Y-28375D01*
X41953Y-28375D01*
X41868Y-28337D01*
X41810Y-28261D01*
X41782Y-28184D01*
X41753Y-28032D01*
X41753Y-27918D01*
X41782Y-27765D01*
X41810Y-27689D01*
X41868Y-27613D01*
X41953Y-27575D01*
X42010Y-27575D01*
X42096Y-27613D01*
X42125Y-27651D01*
X42325Y-27575D02*
X42696Y-27575D01*
X42496Y-27880D01*
X42582Y-27880D01*
X42639Y-27918D01*
X42668Y-27956D01*
X42696Y-28032D01*
X42696Y-28222D01*
X42668Y-28299D01*
X42639Y-28337D01*
X42582Y-28375D01*
X42410Y-28375D01*
X42353Y-28337D01*
X42325Y-28299D01*
X39862Y-28299D02*
X39833Y-28337D01*
X39747Y-28375D01*
X39690Y-28375D01*
X39605Y-28337D01*
X39547Y-28261D01*
X39519Y-28184D01*
X39490Y-28032D01*
X39490Y-27918D01*
X39519Y-27765D01*
X39547Y-27689D01*
X39605Y-27613D01*
X39690Y-27575D01*
X39747Y-27575D01*
X39833Y-27613D01*
X39862Y-27651D01*
X40090Y-27651D02*
X40119Y-27613D01*
X40176Y-27575D01*
X40319Y-27575D01*
X40376Y-27613D01*
X40405Y-27651D01*
X40433Y-27727D01*
X40433Y-27803D01*
X40405Y-27918D01*
X40062Y-28375D01*
X40433Y-28375D01*
X40551Y-33516D02*
X40522Y-33554D01*
X40436Y-33592D01*
X40379Y-33592D01*
X40294Y-33554D01*
X40236Y-33478D01*
X40208Y-33401D01*
X40179Y-33249D01*
X40179Y-33135D01*
X40208Y-32982D01*
X40236Y-32906D01*
X40294Y-32830D01*
X40379Y-32792D01*
X40436Y-32792D01*
X40522Y-32830D01*
X40551Y-32868D01*
X41122Y-33592D02*
X40779Y-33592D01*
X40951Y-33592D02*
X40951Y-32792D01*
X40894Y-32906D01*
X40836Y-32982D01*
X40779Y-33020D01*
X57775Y-25937D02*
X57746Y-25975D01*
X57660Y-26013D01*
X57603Y-26013D01*
X57518Y-25975D01*
X57460Y-25899D01*
X57432Y-25822D01*
X57403Y-25670D01*
X57403Y-25556D01*
X57432Y-25403D01*
X57460Y-25327D01*
X57518Y-25251D01*
X57603Y-25213D01*
X57660Y-25213D01*
X57746Y-25251D01*
X57775Y-25289D01*
X58318Y-25213D02*
X58032Y-25213D01*
X58003Y-25594D01*
X58032Y-25556D01*
X58089Y-25518D01*
X58232Y-25518D01*
X58289Y-25556D01*
X58318Y-25594D01*
X58346Y-25670D01*
X58346Y-25860D01*
X58318Y-25937D01*
X58289Y-25975D01*
X58232Y-26013D01*
X58089Y-26013D01*
X58032Y-25975D01*
X58003Y-25937D01*
X55314Y-32433D02*
X55285Y-32471D01*
X55199Y-32509D01*
X55142Y-32509D01*
X55057Y-32471D01*
X54999Y-32395D01*
X54971Y-32318D01*
X54942Y-32166D01*
X54942Y-32052D01*
X54971Y-31899D01*
X54999Y-31823D01*
X55057Y-31747D01*
X55142Y-31709D01*
X55199Y-31709D01*
X55285Y-31747D01*
X55314Y-31785D01*
X55657Y-32052D02*
X55599Y-32014D01*
X55571Y-31975D01*
X55542Y-31899D01*
X55542Y-31861D01*
X55571Y-31785D01*
X55599Y-31747D01*
X55657Y-31709D01*
X55771Y-31709D01*
X55828Y-31747D01*
X55857Y-31785D01*
X55885Y-31861D01*
X55885Y-31899D01*
X55857Y-31975D01*
X55828Y-32014D01*
X55771Y-32052D01*
X55657Y-32052D01*
X55599Y-32090D01*
X55571Y-32128D01*
X55542Y-32204D01*
X55542Y-32356D01*
X55571Y-32433D01*
X55599Y-32471D01*
X55657Y-32509D01*
X55771Y-32509D01*
X55828Y-32471D01*
X55857Y-32433D01*
X55885Y-32356D01*
X55885Y-32204D01*
X55857Y-32128D01*
X55828Y-32090D01*
X55771Y-32052D01*
X47184Y-31918D02*
X47184Y-31118D01*
X47412Y-31118D01*
X47470Y-31156D01*
X47498Y-31194D01*
X47527Y-31270D01*
X47527Y-31384D01*
X47498Y-31461D01*
X47470Y-31499D01*
X47412Y-31537D01*
X47184Y-31537D01*
X47698Y-31118D02*
X48041Y-31118D01*
X47870Y-31918D02*
X47870Y-31118D01*
X48241Y-31918D02*
X48241Y-31118D01*
X48584Y-31918D01*
X48584Y-31118D01*
X48813Y-31118D02*
X49213Y-31118D01*
X48956Y-31918D01*
X49527Y-31461D02*
X49469Y-31423D01*
X49441Y-31384D01*
X49412Y-31308D01*
X49412Y-31270D01*
X49441Y-31194D01*
X49469Y-31156D01*
X49527Y-31118D01*
X49641Y-31118D01*
X49698Y-31156D01*
X49727Y-31194D01*
X49755Y-31270D01*
X49755Y-31308D01*
X49727Y-31384D01*
X49698Y-31423D01*
X49641Y-31461D01*
X49527Y-31461D01*
X49469Y-31499D01*
X49441Y-31537D01*
X49412Y-31613D01*
X49412Y-31765D01*
X49441Y-31842D01*
X49469Y-31880D01*
X49527Y-31918D01*
X49641Y-31918D01*
X49698Y-31880D01*
X49727Y-31842D01*
X49755Y-31765D01*
X49755Y-31613D01*
X49727Y-31537D01*
X49698Y-31499D01*
X49641Y-31461D01*
X50126Y-31118D02*
X50183Y-31118D01*
X50240Y-31156D01*
X50269Y-31194D01*
X50298Y-31270D01*
X50326Y-31423D01*
X50326Y-31613D01*
X50298Y-31765D01*
X50269Y-31842D01*
X50240Y-31880D01*
X50183Y-31918D01*
X50126Y-31918D01*
X50069Y-31880D01*
X50040Y-31842D01*
X50012Y-31765D01*
X49983Y-31613D01*
X49983Y-31423D01*
X50012Y-31270D01*
X50040Y-31194D01*
X50069Y-31156D01*
X50126Y-31118D01*
X50697Y-31118D02*
X50754Y-31118D01*
X50811Y-31156D01*
X50840Y-31194D01*
X50869Y-31270D01*
X50897Y-31423D01*
X50897Y-31613D01*
X50869Y-31765D01*
X50840Y-31842D01*
X50811Y-31880D01*
X50754Y-31918D01*
X50697Y-31918D01*
X50640Y-31880D01*
X50611Y-31842D01*
X50583Y-31765D01*
X50554Y-31613D01*
X50554Y-31423D01*
X50583Y-31270D01*
X50611Y-31194D01*
X50640Y-31156D01*
X50697Y-31118D01*
X51268Y-31118D02*
X51325Y-31118D01*
X51382Y-31156D01*
X51411Y-31194D01*
X51440Y-31270D01*
X51468Y-31423D01*
X51468Y-31613D01*
X51440Y-31765D01*
X51411Y-31842D01*
X51382Y-31880D01*
X51325Y-31918D01*
X51268Y-31918D01*
X51211Y-31880D01*
X51182Y-31842D01*
X51154Y-31765D01*
X51125Y-31613D01*
X51125Y-31423D01*
X51154Y-31270D01*
X51182Y-31194D01*
X51211Y-31156D01*
X51268Y-31118D01*
X51668Y-31118D02*
X51811Y-31918D01*
X51925Y-31346D01*
X52039Y-31918D01*
X52182Y-31118D01*
X52382Y-31689D02*
X52668Y-31689D01*
X52325Y-31918D02*
X52525Y-31118D01*
X52725Y-31918D01*
X52868Y-31118D02*
X53268Y-31118D01*
X52868Y-31918D01*
X53268Y-31918D01*
X48394Y-25718D02*
X48394Y-24918D01*
X48622Y-24918D01*
X48680Y-24956D01*
X48708Y-24994D01*
X48737Y-25070D01*
X48737Y-25184D01*
X48708Y-25261D01*
X48680Y-25299D01*
X48622Y-25337D01*
X48394Y-25337D01*
X48908Y-24918D02*
X49251Y-24918D01*
X49080Y-25718D02*
X49080Y-24918D01*
X49451Y-25718D02*
X49451Y-24918D01*
X49794Y-25718D01*
X49794Y-24918D01*
X50023Y-24918D02*
X50423Y-24918D01*
X50166Y-25718D01*
X50737Y-25261D02*
X50679Y-25223D01*
X50651Y-25184D01*
X50622Y-25108D01*
X50622Y-25070D01*
X50651Y-24994D01*
X50679Y-24956D01*
X50737Y-24918D01*
X50851Y-24918D01*
X50908Y-24956D01*
X50937Y-24994D01*
X50965Y-25070D01*
X50965Y-25108D01*
X50937Y-25184D01*
X50908Y-25223D01*
X50851Y-25261D01*
X50737Y-25261D01*
X50679Y-25299D01*
X50651Y-25337D01*
X50622Y-25413D01*
X50622Y-25565D01*
X50651Y-25642D01*
X50679Y-25680D01*
X50737Y-25718D01*
X50851Y-25718D01*
X50908Y-25680D01*
X50937Y-25642D01*
X50965Y-25565D01*
X50965Y-25413D01*
X50937Y-25337D01*
X50908Y-25299D01*
X50851Y-25261D01*
X51336Y-24918D02*
X51393Y-24918D01*
X51450Y-24956D01*
X51479Y-24994D01*
X51508Y-25070D01*
X51536Y-25223D01*
X51536Y-25413D01*
X51508Y-25565D01*
X51479Y-25642D01*
X51450Y-25680D01*
X51393Y-25718D01*
X51336Y-25718D01*
X51279Y-25680D01*
X51250Y-25642D01*
X51222Y-25565D01*
X51193Y-25413D01*
X51193Y-25223D01*
X51222Y-25070D01*
X51250Y-24994D01*
X51279Y-24956D01*
X51336Y-24918D01*
X52050Y-24918D02*
X51936Y-24918D01*
X51879Y-24956D01*
X51850Y-24994D01*
X51793Y-25108D01*
X51764Y-25261D01*
X51764Y-25565D01*
X51793Y-25642D01*
X51821Y-25680D01*
X51879Y-25718D01*
X51993Y-25718D01*
X52050Y-25680D01*
X52079Y-25642D01*
X52107Y-25565D01*
X52107Y-25375D01*
X52079Y-25299D01*
X52050Y-25261D01*
X51993Y-25223D01*
X51879Y-25223D01*
X51821Y-25261D01*
X51793Y-25299D01*
X51764Y-25375D01*
X52478Y-24918D02*
X52535Y-24918D01*
X52592Y-24956D01*
X52621Y-24994D01*
X52650Y-25070D01*
X52678Y-25223D01*
X52678Y-25413D01*
X52650Y-25565D01*
X52621Y-25642D01*
X52592Y-25680D01*
X52535Y-25718D01*
X52478Y-25718D01*
X52421Y-25680D01*
X52392Y-25642D01*
X52364Y-25565D01*
X52335Y-25413D01*
X52335Y-25223D01*
X52364Y-25070D01*
X52392Y-24994D01*
X52421Y-24956D01*
X52478Y-24918D01*
X52935Y-25718D02*
X52935Y-24918D01*
X52935Y-25299D02*
X53278Y-25299D01*
X53278Y-25718D02*
X53278Y-24918D01*
X53535Y-25489D02*
X53821Y-25489D01*
X53478Y-25718D02*
X53678Y-24918D01*
X53878Y-25718D01*
X54021Y-24918D02*
X54421Y-24918D01*
X54021Y-25718D01*
X54421Y-25718D01*
G54D13*
X61730Y-27227D02*
X61202Y-27227D01*
X61730Y-27039D02*
X61202Y-27039D01*
X61730Y-26814D01*
X61202Y-26814D01*
X61730Y-26626D02*
X61202Y-26626D01*
X61453Y-26626D02*
X61453Y-26401D01*
X61730Y-26401D02*
X61202Y-26401D01*
X61730Y-26213D02*
X61202Y-26213D01*
X61453Y-25894D02*
X61478Y-25838D01*
X61503Y-25819D01*
X61554Y-25800D01*
X61629Y-25800D01*
X61679Y-25819D01*
X61705Y-25838D01*
X61730Y-25875D01*
X61730Y-26025D01*
X61202Y-26025D01*
X61202Y-25894D01*
X61227Y-25856D01*
X61252Y-25838D01*
X61302Y-25819D01*
X61353Y-25819D01*
X61403Y-25838D01*
X61428Y-25856D01*
X61453Y-25894D01*
X61453Y-26025D01*
X61730Y-25631D02*
X61202Y-25631D01*
X61202Y-25499D02*
X61202Y-25274D01*
X61730Y-25387D02*
X61202Y-25387D01*
X61699Y-29504D02*
X61723Y-29448D01*
X61723Y-29354D01*
X61699Y-29316D01*
X61674Y-29298D01*
X61626Y-29279D01*
X61577Y-29279D01*
X61528Y-29298D01*
X61504Y-29316D01*
X61479Y-29354D01*
X61455Y-29429D01*
X61431Y-29466D01*
X61406Y-29485D01*
X61358Y-29504D01*
X61309Y-29504D01*
X61260Y-29485D01*
X61236Y-29466D01*
X61211Y-29429D01*
X61211Y-29335D01*
X61236Y-29279D01*
X61455Y-29110D02*
X61455Y-28979D01*
X61723Y-28923D02*
X61723Y-29110D01*
X61211Y-29110D01*
X61211Y-28923D01*
X61723Y-28754D02*
X61211Y-28754D01*
X61723Y-28529D01*
X61211Y-28529D01*
X61699Y-28360D02*
X61723Y-28304D01*
X61723Y-28210D01*
X61699Y-28172D01*
X61674Y-28154D01*
X61626Y-28135D01*
X61577Y-28135D01*
X61528Y-28154D01*
X61504Y-28172D01*
X61479Y-28210D01*
X61455Y-28285D01*
X61431Y-28322D01*
X61406Y-28341D01*
X61358Y-28360D01*
X61309Y-28360D01*
X61260Y-28341D01*
X61236Y-28322D01*
X61211Y-28285D01*
X61211Y-28191D01*
X61236Y-28135D01*
X61455Y-27966D02*
X61455Y-27835D01*
X61723Y-27779D02*
X61723Y-27966D01*
X61211Y-27966D01*
X61211Y-27779D01*
X61252Y-30882D02*
X61227Y-30863D01*
X61202Y-30826D01*
X61202Y-30732D01*
X61227Y-30694D01*
X61252Y-30676D01*
X61302Y-30657D01*
X61353Y-30657D01*
X61428Y-30676D01*
X61730Y-30901D01*
X61730Y-30657D01*
X61252Y-30507D02*
X61227Y-30488D01*
X61202Y-30451D01*
X61202Y-30357D01*
X61227Y-30319D01*
X61252Y-30301D01*
X61302Y-30282D01*
X61353Y-30282D01*
X61428Y-30301D01*
X61730Y-30526D01*
X61730Y-30282D01*
X61202Y-30169D02*
X61730Y-30038D01*
X61202Y-29907D01*
X61236Y-32682D02*
X61211Y-32719D01*
X61211Y-32776D01*
X61236Y-32832D01*
X61284Y-32869D01*
X61333Y-32888D01*
X61431Y-32907D01*
X61504Y-32907D01*
X61601Y-32888D01*
X61650Y-32869D01*
X61699Y-32832D01*
X61723Y-32776D01*
X61723Y-32738D01*
X61699Y-32682D01*
X61674Y-32663D01*
X61504Y-32663D01*
X61504Y-32738D01*
X61723Y-32494D02*
X61211Y-32494D01*
X61723Y-32269D01*
X61211Y-32269D01*
X61723Y-32081D02*
X61211Y-32081D01*
X61211Y-31987D01*
X61236Y-31931D01*
X61284Y-31894D01*
X61333Y-31875D01*
X61431Y-31856D01*
X61504Y-31856D01*
X61601Y-31875D01*
X61650Y-31894D01*
X61699Y-31931D01*
X61723Y-31987D01*
X61723Y-32081D01*
X61202Y-34838D02*
X61202Y-34594D01*
X61403Y-34725D01*
X61403Y-34669D01*
X61428Y-34631D01*
X61453Y-34613D01*
X61503Y-34594D01*
X61629Y-34594D01*
X61679Y-34613D01*
X61705Y-34631D01*
X61730Y-34669D01*
X61730Y-34781D01*
X61705Y-34819D01*
X61679Y-34838D01*
X61202Y-34481D02*
X61730Y-34350D01*
X61202Y-34219D01*
X61202Y-34125D02*
X61202Y-33881D01*
X61403Y-34012D01*
X61403Y-33956D01*
X61428Y-33918D01*
X61453Y-33900D01*
X61503Y-33881D01*
X61629Y-33881D01*
X61679Y-33900D01*
X61705Y-33918D01*
X61730Y-33956D01*
X61730Y-34068D01*
X61705Y-34106D01*
X61679Y-34125D01*
X61227Y-36619D02*
X61202Y-36656D01*
X61202Y-36713D01*
X61227Y-36769D01*
X61277Y-36806D01*
X61327Y-36825D01*
X61428Y-36844D01*
X61503Y-36844D01*
X61604Y-36825D01*
X61654Y-36806D01*
X61705Y-36769D01*
X61730Y-36713D01*
X61730Y-36675D01*
X61705Y-36619D01*
X61679Y-36600D01*
X61503Y-36600D01*
X61503Y-36675D01*
X61730Y-36431D02*
X61202Y-36431D01*
X61730Y-36206D01*
X61202Y-36206D01*
X61730Y-36018D02*
X61202Y-36018D01*
X61202Y-35924D01*
X61227Y-35868D01*
X61277Y-35831D01*
X61327Y-35812D01*
X61428Y-35793D01*
X61503Y-35793D01*
X61604Y-35812D01*
X61654Y-35831D01*
X61705Y-35868D01*
X61730Y-35924D01*
X61730Y-36018D01*
G54D12*
X59744Y-24311D02*
X59744Y-25000D01*
X57185Y-32677D02*
X57185Y-33268D01*
X39468Y-31398D02*
X39961Y-31398D01*
G54D11*
X43860Y-35954D02*
X43860Y-35154D01*
X44574Y-35116D02*
X44060Y-36144D01*
X44775Y-35954D02*
X44775Y-35154D01*
X45003Y-35154D01*
X45061Y-35192D01*
X45089Y-35230D01*
X45118Y-35306D01*
X45118Y-35420D01*
X45089Y-35497D01*
X45061Y-35535D01*
X45003Y-35573D01*
X44775Y-35573D01*
X45375Y-35878D02*
X45403Y-35916D01*
X45375Y-35954D01*
X45346Y-35916D01*
X45375Y-35878D01*
X45375Y-35954D01*
X45375Y-35459D02*
X45403Y-35497D01*
X45375Y-35535D01*
X45346Y-35497D01*
X45375Y-35459D01*
X45375Y-35535D01*
X46089Y-35230D02*
X46118Y-35192D01*
X46175Y-35154D01*
X46318Y-35154D01*
X46375Y-35192D01*
X46404Y-35230D01*
X46432Y-35306D01*
X46432Y-35382D01*
X46404Y-35497D01*
X46061Y-35954D01*
X46432Y-35954D01*
X46660Y-35230D02*
X46689Y-35192D01*
X46746Y-35154D01*
X46889Y-35154D01*
X46946Y-35192D01*
X46975Y-35230D01*
X47003Y-35306D01*
X47003Y-35382D01*
X46975Y-35497D01*
X46632Y-35954D01*
X47003Y-35954D01*
X47174Y-35154D02*
X47374Y-35954D01*
X47574Y-35154D01*
X47745Y-35725D02*
X48031Y-35725D01*
X47688Y-35954D02*
X47888Y-35154D01*
X48088Y-35954D01*
X48631Y-35878D02*
X48602Y-35916D01*
X48516Y-35954D01*
X48459Y-35954D01*
X48374Y-35916D01*
X48316Y-35840D01*
X48288Y-35763D01*
X48259Y-35611D01*
X48259Y-35497D01*
X48288Y-35344D01*
X48316Y-35268D01*
X48374Y-35192D01*
X48459Y-35154D01*
X48516Y-35154D01*
X48602Y-35192D01*
X48631Y-35230D01*
X48888Y-35954D02*
X48888Y-35420D01*
X48888Y-35573D02*
X48916Y-35497D01*
X48945Y-35459D01*
X49002Y-35420D01*
X49059Y-35420D01*
X49259Y-35954D02*
X49259Y-35420D01*
X49259Y-35497D02*
X49287Y-35459D01*
X49345Y-35420D01*
X49430Y-35420D01*
X49487Y-35459D01*
X49516Y-35535D01*
X49516Y-35954D01*
X49516Y-35535D02*
X49545Y-35459D01*
X49602Y-35420D01*
X49687Y-35420D01*
X49745Y-35459D01*
X49773Y-35535D01*
X49773Y-35954D01*
X50030Y-35916D02*
X50087Y-35954D01*
X50202Y-35954D01*
X50259Y-35916D01*
X50287Y-35840D01*
X50287Y-35801D01*
X50259Y-35725D01*
X50202Y-35687D01*
X50116Y-35687D01*
X50059Y-35649D01*
X50030Y-35573D01*
X50030Y-35535D01*
X50059Y-35459D01*
X50116Y-35420D01*
X50202Y-35420D01*
X50259Y-35459D01*
X51288Y-35154D02*
X51002Y-35154D01*
X50973Y-35535D01*
X51002Y-35497D01*
X51059Y-35459D01*
X51202Y-35459D01*
X51259Y-35497D01*
X51288Y-35535D01*
X51316Y-35611D01*
X51316Y-35801D01*
X51288Y-35878D01*
X51259Y-35916D01*
X51202Y-35954D01*
X51059Y-35954D01*
X51002Y-35916D01*
X50973Y-35878D01*
X51687Y-35154D02*
X51744Y-35154D01*
X51801Y-35192D01*
X51830Y-35230D01*
X51859Y-35306D01*
X51887Y-35459D01*
X51887Y-35649D01*
X51859Y-35801D01*
X51830Y-35878D01*
X51801Y-35916D01*
X51744Y-35954D01*
X51687Y-35954D01*
X51630Y-35916D01*
X51601Y-35878D01*
X51573Y-35801D01*
X51544Y-35649D01*
X51544Y-35459D01*
X51573Y-35306D01*
X51601Y-35230D01*
X51630Y-35192D01*
X51687Y-35154D01*
X52144Y-35954D02*
X52144Y-35154D01*
X52144Y-35535D02*
X52487Y-35535D01*
X52487Y-35954D02*
X52487Y-35154D01*
X52716Y-35420D02*
X53030Y-35420D01*
X52716Y-35954D01*
X53030Y-35954D01*
X53687Y-35230D02*
X53716Y-35192D01*
X53773Y-35154D01*
X53916Y-35154D01*
X53973Y-35192D01*
X54002Y-35230D01*
X54030Y-35306D01*
X54030Y-35382D01*
X54002Y-35497D01*
X53659Y-35954D01*
X54030Y-35954D01*
X54258Y-35725D02*
X54544Y-35725D01*
X54201Y-35954D02*
X54401Y-35154D01*
X54601Y-35954D01*
X43946Y-36394D02*
X44060Y-36394D01*
X44118Y-36432D01*
X44175Y-36508D01*
X44203Y-36660D01*
X44203Y-36927D01*
X44175Y-37080D01*
X44118Y-37156D01*
X44060Y-37194D01*
X43946Y-37194D01*
X43889Y-37156D01*
X43832Y-37080D01*
X43803Y-36927D01*
X43803Y-36660D01*
X43832Y-36508D01*
X43889Y-36432D01*
X43946Y-36394D01*
X44889Y-36356D02*
X44375Y-37384D01*
X45090Y-37194D02*
X45090Y-36394D01*
X45318Y-36394D01*
X45376Y-36432D01*
X45404Y-36470D01*
X45433Y-36546D01*
X45433Y-36660D01*
X45404Y-36737D01*
X45376Y-36775D01*
X45318Y-36813D01*
X45090Y-36813D01*
X45690Y-37118D02*
X45718Y-37156D01*
X45690Y-37194D01*
X45661Y-37156D01*
X45690Y-37118D01*
X45690Y-37194D01*
X45690Y-36699D02*
X45718Y-36737D01*
X45690Y-36775D01*
X45661Y-36737D01*
X45690Y-36699D01*
X45690Y-36775D01*
X46404Y-36470D02*
X46433Y-36432D01*
X46490Y-36394D01*
X46633Y-36394D01*
X46690Y-36432D01*
X46719Y-36470D01*
X46747Y-36546D01*
X46747Y-36622D01*
X46719Y-36737D01*
X46376Y-37194D01*
X46747Y-37194D01*
X46975Y-36470D02*
X47004Y-36432D01*
X47061Y-36394D01*
X47204Y-36394D01*
X47261Y-36432D01*
X47290Y-36470D01*
X47318Y-36546D01*
X47318Y-36622D01*
X47290Y-36737D01*
X46947Y-37194D01*
X47318Y-37194D01*
X47489Y-36394D02*
X47689Y-37194D01*
X47889Y-36394D01*
X48089Y-37194D02*
X48089Y-36394D01*
X48232Y-36394D01*
X48317Y-36432D01*
X48375Y-36508D01*
X48403Y-36584D01*
X48432Y-36737D01*
X48432Y-36851D01*
X48403Y-37003D01*
X48375Y-37080D01*
X48317Y-37156D01*
X48232Y-37194D01*
X48089Y-37194D01*
X49032Y-37118D02*
X49003Y-37156D01*
X48917Y-37194D01*
X48860Y-37194D01*
X48775Y-37156D01*
X48717Y-37080D01*
X48689Y-37003D01*
X48660Y-36851D01*
X48660Y-36737D01*
X48689Y-36584D01*
X48717Y-36508D01*
X48775Y-36432D01*
X48860Y-36394D01*
X48917Y-36394D01*
X49003Y-36432D01*
X49032Y-36470D01*
X49717Y-36470D02*
X49746Y-36432D01*
X49803Y-36394D01*
X49946Y-36394D01*
X50003Y-36432D01*
X50032Y-36470D01*
X50060Y-36546D01*
X50060Y-36622D01*
X50032Y-36737D01*
X49689Y-37194D01*
X50060Y-37194D01*
X50288Y-36965D02*
X50574Y-36965D01*
X50231Y-37194D02*
X50431Y-36394D01*
X50631Y-37194D01*
X50859Y-37156D02*
X50859Y-37194D01*
X50831Y-37270D01*
X50802Y-37308D01*
X51517Y-36394D02*
X51888Y-36394D01*
X51688Y-36699D01*
X51774Y-36699D01*
X51831Y-36737D01*
X51860Y-36775D01*
X51888Y-36851D01*
X51888Y-37041D01*
X51860Y-37118D01*
X51831Y-37156D01*
X51774Y-37194D01*
X51602Y-37194D01*
X51545Y-37156D01*
X51517Y-37118D01*
X52145Y-37118D02*
X52173Y-37156D01*
X52145Y-37194D01*
X52116Y-37156D01*
X52145Y-37118D01*
X52145Y-37194D01*
X52374Y-36394D02*
X52745Y-36394D01*
X52545Y-36699D01*
X52631Y-36699D01*
X52688Y-36737D01*
X52717Y-36775D01*
X52745Y-36851D01*
X52745Y-37041D01*
X52717Y-37118D01*
X52688Y-37156D01*
X52631Y-37194D01*
X52459Y-37194D01*
X52402Y-37156D01*
X52374Y-37118D01*
X52916Y-36394D02*
X53116Y-37194D01*
X53316Y-36394D01*
X53516Y-37194D02*
X53516Y-36394D01*
X53659Y-36394D01*
X53744Y-36432D01*
X53802Y-36508D01*
X53830Y-36584D01*
X53859Y-36737D01*
X53859Y-36851D01*
X53830Y-37003D01*
X53802Y-37080D01*
X53744Y-37156D01*
X53659Y-37194D01*
X53516Y-37194D01*
X54459Y-37118D02*
X54430Y-37156D01*
X54344Y-37194D01*
X54287Y-37194D01*
X54202Y-37156D01*
X54144Y-37080D01*
X54116Y-37003D01*
X54087Y-36851D01*
X54087Y-36737D01*
X54116Y-36584D01*
X54144Y-36508D01*
X54202Y-36432D01*
X54287Y-36394D01*
X54344Y-36394D01*
X54430Y-36432D01*
X54459Y-36470D01*
X55487Y-37194D02*
X55144Y-37194D01*
X55316Y-37194D02*
X55316Y-36394D01*
X55259Y-36508D01*
X55201Y-36584D01*
X55144Y-36622D01*
X55744Y-37118D02*
X55772Y-37156D01*
X55744Y-37194D01*
X55715Y-37156D01*
X55744Y-37118D01*
X55744Y-37194D01*
X56316Y-36394D02*
X56030Y-36394D01*
X56001Y-36775D01*
X56030Y-36737D01*
X56087Y-36699D01*
X56230Y-36699D01*
X56287Y-36737D01*
X56316Y-36775D01*
X56344Y-36851D01*
X56344Y-37041D01*
X56316Y-37118D01*
X56287Y-37156D01*
X56230Y-37194D01*
X56087Y-37194D01*
X56030Y-37156D01*
X56001Y-37118D01*
X56572Y-36965D02*
X56858Y-36965D01*
X56515Y-37194D02*
X56715Y-36394D01*
X56915Y-37194D01*
G54D12*
X46298Y-29385D02*
X54148Y-29385D01*
X54148Y-29385D02*
X54148Y-34735D01*
X54148Y-34735D02*
X46298Y-34735D01*
X46298Y-34735D02*
X46298Y-29385D01*
X46267Y-29048D02*
X46267Y-22448D01*
X46267Y-22448D02*
X56617Y-22448D01*
X56617Y-22448D02*
X56617Y-29048D01*
X56617Y-29048D02*
X46267Y-29048D01*
X58543Y-32087D02*
X58504Y-32484D01*
X58388Y-32867D01*
X58200Y-33219D01*
X57948Y-33529D01*
X57640Y-33784D01*
X57289Y-33974D01*
X56907Y-34092D01*
X56510Y-34133D01*
X56113Y-34097D01*
X55730Y-33984D01*
X55376Y-33799D01*
X55064Y-33549D01*
X54807Y-33243D01*
X54615Y-32893D01*
X54494Y-32512D01*
X54450Y-32115D01*
X54483Y-31718D01*
X54593Y-31334D01*
X54776Y-30979D01*
X55024Y-30666D01*
X55328Y-30407D01*
X55677Y-30212D01*
X56057Y-30088D01*
X56454Y-30041D01*
X56851Y-30072D01*
X57236Y-30179D01*
X57592Y-30359D01*
X57907Y-30605D01*
X58168Y-30908D01*
X58366Y-31255D01*
X58492Y-31634D01*
X58542Y-32030D01*
X58543Y-32087D01*
X61004Y-25689D02*
X60965Y-26086D01*
X60849Y-26469D01*
X60661Y-26821D01*
X60409Y-27131D01*
X60101Y-27386D01*
X59750Y-27576D01*
X59368Y-27694D01*
X58971Y-27735D01*
X58574Y-27699D01*
X58191Y-27586D01*
X57837Y-27401D01*
X57525Y-27151D01*
X57268Y-26845D01*
X57076Y-26495D01*
X56955Y-26114D01*
X56911Y-25717D01*
X56944Y-25320D01*
X57054Y-24936D01*
X57237Y-24581D01*
X57485Y-24268D01*
X57789Y-24009D01*
X58138Y-23814D01*
X58518Y-23690D01*
X58915Y-23643D01*
X59312Y-23674D01*
X59697Y-23781D01*
X60053Y-23961D01*
X60368Y-24207D01*
X60629Y-24510D01*
X60827Y-24857D01*
X60953Y-25236D01*
X61003Y-25632D01*
X61004Y-25689D01*
X42795Y-32185D02*
X42756Y-32582D01*
X42640Y-32965D01*
X42452Y-33317D01*
X42200Y-33627D01*
X41892Y-33882D01*
X41541Y-34072D01*
X41159Y-34190D01*
X40762Y-34231D01*
X40365Y-34195D01*
X39982Y-34082D01*
X39628Y-33897D01*
X39316Y-33647D01*
X39059Y-33341D01*
X38867Y-32991D01*
X38746Y-32610D01*
X38702Y-32213D01*
X38735Y-31816D01*
X38845Y-31432D01*
X39028Y-31077D01*
X39276Y-30764D01*
X39580Y-30505D01*
X39929Y-30310D01*
X40309Y-30186D01*
X40706Y-30139D01*
X41103Y-30170D01*
X41488Y-30277D01*
X41844Y-30457D01*
X42159Y-30703D01*
X42420Y-31006D01*
X42618Y-31353D01*
X42744Y-31732D01*
X42794Y-32128D01*
X42795Y-32185D01*
X63878Y-25296D02*
X65847Y-25296D01*
X65847Y-25296D02*
X65847Y-37501D01*
X65847Y-37501D02*
X61909Y-37501D01*
X61909Y-37501D02*
X61909Y-25296D01*
X61909Y-25296D02*
X63878Y-25296D01*
G54D14*
X58149Y-29508D02*
X58149Y-28563D01*
X58149Y-28563D02*
X57913Y-28563D01*
X57913Y-28563D02*
X57913Y-28327D01*
X57913Y-28327D02*
X57460Y-28327D01*
X57460Y-28327D02*
X57441Y-28327D01*
X57441Y-28327D02*
X57441Y-28563D01*
X57441Y-28563D02*
X57205Y-28563D01*
X57205Y-28563D02*
X57205Y-29508D01*
X57205Y-29508D02*
X58149Y-29508D01*
G54D12*
X35237Y-33661D02*
X31693Y-33661D01*
X31693Y-33661D02*
X31693Y-37599D01*
X31693Y-37599D02*
X35237Y-37599D01*
X35237Y-37599D02*
X35237Y-33661D01*
X43504Y-23622D02*
X43481Y-23851D01*
X43414Y-24072D01*
X43306Y-24275D01*
X43161Y-24454D01*
X42983Y-24601D01*
X42780Y-24710D01*
X42560Y-24778D01*
X42331Y-24802D01*
X42102Y-24782D01*
X41881Y-24717D01*
X41677Y-24610D01*
X41497Y-24465D01*
X41349Y-24289D01*
X41238Y-24087D01*
X41168Y-23867D01*
X41143Y-23638D01*
X41162Y-23409D01*
X41225Y-23188D01*
X41331Y-22983D01*
X41474Y-22802D01*
X41649Y-22653D01*
X41851Y-22540D01*
X42070Y-22469D01*
X42299Y-22442D01*
X42528Y-22459D01*
X42750Y-22521D01*
X42955Y-22625D01*
X43137Y-22767D01*
X43288Y-22942D01*
X43401Y-23142D01*
X43474Y-23361D01*
X43503Y-23590D01*
X43504Y-23622D01*
X65157Y-23622D02*
X65134Y-23851D01*
X65067Y-24072D01*
X64959Y-24275D01*
X64814Y-24454D01*
X64636Y-24601D01*
X64433Y-24710D01*
X64213Y-24778D01*
X63984Y-24802D01*
X63755Y-24782D01*
X63534Y-24717D01*
X63330Y-24610D01*
X63150Y-24465D01*
X63002Y-24289D01*
X62891Y-24087D01*
X62821Y-23867D01*
X62796Y-23638D01*
X62815Y-23409D01*
X62878Y-23188D01*
X62984Y-22983D01*
X63127Y-22802D01*
X63302Y-22653D01*
X63504Y-22540D01*
X63723Y-22469D01*
X63952Y-22442D01*
X64181Y-22459D01*
X64403Y-22521D01*
X64608Y-22625D01*
X64790Y-22767D01*
X64941Y-22942D01*
X65054Y-23142D01*
X65127Y-23361D01*
X65156Y-23590D01*
X65157Y-23622D01*
X35630Y-22048D02*
X35630Y-28347D01*
X35630Y-28347D02*
X31692Y-28347D01*
X31692Y-28347D02*
X31692Y-22048D01*
X31692Y-22048D02*
X35630Y-22048D01*
X59252Y-36220D02*
X59229Y-36449D01*
X59162Y-36670D01*
X59054Y-36873D01*
X58909Y-37052D01*
X58731Y-37199D01*
X58528Y-37308D01*
X58308Y-37376D01*
X58079Y-37400D01*
X57850Y-37380D01*
X57629Y-37315D01*
X57425Y-37208D01*
X57245Y-37063D01*
X57097Y-36887D01*
X56986Y-36685D01*
X56916Y-36465D01*
X56891Y-36236D01*
X56910Y-36007D01*
X56973Y-35786D01*
X57079Y-35581D01*
X57222Y-35400D01*
X57397Y-35251D01*
X57599Y-35138D01*
X57818Y-35067D01*
X58047Y-35040D01*
X58276Y-35057D01*
X58498Y-35119D01*
X58703Y-35223D01*
X58885Y-35365D01*
X59036Y-35540D01*
X59149Y-35740D01*
X59222Y-35959D01*
X59251Y-36188D01*
X59252Y-36220D01*
X43504Y-36220D02*
X43481Y-36449D01*
X43414Y-36670D01*
X43306Y-36873D01*
X43161Y-37052D01*
X42983Y-37199D01*
X42780Y-37308D01*
X42560Y-37376D01*
X42331Y-37400D01*
X42102Y-37380D01*
X41881Y-37315D01*
X41677Y-37208D01*
X41497Y-37063D01*
X41349Y-36887D01*
X41238Y-36685D01*
X41168Y-36465D01*
X41143Y-36236D01*
X41162Y-36007D01*
X41225Y-35786D01*
X41331Y-35581D01*
X41474Y-35400D01*
X41649Y-35251D01*
X41851Y-35138D01*
X42070Y-35067D01*
X42299Y-35040D01*
X42528Y-35057D01*
X42750Y-35119D01*
X42955Y-35223D01*
X43137Y-35365D01*
X43288Y-35540D01*
X43401Y-35740D01*
X43474Y-35959D01*
X43503Y-36188D01*
X43504Y-36220D01*
X36103Y-22047D02*
X38307Y-22047D01*
X36103Y-34645D02*
X38307Y-34645D01*
X38307Y-34646D02*
X38307Y-22047D01*
X36103Y-22047D02*
X36103Y-34646D01*
M02*
