G04 (created by PCBNEW-RS274X (2010-03-14)-final) date Tue 10 Jan 2012 23:21:23 GMT*
G01*
G70*
G90*
%MOIN*%
G04 Gerber Fmt 3.4, Leading zero omitted, Abs format*
%FSLAX34Y34*%
G04 APERTURE LIST*
%ADD10C,0.006000*%
%ADD11C,0.105000*%
%ADD12C,0.083000*%
%ADD13C,0.114500*%
%ADD14R,0.075100X0.075100*%
%ADD15R,0.216900X0.075100*%
%ADD16R,0.047600X0.047600*%
%ADD17R,0.051500X0.051500*%
%ADD18O,0.146000X0.079100*%
%ADD19C,0.146000*%
%ADD20C,0.130200*%
G04 APERTURE END LIST*
G54D10*
G54D11*
X47098Y-30185D03*
X47098Y-32685D03*
X47098Y-33935D03*
X53348Y-33935D03*
X53348Y-30185D03*
X47117Y-23248D03*
X47067Y-28248D03*
X50817Y-28248D03*
X52067Y-28248D03*
X53317Y-28248D03*
X55817Y-28248D03*
X55817Y-23248D03*
G54D12*
X56496Y-31103D03*
X56496Y-33072D03*
X58957Y-26673D03*
X58957Y-24704D03*
X41732Y-32185D03*
X39763Y-32185D03*
G54D13*
X63878Y-26477D03*
X63878Y-28446D03*
X63878Y-30414D03*
X63878Y-32383D03*
X63878Y-34351D03*
X63878Y-36320D03*
G54D14*
X54704Y-34547D03*
X55728Y-34547D03*
X55728Y-29626D03*
X54704Y-29626D03*
G54D15*
X60039Y-32126D03*
X60039Y-34449D03*
X44488Y-33032D03*
X44488Y-30709D03*
X60039Y-28582D03*
X60039Y-30905D03*
X44488Y-29193D03*
X44488Y-26870D03*
X42224Y-29193D03*
X42224Y-26870D03*
X39961Y-29193D03*
X39961Y-26870D03*
G54D16*
X57421Y-29291D03*
X57933Y-29291D03*
G54D17*
X57677Y-28563D03*
G54D18*
X33465Y-36615D03*
X33465Y-34646D03*
G54D19*
X42323Y-23622D03*
X63976Y-23622D03*
G54D18*
X33661Y-23229D03*
X33661Y-25198D03*
X33661Y-27166D03*
G54D19*
X58071Y-36220D03*
X42323Y-36220D03*
G54D20*
X37205Y-33267D03*
X37205Y-29330D03*
X37205Y-26377D03*
X37205Y-23424D03*
M02*
