M48
INCH,TZ
T1C0.032
T2C0.039
T3C0.047
T4C0.055
T5C0.126
%
G05
T1
X039763Y-032185
X041732Y-032185
X056496Y-031103
X056496Y-033072
X058957Y-024704
X058957Y-026673
T2
X039961Y-025787
X042224Y-025787
X043110Y-030709
X044488Y-025787
X056496Y-029626
X056594Y-034547
X058169Y-029921
X060039Y-030020
X060039Y-035531
T3
X033465Y-034646
X033465Y-036615
X033661Y-023229
X033661Y-025198
X033661Y-027166
X063878Y-026477
X063878Y-028446
X063878Y-030414
X063878Y-032383
X063878Y-034351
X063878Y-036320
T4
X037205Y-023424
X037205Y-026377
X037205Y-029330
X037205Y-033267
T5
X042323Y-023622
X042323Y-036220
X058071Y-036220
X063976Y-023622
T0
M30
