G04 (created by PCBNEW-RS274X (2010-03-14)-final) date Tue 10 Jan 2012 23:21:23 GMT*
G01*
G70*
G90*
%MOIN*%
G04 Gerber Fmt 3.4, Leading zero omitted, Abs format*
%FSLAX34Y34*%
G04 APERTURE LIST*
%ADD10C,0.006000*%
%ADD11C,0.085000*%
%ADD12C,0.063000*%
%ADD13C,0.094500*%
%ADD14R,0.055100X0.055100*%
%ADD15R,0.196900X0.055100*%
%ADD16R,0.027600X0.027600*%
%ADD17R,0.031500X0.031500*%
%ADD18O,0.126000X0.059100*%
%ADD19C,0.126000*%
%ADD20C,0.110200*%
%ADD21C,0.059100*%
%ADD22C,0.078700*%
%ADD23C,0.039400*%
%ADD24C,0.118100*%
%ADD25C,0.019700*%
G04 APERTURE END LIST*
G54D10*
G54D11*
X47098Y-30185D03*
X47098Y-32685D03*
X47098Y-33935D03*
X53348Y-33935D03*
X53348Y-30185D03*
X47117Y-23248D03*
X47067Y-28248D03*
X50817Y-28248D03*
X52067Y-28248D03*
X53317Y-28248D03*
X55817Y-28248D03*
X55817Y-23248D03*
G54D12*
X56496Y-31103D03*
X56496Y-33072D03*
X58957Y-26673D03*
X58957Y-24704D03*
X41732Y-32185D03*
X39763Y-32185D03*
G54D13*
X63878Y-26477D03*
X63878Y-28446D03*
X63878Y-30414D03*
X63878Y-32383D03*
X63878Y-34351D03*
X63878Y-36320D03*
G54D14*
X54704Y-34547D03*
X55728Y-34547D03*
X55728Y-29626D03*
X54704Y-29626D03*
G54D15*
X60039Y-32126D03*
X60039Y-34449D03*
X44488Y-33032D03*
X44488Y-30709D03*
X60039Y-28582D03*
X60039Y-30905D03*
X44488Y-29193D03*
X44488Y-26870D03*
X42224Y-29193D03*
X42224Y-26870D03*
X39961Y-29193D03*
X39961Y-26870D03*
G54D16*
X57421Y-29291D03*
X57933Y-29291D03*
G54D17*
X57677Y-28563D03*
G54D18*
X33465Y-36615D03*
X33465Y-34646D03*
G54D19*
X42323Y-23622D03*
X63976Y-23622D03*
G54D18*
X33661Y-23229D03*
X33661Y-25198D03*
X33661Y-27166D03*
G54D19*
X58071Y-36220D03*
X42323Y-36220D03*
G54D20*
X37205Y-33267D03*
X37205Y-29330D03*
X37205Y-26377D03*
X37205Y-23424D03*
G54D21*
X60039Y-30118D03*
X60039Y-35335D03*
X39961Y-25787D03*
X42224Y-25787D03*
X56594Y-34547D03*
X58169Y-29921D03*
X56496Y-29626D03*
X43110Y-30709D03*
X44488Y-25787D03*
G54D22*
X60039Y-30610D02*
X60039Y-30118D01*
G54D23*
X60039Y-30905D02*
X60039Y-30610D01*
X60039Y-30610D02*
X60039Y-30709D01*
X60039Y-30709D02*
X60039Y-30905D01*
G54D22*
X60039Y-35335D02*
X60039Y-34744D01*
G54D23*
X60039Y-34744D02*
X60039Y-34449D01*
X39961Y-26279D02*
X39961Y-26870D01*
X42224Y-26378D02*
X42224Y-26870D01*
G54D24*
X39961Y-25787D02*
X39961Y-26279D01*
X39961Y-26279D02*
X39961Y-26476D01*
X42224Y-25787D02*
X42224Y-26378D01*
X42224Y-26378D02*
X42224Y-26476D01*
G54D22*
X55728Y-34547D02*
X56594Y-34547D01*
G54D25*
X57933Y-29291D02*
X57933Y-29685D01*
X57933Y-29685D02*
X58169Y-29921D01*
X55728Y-29626D02*
X56496Y-29626D01*
G54D24*
X55817Y-23248D02*
X57500Y-23248D01*
X58957Y-24705D02*
X58957Y-24704D01*
X57500Y-23248D02*
X58957Y-24705D01*
X44488Y-30709D02*
X43110Y-30709D01*
X44488Y-26870D02*
X46260Y-26870D01*
X47146Y-23228D02*
X47117Y-23248D01*
X47146Y-25984D02*
X47146Y-23228D01*
X46260Y-26870D02*
X47146Y-25984D01*
X44488Y-30709D02*
X46555Y-30709D01*
X47146Y-30118D02*
X47098Y-30185D01*
X46555Y-30709D02*
X47146Y-30118D01*
X44488Y-26870D02*
X44488Y-25787D01*
G54D23*
X39961Y-29193D02*
X39961Y-29332D01*
X40157Y-29528D02*
X40157Y-29527D01*
X39961Y-29332D02*
X40157Y-29528D01*
G54D24*
X41240Y-30216D02*
X40846Y-30216D01*
X40846Y-30216D02*
X40157Y-29527D01*
X40157Y-29527D02*
X40256Y-29626D01*
G54D23*
X44488Y-29193D02*
X42283Y-29193D01*
X42224Y-29134D02*
X42224Y-29193D01*
X42283Y-29193D02*
X42224Y-29134D01*
X47067Y-28248D02*
X47047Y-28248D01*
X42323Y-29232D02*
X42224Y-29193D01*
X46063Y-29232D02*
X42323Y-29232D01*
X47047Y-28248D02*
X46063Y-29232D01*
G54D24*
X41732Y-32185D02*
X41732Y-32184D01*
X41142Y-31594D02*
X41142Y-30216D01*
X41732Y-32184D02*
X41142Y-31594D01*
X41732Y-32185D02*
X41732Y-32973D01*
X40552Y-34153D02*
X37205Y-34153D01*
X41732Y-32973D02*
X40552Y-34153D01*
X33465Y-36615D02*
X35826Y-36615D01*
X37205Y-35236D02*
X37205Y-34153D01*
X35826Y-36615D02*
X37205Y-35236D01*
X37205Y-34153D02*
X37205Y-33267D01*
X47067Y-28248D02*
X46949Y-28248D01*
X46063Y-29134D02*
X44587Y-29134D01*
X46949Y-28248D02*
X46063Y-29134D01*
X42224Y-29193D02*
X44449Y-29193D01*
X47098Y-32685D02*
X44775Y-32685D01*
X44775Y-32685D02*
X44488Y-32972D01*
X44488Y-32972D02*
X44488Y-33032D01*
X44488Y-33032D02*
X41891Y-33032D01*
X41732Y-32972D02*
X41732Y-32185D01*
X41831Y-32972D02*
X41732Y-32972D01*
X41891Y-33032D02*
X41831Y-32972D01*
X41142Y-30216D02*
X41240Y-30216D01*
X42224Y-29232D02*
X42224Y-29193D01*
X41240Y-30216D02*
X42224Y-29232D01*
X47146Y-32677D02*
X47098Y-32685D01*
G54D22*
X54704Y-34547D02*
X53936Y-34547D01*
X53346Y-33957D02*
X53348Y-33935D01*
X53936Y-34547D02*
X53346Y-33957D01*
G54D25*
X51476Y-27559D02*
X52322Y-27559D01*
X51476Y-27559D02*
X50787Y-28248D01*
X50817Y-28248D02*
X50787Y-28248D01*
X55020Y-29035D02*
X56595Y-29035D01*
X56595Y-29035D02*
X57087Y-28543D01*
X57087Y-28543D02*
X57677Y-28543D01*
X57677Y-28543D02*
X57677Y-28563D01*
X55020Y-29035D02*
X53051Y-29035D01*
X52697Y-28681D02*
X53051Y-29035D01*
X52697Y-27934D02*
X52697Y-28681D01*
X52322Y-27559D02*
X52697Y-27934D01*
X64764Y-31003D02*
X64862Y-30905D01*
X63878Y-26476D02*
X63878Y-26477D01*
X64764Y-27362D02*
X63878Y-26476D01*
X64862Y-27460D02*
X64764Y-27362D01*
X64862Y-30905D02*
X64862Y-27460D01*
X64370Y-31397D02*
X62893Y-31397D01*
X57421Y-29095D02*
X57421Y-29291D01*
X58661Y-28937D02*
X58956Y-29232D01*
X57579Y-28937D02*
X58661Y-28937D01*
X57421Y-29095D02*
X57579Y-28937D01*
X60728Y-29232D02*
X58956Y-29232D01*
X62893Y-31397D02*
X60728Y-29232D01*
X64566Y-31201D02*
X64764Y-31003D01*
X64764Y-31003D02*
X64764Y-31003D01*
X64369Y-31398D02*
X64370Y-31397D01*
X64370Y-31397D02*
X64566Y-31201D01*
G54D24*
X60039Y-32126D02*
X61359Y-32126D01*
X63878Y-34350D02*
X63878Y-34351D01*
X63583Y-34350D02*
X63878Y-34350D01*
X61359Y-32126D02*
X63583Y-34350D01*
X60039Y-32126D02*
X57520Y-32126D01*
G54D22*
X56496Y-31102D02*
X56496Y-31103D01*
G54D24*
X57520Y-32126D02*
X56496Y-31102D01*
X56496Y-31103D02*
X54233Y-31103D01*
X53346Y-30216D02*
X53348Y-30185D01*
X54233Y-31103D02*
X53346Y-30216D01*
G54D23*
X33661Y-25198D02*
X34449Y-25197D01*
G54D22*
X35630Y-25197D02*
X35630Y-25394D01*
X34449Y-25197D02*
X35630Y-25197D01*
G54D24*
X36613Y-26377D02*
X35630Y-25394D01*
X35630Y-25394D02*
X35630Y-25394D01*
X37205Y-26377D02*
X36613Y-26377D01*
G54D23*
X33661Y-27166D02*
X33661Y-27559D01*
G54D24*
X35432Y-29330D02*
X33661Y-27559D01*
X35432Y-29330D02*
X37205Y-29330D01*
G54D25*
X54704Y-29626D02*
X54035Y-29626D01*
X52067Y-28839D02*
X52067Y-28248D01*
X52559Y-29331D02*
X52067Y-28839D01*
X53740Y-29331D02*
X52559Y-29331D01*
X54035Y-29626D02*
X53740Y-29331D01*
X53317Y-28248D02*
X54134Y-28248D01*
X63878Y-28445D02*
X63878Y-28446D01*
X61122Y-25689D02*
X63878Y-28445D01*
X56693Y-25689D02*
X61122Y-25689D01*
X54134Y-28248D02*
X56693Y-25689D01*
X58957Y-26673D02*
X58957Y-27500D01*
X58957Y-27500D02*
X60039Y-28582D01*
G54D24*
X59941Y-28150D02*
X59548Y-28150D01*
X58957Y-27559D02*
X58957Y-26673D01*
X59548Y-28150D02*
X58957Y-27559D01*
X61752Y-28582D02*
X61751Y-28582D01*
X61752Y-28582D02*
X63583Y-30413D01*
X63583Y-30413D02*
X63878Y-30413D01*
X63878Y-30414D02*
X63878Y-30413D01*
X61319Y-28150D02*
X59941Y-28150D01*
X59941Y-28150D02*
X59842Y-28150D01*
X61751Y-28582D02*
X61319Y-28150D01*
X58957Y-26673D02*
X57382Y-26673D01*
X57382Y-26673D02*
X55807Y-28248D01*
X55807Y-28248D02*
X55817Y-28248D01*
M02*
