G04 (created by PCBNEW-RS274X (2010-03-14)-final) date Tue 10 Jan 2012 23:21:23 GMT*
G01*
G70*
G90*
%MOIN*%
G04 Gerber Fmt 3.4, Leading zero omitted, Abs format*
%FSLAX34Y34*%
G04 APERTURE LIST*
%ADD10C,0.006000*%
%ADD11C,0.063000*%
%ADD12C,0.094500*%
%ADD13O,0.126000X0.059100*%
%ADD14C,0.126000*%
%ADD15C,0.110200*%
%ADD16C,0.059100*%
%ADD17C,0.118100*%
%ADD18C,0.039400*%
%ADD19C,0.010000*%
G04 APERTURE END LIST*
G54D10*
G54D11*
X56496Y-31103D03*
X56496Y-33072D03*
X58957Y-26673D03*
X58957Y-24704D03*
X41732Y-32185D03*
X39763Y-32185D03*
G54D12*
X63878Y-26477D03*
X63878Y-28446D03*
X63878Y-30414D03*
X63878Y-32383D03*
X63878Y-34351D03*
X63878Y-36320D03*
G54D13*
X33465Y-36615D03*
X33465Y-34646D03*
G54D14*
X42323Y-23622D03*
X63976Y-23622D03*
G54D13*
X33661Y-23229D03*
X33661Y-25198D03*
X33661Y-27166D03*
G54D14*
X58071Y-36220D03*
X42323Y-36220D03*
G54D15*
X37205Y-33267D03*
X37205Y-29330D03*
X37205Y-26377D03*
X37205Y-23424D03*
G54D16*
X60039Y-30118D03*
X60039Y-35335D03*
X39961Y-25787D03*
X42224Y-25787D03*
X56594Y-34547D03*
X58169Y-29921D03*
X56496Y-29626D03*
X43110Y-30709D03*
X44488Y-25787D03*
G54D17*
X39172Y-23424D02*
X39173Y-23425D01*
X37205Y-23424D02*
X39172Y-23424D01*
G54D18*
X33661Y-23229D02*
X33661Y-22835D01*
G54D17*
X37203Y-23424D02*
X36614Y-22835D01*
X36614Y-22835D02*
X33661Y-22835D01*
X37203Y-23424D02*
X37205Y-23424D01*
G54D19*
X39125Y-22240D02*
X65752Y-22240D01*
X39125Y-22320D02*
X65752Y-22320D01*
X39125Y-22400D02*
X65752Y-22400D01*
X39125Y-22480D02*
X65752Y-22480D01*
X39125Y-22560D02*
X65752Y-22560D01*
X39125Y-22640D02*
X42095Y-22640D01*
X42554Y-22640D02*
X63748Y-22640D01*
X64207Y-22640D02*
X65752Y-22640D01*
X39125Y-22720D02*
X41901Y-22720D01*
X42746Y-22720D02*
X63554Y-22720D01*
X64399Y-22720D02*
X65752Y-22720D01*
X39125Y-22800D02*
X41738Y-22800D01*
X42908Y-22800D02*
X63391Y-22800D01*
X64561Y-22800D02*
X65752Y-22800D01*
X39125Y-22880D02*
X41658Y-22880D01*
X42988Y-22880D02*
X63311Y-22880D01*
X64641Y-22880D02*
X65752Y-22880D01*
X39125Y-22960D02*
X41578Y-22960D01*
X43068Y-22960D02*
X63231Y-22960D01*
X64721Y-22960D02*
X65752Y-22960D01*
X39125Y-23040D02*
X41498Y-23040D01*
X43148Y-23040D02*
X63151Y-23040D01*
X64801Y-23040D02*
X65752Y-23040D01*
X39125Y-23120D02*
X41455Y-23120D01*
X43193Y-23120D02*
X63108Y-23120D01*
X64846Y-23120D02*
X65752Y-23120D01*
X39125Y-23200D02*
X41421Y-23200D01*
X43226Y-23200D02*
X63074Y-23200D01*
X64879Y-23200D02*
X65752Y-23200D01*
X39125Y-23280D02*
X41388Y-23280D01*
X43259Y-23280D02*
X63041Y-23280D01*
X64912Y-23280D02*
X65752Y-23280D01*
X39125Y-23360D02*
X41355Y-23360D01*
X43292Y-23360D02*
X63008Y-23360D01*
X64945Y-23360D02*
X65752Y-23360D01*
X39125Y-23440D02*
X41328Y-23440D01*
X43318Y-23440D02*
X62981Y-23440D01*
X64971Y-23440D02*
X65752Y-23440D01*
X39125Y-23520D02*
X41328Y-23520D01*
X43318Y-23520D02*
X62981Y-23520D01*
X64971Y-23520D02*
X65752Y-23520D01*
X39125Y-23600D02*
X41328Y-23600D01*
X43318Y-23600D02*
X62981Y-23600D01*
X64971Y-23600D02*
X65752Y-23600D01*
X39125Y-23680D02*
X41328Y-23680D01*
X43318Y-23680D02*
X62981Y-23680D01*
X64971Y-23680D02*
X65752Y-23680D01*
X39125Y-23760D02*
X41328Y-23760D01*
X43318Y-23760D02*
X62981Y-23760D01*
X64971Y-23760D02*
X65752Y-23760D01*
X39125Y-23840D02*
X41336Y-23840D01*
X43310Y-23840D02*
X62989Y-23840D01*
X64963Y-23840D02*
X65752Y-23840D01*
X39125Y-23920D02*
X41369Y-23920D01*
X43276Y-23920D02*
X63022Y-23920D01*
X64929Y-23920D02*
X65752Y-23920D01*
X39125Y-24000D02*
X41402Y-24000D01*
X43243Y-24000D02*
X63055Y-24000D01*
X64896Y-24000D02*
X65752Y-24000D01*
X39125Y-24080D02*
X41435Y-24080D01*
X43210Y-24080D02*
X63088Y-24080D01*
X64863Y-24080D02*
X65752Y-24080D01*
X39125Y-24160D02*
X41468Y-24160D01*
X43176Y-24160D02*
X58841Y-24160D01*
X59059Y-24160D02*
X63121Y-24160D01*
X64829Y-24160D02*
X65752Y-24160D01*
X39125Y-24240D02*
X41534Y-24240D01*
X43112Y-24240D02*
X58730Y-24240D01*
X59185Y-24240D02*
X63187Y-24240D01*
X64765Y-24240D02*
X65752Y-24240D01*
X39125Y-24320D02*
X41614Y-24320D01*
X43032Y-24320D02*
X58781Y-24320D01*
X59133Y-24320D02*
X63267Y-24320D01*
X64685Y-24320D02*
X65752Y-24320D01*
X39125Y-24400D02*
X41694Y-24400D01*
X42952Y-24400D02*
X58861Y-24400D01*
X59053Y-24400D02*
X63347Y-24400D01*
X64605Y-24400D02*
X65752Y-24400D01*
X39125Y-24480D02*
X41795Y-24480D01*
X42852Y-24480D02*
X58484Y-24480D01*
X58525Y-24480D02*
X58941Y-24480D01*
X58973Y-24480D02*
X59389Y-24480D01*
X59431Y-24480D02*
X63448Y-24480D01*
X64505Y-24480D02*
X65752Y-24480D01*
X39125Y-24560D02*
X41987Y-24560D01*
X42658Y-24560D02*
X58421Y-24560D01*
X58605Y-24560D02*
X59309Y-24560D01*
X59496Y-24560D02*
X63640Y-24560D01*
X64311Y-24560D02*
X65752Y-24560D01*
X39125Y-24640D02*
X58407Y-24640D01*
X58685Y-24640D02*
X59229Y-24640D01*
X59512Y-24640D02*
X65752Y-24640D01*
X39125Y-24720D02*
X58393Y-24720D01*
X58733Y-24720D02*
X59181Y-24720D01*
X59515Y-24720D02*
X65752Y-24720D01*
X39125Y-24800D02*
X58408Y-24800D01*
X58653Y-24800D02*
X59261Y-24800D01*
X59501Y-24800D02*
X65752Y-24800D01*
X39125Y-24880D02*
X58424Y-24880D01*
X58573Y-24880D02*
X59341Y-24880D01*
X59488Y-24880D02*
X65752Y-24880D01*
X39125Y-24960D02*
X58909Y-24960D01*
X59005Y-24960D02*
X65752Y-24960D01*
X39125Y-25040D02*
X58829Y-25040D01*
X59085Y-25040D02*
X65752Y-25040D01*
X39125Y-25120D02*
X58749Y-25120D01*
X59165Y-25120D02*
X65752Y-25120D01*
X39125Y-25200D02*
X58742Y-25200D01*
X59171Y-25200D02*
X65752Y-25200D01*
X39125Y-25280D02*
X65752Y-25280D01*
X39125Y-25360D02*
X65752Y-25360D01*
X39125Y-25440D02*
X65752Y-25440D01*
X39125Y-25520D02*
X65752Y-25520D01*
X39125Y-25600D02*
X65752Y-25600D01*
X39125Y-25680D02*
X63615Y-25680D01*
X64141Y-25680D02*
X65752Y-25680D01*
X39125Y-25760D02*
X63421Y-25760D01*
X64333Y-25760D02*
X65752Y-25760D01*
X39125Y-25840D02*
X63332Y-25840D01*
X64425Y-25840D02*
X65752Y-25840D01*
X39125Y-25920D02*
X63252Y-25920D01*
X64505Y-25920D02*
X65752Y-25920D01*
X39125Y-26000D02*
X58806Y-26000D01*
X59110Y-26000D02*
X63172Y-26000D01*
X64585Y-26000D02*
X65752Y-26000D01*
X39125Y-26080D02*
X58611Y-26080D01*
X59302Y-26080D02*
X63137Y-26080D01*
X64620Y-26080D02*
X65752Y-26080D01*
X39125Y-26160D02*
X58509Y-26160D01*
X59406Y-26160D02*
X63104Y-26160D01*
X64653Y-26160D02*
X65752Y-26160D01*
X39125Y-26240D02*
X58429Y-26240D01*
X59486Y-26240D02*
X63071Y-26240D01*
X64686Y-26240D02*
X65752Y-26240D01*
X39125Y-26320D02*
X58368Y-26320D01*
X59548Y-26320D02*
X63041Y-26320D01*
X64715Y-26320D02*
X65752Y-26320D01*
X39125Y-26400D02*
X58335Y-26400D01*
X59581Y-26400D02*
X63041Y-26400D01*
X64715Y-26400D02*
X65752Y-26400D01*
X39125Y-26480D02*
X58301Y-26480D01*
X59614Y-26480D02*
X63041Y-26480D01*
X64715Y-26480D02*
X65752Y-26480D01*
X39125Y-26560D02*
X58277Y-26560D01*
X59637Y-26560D02*
X63041Y-26560D01*
X64715Y-26560D02*
X65752Y-26560D01*
X39125Y-26640D02*
X58277Y-26640D01*
X59637Y-26640D02*
X63041Y-26640D01*
X64715Y-26640D02*
X65752Y-26640D01*
X39125Y-26720D02*
X58277Y-26720D01*
X59637Y-26720D02*
X63072Y-26720D01*
X64683Y-26720D02*
X65752Y-26720D01*
X39125Y-26800D02*
X58277Y-26800D01*
X59637Y-26800D02*
X63105Y-26800D01*
X64649Y-26800D02*
X65752Y-26800D01*
X39125Y-26880D02*
X58306Y-26880D01*
X59607Y-26880D02*
X63138Y-26880D01*
X64616Y-26880D02*
X65752Y-26880D01*
X39125Y-26960D02*
X58339Y-26960D01*
X59573Y-26960D02*
X63177Y-26960D01*
X64578Y-26960D02*
X65752Y-26960D01*
X39125Y-27040D02*
X58372Y-27040D01*
X59540Y-27040D02*
X63257Y-27040D01*
X64498Y-27040D02*
X65752Y-27040D01*
X39125Y-27120D02*
X58442Y-27120D01*
X59471Y-27120D02*
X63337Y-27120D01*
X64418Y-27120D02*
X65752Y-27120D01*
X39125Y-27200D02*
X58522Y-27200D01*
X59391Y-27200D02*
X63437Y-27200D01*
X64320Y-27200D02*
X65752Y-27200D01*
X39125Y-27280D02*
X58646Y-27280D01*
X59269Y-27280D02*
X63629Y-27280D01*
X64126Y-27280D02*
X65752Y-27280D01*
X39125Y-27360D02*
X65752Y-27360D01*
X39125Y-27440D02*
X65752Y-27440D01*
X39125Y-27520D02*
X65752Y-27520D01*
X39125Y-27600D02*
X65752Y-27600D01*
X39125Y-27680D02*
X63540Y-27680D01*
X64216Y-27680D02*
X65752Y-27680D01*
X39125Y-27760D02*
X63381Y-27760D01*
X64376Y-27760D02*
X65752Y-27760D01*
X39125Y-27840D02*
X63301Y-27840D01*
X64456Y-27840D02*
X65752Y-27840D01*
X39125Y-27920D02*
X63221Y-27920D01*
X64536Y-27920D02*
X65752Y-27920D01*
X39125Y-28000D02*
X63158Y-28000D01*
X64600Y-28000D02*
X65752Y-28000D01*
X39125Y-28080D02*
X63124Y-28080D01*
X64633Y-28080D02*
X65752Y-28080D01*
X39125Y-28160D02*
X63091Y-28160D01*
X64666Y-28160D02*
X65752Y-28160D01*
X39125Y-28240D02*
X63058Y-28240D01*
X64699Y-28240D02*
X65752Y-28240D01*
X39125Y-28320D02*
X63041Y-28320D01*
X64715Y-28320D02*
X65752Y-28320D01*
X39125Y-28400D02*
X63041Y-28400D01*
X64715Y-28400D02*
X65752Y-28400D01*
X39125Y-28480D02*
X63041Y-28480D01*
X64715Y-28480D02*
X65752Y-28480D01*
X39125Y-28560D02*
X63041Y-28560D01*
X64715Y-28560D02*
X65752Y-28560D01*
X39125Y-28640D02*
X63052Y-28640D01*
X64703Y-28640D02*
X65752Y-28640D01*
X39125Y-28720D02*
X63085Y-28720D01*
X64670Y-28720D02*
X65752Y-28720D01*
X39125Y-28800D02*
X63118Y-28800D01*
X64637Y-28800D02*
X65752Y-28800D01*
X39125Y-28880D02*
X63151Y-28880D01*
X64603Y-28880D02*
X65752Y-28880D01*
X39125Y-28960D02*
X63208Y-28960D01*
X64547Y-28960D02*
X65752Y-28960D01*
X39125Y-29040D02*
X63288Y-29040D01*
X64467Y-29040D02*
X65752Y-29040D01*
X39125Y-29120D02*
X63368Y-29120D01*
X64387Y-29120D02*
X65752Y-29120D01*
X39125Y-29200D02*
X63511Y-29200D01*
X64245Y-29200D02*
X65752Y-29200D01*
X39125Y-29280D02*
X63703Y-29280D01*
X64051Y-29280D02*
X65752Y-29280D01*
X39125Y-29360D02*
X65752Y-29360D01*
X39125Y-29440D02*
X65752Y-29440D01*
X39125Y-29520D02*
X65752Y-29520D01*
X39125Y-29600D02*
X63656Y-29600D01*
X64101Y-29600D02*
X65752Y-29600D01*
X39125Y-29680D02*
X63463Y-29680D01*
X64293Y-29680D02*
X65752Y-29680D01*
X39125Y-29760D02*
X63349Y-29760D01*
X64408Y-29760D02*
X65752Y-29760D01*
X39125Y-29840D02*
X63269Y-29840D01*
X64488Y-29840D02*
X65752Y-29840D01*
X39125Y-29920D02*
X63189Y-29920D01*
X64568Y-29920D02*
X65752Y-29920D01*
X39125Y-30000D02*
X63144Y-30000D01*
X64613Y-30000D02*
X65752Y-30000D01*
X39125Y-30080D02*
X63111Y-30080D01*
X64646Y-30080D02*
X65752Y-30080D01*
X39125Y-30160D02*
X63078Y-30160D01*
X64679Y-30160D02*
X65752Y-30160D01*
X39125Y-30240D02*
X63044Y-30240D01*
X64712Y-30240D02*
X65752Y-30240D01*
X39125Y-30320D02*
X63041Y-30320D01*
X64715Y-30320D02*
X65752Y-30320D01*
X39125Y-30400D02*
X63041Y-30400D01*
X64715Y-30400D02*
X65752Y-30400D01*
X39125Y-30480D02*
X56223Y-30480D01*
X56769Y-30480D02*
X63041Y-30480D01*
X64715Y-30480D02*
X65752Y-30480D01*
X39125Y-30560D02*
X56078Y-30560D01*
X56915Y-30560D02*
X63041Y-30560D01*
X64715Y-30560D02*
X65752Y-30560D01*
X39125Y-30640D02*
X55998Y-30640D01*
X56995Y-30640D02*
X63065Y-30640D01*
X64690Y-30640D02*
X65752Y-30640D01*
X39125Y-30720D02*
X55920Y-30720D01*
X57074Y-30720D02*
X63098Y-30720D01*
X64657Y-30720D02*
X65752Y-30720D01*
X39125Y-30800D02*
X55886Y-30800D01*
X57107Y-30800D02*
X63131Y-30800D01*
X64623Y-30800D02*
X65752Y-30800D01*
X39125Y-30880D02*
X55853Y-30880D01*
X57140Y-30880D02*
X63164Y-30880D01*
X64590Y-30880D02*
X65752Y-30880D01*
X39125Y-30960D02*
X55819Y-30960D01*
X57173Y-30960D02*
X63240Y-30960D01*
X64515Y-30960D02*
X65752Y-30960D01*
X39125Y-31040D02*
X55816Y-31040D01*
X57176Y-31040D02*
X63320Y-31040D01*
X64435Y-31040D02*
X65752Y-31040D01*
X39125Y-31120D02*
X55816Y-31120D01*
X57176Y-31120D02*
X63400Y-31120D01*
X64355Y-31120D02*
X65752Y-31120D01*
X39125Y-31200D02*
X55816Y-31200D01*
X57176Y-31200D02*
X63588Y-31200D01*
X64167Y-31200D02*
X65752Y-31200D01*
X39125Y-31280D02*
X55833Y-31280D01*
X57158Y-31280D02*
X65752Y-31280D01*
X39125Y-31360D02*
X55866Y-31360D01*
X57125Y-31360D02*
X65752Y-31360D01*
X39125Y-31440D02*
X55899Y-31440D01*
X57092Y-31440D02*
X65752Y-31440D01*
X39125Y-31520D02*
X41561Y-31520D01*
X41904Y-31520D02*
X55951Y-31520D01*
X57040Y-31520D02*
X65752Y-31520D01*
X39125Y-31600D02*
X41367Y-31600D01*
X42096Y-31600D02*
X56031Y-31600D01*
X56960Y-31600D02*
X65752Y-31600D01*
X39125Y-31680D02*
X39552Y-31680D01*
X39975Y-31680D02*
X41276Y-31680D01*
X42189Y-31680D02*
X56113Y-31680D01*
X56880Y-31680D02*
X63794Y-31680D01*
X63979Y-31680D02*
X65752Y-31680D01*
X39125Y-31760D02*
X39546Y-31760D01*
X39980Y-31760D02*
X41196Y-31760D01*
X42269Y-31760D02*
X56304Y-31760D01*
X56686Y-31760D02*
X63563Y-31760D01*
X64194Y-31760D02*
X65752Y-31760D01*
X39125Y-31840D02*
X39626Y-31840D01*
X39900Y-31840D02*
X41140Y-31840D01*
X42326Y-31840D02*
X63543Y-31840D01*
X64213Y-31840D02*
X65752Y-31840D01*
X39125Y-31920D02*
X39706Y-31920D01*
X39820Y-31920D02*
X41106Y-31920D01*
X42359Y-31920D02*
X63623Y-31920D01*
X64133Y-31920D02*
X65752Y-31920D01*
X39125Y-32000D02*
X39234Y-32000D01*
X39370Y-32000D02*
X40156Y-32000D01*
X40294Y-32000D02*
X41073Y-32000D01*
X42392Y-32000D02*
X63703Y-32000D01*
X64053Y-32000D02*
X65752Y-32000D01*
X39125Y-32080D02*
X39220Y-32080D01*
X39450Y-32080D02*
X40076Y-32080D01*
X40310Y-32080D02*
X41052Y-32080D01*
X42412Y-32080D02*
X63233Y-32080D01*
X63367Y-32080D02*
X63783Y-32080D01*
X63973Y-32080D02*
X64389Y-32080D01*
X64524Y-32080D02*
X65752Y-32080D01*
X39125Y-32160D02*
X39206Y-32160D01*
X39530Y-32160D02*
X39996Y-32160D01*
X40326Y-32160D02*
X41052Y-32160D01*
X42412Y-32160D02*
X63204Y-32160D01*
X63447Y-32160D02*
X63863Y-32160D01*
X63893Y-32160D02*
X64309Y-32160D01*
X64558Y-32160D02*
X65752Y-32160D01*
X39125Y-32240D02*
X39206Y-32240D01*
X39500Y-32240D02*
X40026Y-32240D01*
X40314Y-32240D02*
X41052Y-32240D01*
X42412Y-32240D02*
X63185Y-32240D01*
X63527Y-32240D02*
X64229Y-32240D01*
X64572Y-32240D02*
X65752Y-32240D01*
X39125Y-32320D02*
X39222Y-32320D01*
X39420Y-32320D02*
X40106Y-32320D01*
X40301Y-32320D02*
X41052Y-32320D01*
X42412Y-32320D02*
X63167Y-32320D01*
X63607Y-32320D02*
X64149Y-32320D01*
X64585Y-32320D02*
X65752Y-32320D01*
X39125Y-32400D02*
X39267Y-32400D01*
X39340Y-32400D02*
X39756Y-32400D01*
X39770Y-32400D02*
X40186Y-32400D01*
X40258Y-32400D02*
X41084Y-32400D01*
X42379Y-32400D02*
X63163Y-32400D01*
X63653Y-32400D02*
X64103Y-32400D01*
X64599Y-32400D02*
X65752Y-32400D01*
X31886Y-32480D02*
X36715Y-32480D01*
X37696Y-32480D02*
X39676Y-32480D01*
X39850Y-32480D02*
X41117Y-32480D01*
X42345Y-32480D02*
X63177Y-32480D01*
X63573Y-32480D02*
X64183Y-32480D01*
X64581Y-32480D02*
X65752Y-32480D01*
X31886Y-32560D02*
X36619Y-32560D01*
X37792Y-32560D02*
X39596Y-32560D01*
X39930Y-32560D02*
X41150Y-32560D01*
X42312Y-32560D02*
X56288Y-32560D01*
X56705Y-32560D02*
X63190Y-32560D01*
X63493Y-32560D02*
X64263Y-32560D01*
X64563Y-32560D02*
X65752Y-32560D01*
X31886Y-32640D02*
X36539Y-32640D01*
X37872Y-32640D02*
X39531Y-32640D01*
X39994Y-32640D02*
X41225Y-32640D01*
X42238Y-32640D02*
X56272Y-32640D01*
X56720Y-32640D02*
X63204Y-32640D01*
X63413Y-32640D02*
X63829Y-32640D01*
X63927Y-32640D02*
X64343Y-32640D01*
X64544Y-32640D02*
X65752Y-32640D01*
X31886Y-32720D02*
X36459Y-32720D01*
X37952Y-32720D02*
X39608Y-32720D01*
X39924Y-32720D02*
X41305Y-32720D01*
X42158Y-32720D02*
X56352Y-32720D01*
X56640Y-32720D02*
X63293Y-32720D01*
X63333Y-32720D02*
X63749Y-32720D01*
X64007Y-32720D02*
X64423Y-32720D01*
X64462Y-32720D02*
X65752Y-32720D01*
X31886Y-32800D02*
X36409Y-32800D01*
X38002Y-32800D02*
X41440Y-32800D01*
X42024Y-32800D02*
X56432Y-32800D01*
X56560Y-32800D02*
X63669Y-32800D01*
X64087Y-32800D02*
X65752Y-32800D01*
X31886Y-32880D02*
X36375Y-32880D01*
X38035Y-32880D02*
X55968Y-32880D01*
X56096Y-32880D02*
X56896Y-32880D01*
X57025Y-32880D02*
X63589Y-32880D01*
X64167Y-32880D02*
X65752Y-32880D01*
X31886Y-32960D02*
X36342Y-32960D01*
X38068Y-32960D02*
X55954Y-32960D01*
X56176Y-32960D02*
X56816Y-32960D01*
X57041Y-32960D02*
X63537Y-32960D01*
X64219Y-32960D02*
X65752Y-32960D01*
X31886Y-33040D02*
X36309Y-33040D01*
X38101Y-33040D02*
X55941Y-33040D01*
X56256Y-33040D02*
X56736Y-33040D01*
X57057Y-33040D02*
X63581Y-33040D01*
X64174Y-33040D02*
X65752Y-33040D01*
X31886Y-33120D02*
X36290Y-33120D01*
X38120Y-33120D02*
X55938Y-33120D01*
X56240Y-33120D02*
X56752Y-33120D01*
X57049Y-33120D02*
X65752Y-33120D01*
X31886Y-33200D02*
X36290Y-33200D01*
X38120Y-33200D02*
X55954Y-33200D01*
X56160Y-33200D02*
X56832Y-33200D01*
X57035Y-33200D02*
X65752Y-33200D01*
X31886Y-33280D02*
X36290Y-33280D01*
X38120Y-33280D02*
X55983Y-33280D01*
X56080Y-33280D02*
X56496Y-33280D01*
X56496Y-33280D02*
X56912Y-33280D01*
X57008Y-33280D02*
X65752Y-33280D01*
X31886Y-33360D02*
X36290Y-33360D01*
X38120Y-33360D02*
X56416Y-33360D01*
X56576Y-33360D02*
X65752Y-33360D01*
X31886Y-33440D02*
X36290Y-33440D01*
X38120Y-33440D02*
X56336Y-33440D01*
X56656Y-33440D02*
X65752Y-33440D01*
X31886Y-33520D02*
X36319Y-33520D01*
X38090Y-33520D02*
X56261Y-33520D01*
X56730Y-33520D02*
X63697Y-33520D01*
X64060Y-33520D02*
X65752Y-33520D01*
X31886Y-33600D02*
X36352Y-33600D01*
X38057Y-33600D02*
X56300Y-33600D01*
X56692Y-33600D02*
X63504Y-33600D01*
X64252Y-33600D02*
X65752Y-33600D01*
X31886Y-33680D02*
X36385Y-33680D01*
X38024Y-33680D02*
X63365Y-33680D01*
X64391Y-33680D02*
X65752Y-33680D01*
X31886Y-33760D02*
X36419Y-33760D01*
X37990Y-33760D02*
X63286Y-33760D01*
X64471Y-33760D02*
X65752Y-33760D01*
X31886Y-33840D02*
X36484Y-33840D01*
X37925Y-33840D02*
X63206Y-33840D01*
X64551Y-33840D02*
X65752Y-33840D01*
X31886Y-33920D02*
X36564Y-33920D01*
X37845Y-33920D02*
X63152Y-33920D01*
X64606Y-33920D02*
X65752Y-33920D01*
X31886Y-34000D02*
X36644Y-34000D01*
X37765Y-34000D02*
X63118Y-34000D01*
X64639Y-34000D02*
X65752Y-34000D01*
X31886Y-34080D02*
X36777Y-34080D01*
X37632Y-34080D02*
X63085Y-34080D01*
X64672Y-34080D02*
X65752Y-34080D01*
X31886Y-34160D02*
X32890Y-34160D01*
X33318Y-34160D02*
X33612Y-34160D01*
X34041Y-34160D02*
X36969Y-34160D01*
X37439Y-34160D02*
X63052Y-34160D01*
X64705Y-34160D02*
X65752Y-34160D01*
X31886Y-34240D02*
X32779Y-34240D01*
X33318Y-34240D02*
X33612Y-34240D01*
X34152Y-34240D02*
X63041Y-34240D01*
X64715Y-34240D02*
X65752Y-34240D01*
X31886Y-34320D02*
X32701Y-34320D01*
X33318Y-34320D02*
X33612Y-34320D01*
X34230Y-34320D02*
X63041Y-34320D01*
X64715Y-34320D02*
X65752Y-34320D01*
X31886Y-34400D02*
X32648Y-34400D01*
X33318Y-34400D02*
X33612Y-34400D01*
X34283Y-34400D02*
X63041Y-34400D01*
X64715Y-34400D02*
X65752Y-34400D01*
X31886Y-34480D02*
X32661Y-34480D01*
X33318Y-34480D02*
X33612Y-34480D01*
X34268Y-34480D02*
X63041Y-34480D01*
X64715Y-34480D02*
X65752Y-34480D01*
X31886Y-34560D02*
X63058Y-34560D01*
X64697Y-34560D02*
X65752Y-34560D01*
X31886Y-34640D02*
X63091Y-34640D01*
X64664Y-34640D02*
X65752Y-34640D01*
X31886Y-34720D02*
X63124Y-34720D01*
X64630Y-34720D02*
X65752Y-34720D01*
X31886Y-34800D02*
X32667Y-34800D01*
X33318Y-34800D02*
X33612Y-34800D01*
X34264Y-34800D02*
X63157Y-34800D01*
X64597Y-34800D02*
X65752Y-34800D01*
X31886Y-34880D02*
X32639Y-34880D01*
X33318Y-34880D02*
X33612Y-34880D01*
X34290Y-34880D02*
X63223Y-34880D01*
X64532Y-34880D02*
X65752Y-34880D01*
X31886Y-34960D02*
X32692Y-34960D01*
X33318Y-34960D02*
X33612Y-34960D01*
X34237Y-34960D02*
X63303Y-34960D01*
X64452Y-34960D02*
X65752Y-34960D01*
X31886Y-35040D02*
X32761Y-35040D01*
X33318Y-35040D02*
X33612Y-35040D01*
X34168Y-35040D02*
X63383Y-35040D01*
X64372Y-35040D02*
X65752Y-35040D01*
X31886Y-35120D02*
X32872Y-35120D01*
X33318Y-35120D02*
X33612Y-35120D01*
X34057Y-35120D02*
X63547Y-35120D01*
X64208Y-35120D02*
X65752Y-35120D01*
X31886Y-35200D02*
X65752Y-35200D01*
X31886Y-35280D02*
X41993Y-35280D01*
X42655Y-35280D02*
X57741Y-35280D01*
X58403Y-35280D02*
X65752Y-35280D01*
X31886Y-35360D02*
X41799Y-35360D01*
X42847Y-35360D02*
X57547Y-35360D01*
X58595Y-35360D02*
X65752Y-35360D01*
X31886Y-35440D02*
X41696Y-35440D01*
X42950Y-35440D02*
X57444Y-35440D01*
X58698Y-35440D02*
X65752Y-35440D01*
X31886Y-35520D02*
X41616Y-35520D01*
X43030Y-35520D02*
X57364Y-35520D01*
X58778Y-35520D02*
X65752Y-35520D01*
X31886Y-35600D02*
X41536Y-35600D01*
X43110Y-35600D02*
X57284Y-35600D01*
X58858Y-35600D02*
X63895Y-35600D01*
X63905Y-35600D02*
X65752Y-35600D01*
X31886Y-35680D02*
X41471Y-35680D01*
X43177Y-35680D02*
X57219Y-35680D01*
X58925Y-35680D02*
X63572Y-35680D01*
X64184Y-35680D02*
X65752Y-35680D01*
X31886Y-35760D02*
X41437Y-35760D01*
X43210Y-35760D02*
X57185Y-35760D01*
X58958Y-35760D02*
X63528Y-35760D01*
X64229Y-35760D02*
X65752Y-35760D01*
X31886Y-35840D02*
X41404Y-35840D01*
X43243Y-35840D02*
X57152Y-35840D01*
X58991Y-35840D02*
X63606Y-35840D01*
X64150Y-35840D02*
X65752Y-35840D01*
X31886Y-35920D02*
X41371Y-35920D01*
X43276Y-35920D02*
X57119Y-35920D01*
X59024Y-35920D02*
X63686Y-35920D01*
X64070Y-35920D02*
X65752Y-35920D01*
X31886Y-36000D02*
X32906Y-36000D01*
X34025Y-36000D02*
X41337Y-36000D01*
X43309Y-36000D02*
X57085Y-36000D01*
X59057Y-36000D02*
X63264Y-36000D01*
X63350Y-36000D02*
X63766Y-36000D01*
X63990Y-36000D02*
X64406Y-36000D01*
X64493Y-36000D02*
X65752Y-36000D01*
X31886Y-36080D02*
X32731Y-36080D01*
X34199Y-36080D02*
X41328Y-36080D01*
X43318Y-36080D02*
X57076Y-36080D01*
X59066Y-36080D02*
X63208Y-36080D01*
X63430Y-36080D02*
X63846Y-36080D01*
X63910Y-36080D02*
X64326Y-36080D01*
X64555Y-36080D02*
X65752Y-36080D01*
X31886Y-36160D02*
X32651Y-36160D01*
X34279Y-36160D02*
X41328Y-36160D01*
X43318Y-36160D02*
X57076Y-36160D01*
X59066Y-36160D02*
X63189Y-36160D01*
X63510Y-36160D02*
X64246Y-36160D01*
X64569Y-36160D02*
X65752Y-36160D01*
X31886Y-36240D02*
X32571Y-36240D01*
X34359Y-36240D02*
X41328Y-36240D01*
X43318Y-36240D02*
X57076Y-36240D01*
X59066Y-36240D02*
X63171Y-36240D01*
X63590Y-36240D02*
X64166Y-36240D01*
X64582Y-36240D02*
X65752Y-36240D01*
X31886Y-36320D02*
X32534Y-36320D01*
X34398Y-36320D02*
X41328Y-36320D01*
X43318Y-36320D02*
X57076Y-36320D01*
X59066Y-36320D02*
X63160Y-36320D01*
X63670Y-36320D02*
X64086Y-36320D01*
X64596Y-36320D02*
X65752Y-36320D01*
X31886Y-36400D02*
X32500Y-36400D01*
X34431Y-36400D02*
X41328Y-36400D01*
X43318Y-36400D02*
X57076Y-36400D01*
X59066Y-36400D02*
X63174Y-36400D01*
X63590Y-36400D02*
X64166Y-36400D01*
X64585Y-36400D02*
X65752Y-36400D01*
X31886Y-36480D02*
X32467Y-36480D01*
X34464Y-36480D02*
X41353Y-36480D01*
X43292Y-36480D02*
X57101Y-36480D01*
X59040Y-36480D02*
X63187Y-36480D01*
X63510Y-36480D02*
X64246Y-36480D01*
X64567Y-36480D02*
X65752Y-36480D01*
X31886Y-36560D02*
X32464Y-36560D01*
X34466Y-36560D02*
X41386Y-36560D01*
X43259Y-36560D02*
X57134Y-36560D01*
X59007Y-36560D02*
X63201Y-36560D01*
X63430Y-36560D02*
X63846Y-36560D01*
X63910Y-36560D02*
X64326Y-36560D01*
X64548Y-36560D02*
X65752Y-36560D01*
X31886Y-36640D02*
X32464Y-36640D01*
X34466Y-36640D02*
X41420Y-36640D01*
X43225Y-36640D02*
X57168Y-36640D01*
X58973Y-36640D02*
X63263Y-36640D01*
X63350Y-36640D02*
X63766Y-36640D01*
X63990Y-36640D02*
X64406Y-36640D01*
X64492Y-36640D02*
X65752Y-36640D01*
X31886Y-36720D02*
X32464Y-36720D01*
X34466Y-36720D02*
X41453Y-36720D01*
X43192Y-36720D02*
X57201Y-36720D01*
X58940Y-36720D02*
X63686Y-36720D01*
X64070Y-36720D02*
X65752Y-36720D01*
X31886Y-36800D02*
X32487Y-36800D01*
X34442Y-36800D02*
X41496Y-36800D01*
X43150Y-36800D02*
X57244Y-36800D01*
X58898Y-36800D02*
X63606Y-36800D01*
X64150Y-36800D02*
X65752Y-36800D01*
X31886Y-36880D02*
X32520Y-36880D01*
X34409Y-36880D02*
X41576Y-36880D01*
X43070Y-36880D02*
X57324Y-36880D01*
X58818Y-36880D02*
X63527Y-36880D01*
X64228Y-36880D02*
X65752Y-36880D01*
X31886Y-36960D02*
X32553Y-36960D01*
X34376Y-36960D02*
X41656Y-36960D01*
X42990Y-36960D02*
X57404Y-36960D01*
X58738Y-36960D02*
X63572Y-36960D01*
X64184Y-36960D02*
X65752Y-36960D01*
X31886Y-37040D02*
X32621Y-37040D01*
X34309Y-37040D02*
X41736Y-37040D01*
X42910Y-37040D02*
X57484Y-37040D01*
X58658Y-37040D02*
X63851Y-37040D01*
X63861Y-37040D02*
X65752Y-37040D01*
X31886Y-37120D02*
X32701Y-37120D01*
X34229Y-37120D02*
X41895Y-37120D01*
X42750Y-37120D02*
X57643Y-37120D01*
X58498Y-37120D02*
X65752Y-37120D01*
X31886Y-37200D02*
X32832Y-37200D01*
X34097Y-37200D02*
X42087Y-37200D01*
X42556Y-37200D02*
X57835Y-37200D01*
X58304Y-37200D02*
X65752Y-37200D01*
X31886Y-37280D02*
X65752Y-37280D01*
X31886Y-37360D02*
X65752Y-37360D01*
X65752Y-37405D02*
X65752Y-22240D01*
X39125Y-22240D01*
X39125Y-32432D01*
X37580Y-32432D01*
X37724Y-32492D01*
X37981Y-32750D01*
X38120Y-33086D01*
X38120Y-33450D01*
X37980Y-33786D01*
X37722Y-34043D01*
X37386Y-34182D01*
X37022Y-34182D01*
X36686Y-34042D01*
X36429Y-33784D01*
X36290Y-33448D01*
X36290Y-33084D01*
X36430Y-32748D01*
X36688Y-32491D01*
X36830Y-32432D01*
X31886Y-32432D01*
X31886Y-37405D01*
X32982Y-37405D01*
X32982Y-37262D01*
X32744Y-37163D01*
X32562Y-36981D01*
X32464Y-36743D01*
X32464Y-36486D01*
X32563Y-36248D01*
X32745Y-36066D01*
X32983Y-35968D01*
X33110Y-35968D01*
X33110Y-35191D01*
X32903Y-35142D01*
X32730Y-35017D01*
X32635Y-34873D01*
X32670Y-34793D01*
X32670Y-34499D01*
X32635Y-34419D01*
X32730Y-34275D01*
X32903Y-34150D01*
X33110Y-34101D01*
X33318Y-34101D01*
X33318Y-34499D01*
X32670Y-34499D01*
X32670Y-34793D01*
X33318Y-34793D01*
X33318Y-35191D01*
X33110Y-35191D01*
X33110Y-35968D01*
X33612Y-35968D01*
X33612Y-35191D01*
X33612Y-34793D01*
X33612Y-34499D01*
X33612Y-34101D01*
X33820Y-34101D01*
X34027Y-34150D01*
X34200Y-34275D01*
X34295Y-34419D01*
X34260Y-34499D01*
X33612Y-34499D01*
X33612Y-34793D01*
X34260Y-34793D01*
X34295Y-34873D01*
X34200Y-35017D01*
X34027Y-35142D01*
X33820Y-35191D01*
X33612Y-35191D01*
X33612Y-35968D01*
X33948Y-35968D01*
X34186Y-36067D01*
X34368Y-36249D01*
X34466Y-36487D01*
X34466Y-36744D01*
X34367Y-36982D01*
X34185Y-37164D01*
X33947Y-37262D01*
X32982Y-37262D01*
X32982Y-37405D01*
X39319Y-37405D01*
X39319Y-32421D01*
X39236Y-32387D01*
X39199Y-32201D01*
X39236Y-31983D01*
X39319Y-31949D01*
X39555Y-32185D01*
X39319Y-32421D01*
X39319Y-37405D01*
X39779Y-37405D01*
X39779Y-32749D01*
X39561Y-32712D01*
X39527Y-32629D01*
X39763Y-32393D01*
X39763Y-31977D01*
X39527Y-31741D01*
X39561Y-31658D01*
X39747Y-31621D01*
X39965Y-31658D01*
X39999Y-31741D01*
X39763Y-31977D01*
X39763Y-32393D01*
X39999Y-32629D01*
X39965Y-32712D01*
X39779Y-32749D01*
X39779Y-37405D01*
X40207Y-37405D01*
X40207Y-32421D01*
X39971Y-32185D01*
X40207Y-31949D01*
X40290Y-31983D01*
X40327Y-32169D01*
X40290Y-32387D01*
X40207Y-32421D01*
X40207Y-37405D01*
X42124Y-37405D01*
X42124Y-37215D01*
X41759Y-37063D01*
X41479Y-36783D01*
X41328Y-36417D01*
X41328Y-36021D01*
X41480Y-35656D01*
X41596Y-35540D01*
X41596Y-32865D01*
X41347Y-32761D01*
X41155Y-32570D01*
X41052Y-32320D01*
X41052Y-32049D01*
X41156Y-31800D01*
X41347Y-31608D01*
X41597Y-31505D01*
X41868Y-31505D01*
X42117Y-31609D01*
X42124Y-31615D01*
X42124Y-24617D01*
X41759Y-24465D01*
X41479Y-24185D01*
X41328Y-23819D01*
X41328Y-23423D01*
X41480Y-23058D01*
X41760Y-22778D01*
X42126Y-22627D01*
X42522Y-22627D01*
X42887Y-22779D01*
X43167Y-23059D01*
X43318Y-23425D01*
X43318Y-23821D01*
X43166Y-24186D01*
X42886Y-24466D01*
X42520Y-24617D01*
X42124Y-24617D01*
X42124Y-31615D01*
X42309Y-31800D01*
X42412Y-32050D01*
X42412Y-32321D01*
X42308Y-32570D01*
X42117Y-32762D01*
X41867Y-32865D01*
X41596Y-32865D01*
X41596Y-35540D01*
X41760Y-35376D01*
X42126Y-35225D01*
X42522Y-35225D01*
X42887Y-35377D01*
X43167Y-35657D01*
X43318Y-36023D01*
X43318Y-36419D01*
X43166Y-36784D01*
X42886Y-37064D01*
X42520Y-37215D01*
X42124Y-37215D01*
X42124Y-37405D01*
X56052Y-37405D01*
X56052Y-33308D01*
X55969Y-33274D01*
X55932Y-33088D01*
X55969Y-32870D01*
X56052Y-32836D01*
X56288Y-33072D01*
X56052Y-33308D01*
X56052Y-37405D01*
X56512Y-37405D01*
X56512Y-33636D01*
X56360Y-33610D01*
X56294Y-33599D01*
X56260Y-33516D01*
X56496Y-33280D01*
X56496Y-32864D01*
X56260Y-32628D01*
X56294Y-32545D01*
X56360Y-32531D01*
X56360Y-31783D01*
X56111Y-31679D01*
X55919Y-31488D01*
X55816Y-31238D01*
X55816Y-30967D01*
X55920Y-30718D01*
X56111Y-30526D01*
X56361Y-30423D01*
X56632Y-30423D01*
X56881Y-30527D01*
X57073Y-30718D01*
X57176Y-30968D01*
X57176Y-31239D01*
X57072Y-31488D01*
X56881Y-31680D01*
X56631Y-31783D01*
X56360Y-31783D01*
X56360Y-32531D01*
X56480Y-32508D01*
X56698Y-32545D01*
X56732Y-32628D01*
X56496Y-32864D01*
X56496Y-33280D01*
X56732Y-33516D01*
X56698Y-33599D01*
X56512Y-33636D01*
X56512Y-37405D01*
X56940Y-37405D01*
X56940Y-33308D01*
X56704Y-33072D01*
X56940Y-32836D01*
X57023Y-32870D01*
X57060Y-33056D01*
X57023Y-33274D01*
X56940Y-33308D01*
X56940Y-37405D01*
X57872Y-37405D01*
X57872Y-37215D01*
X57507Y-37063D01*
X57227Y-36783D01*
X57076Y-36417D01*
X57076Y-36021D01*
X57228Y-35656D01*
X57508Y-35376D01*
X57874Y-35225D01*
X58270Y-35225D01*
X58635Y-35377D01*
X58821Y-35563D01*
X58821Y-27353D01*
X58572Y-27249D01*
X58380Y-27058D01*
X58277Y-26808D01*
X58277Y-26537D01*
X58381Y-26288D01*
X58513Y-26155D01*
X58513Y-24940D01*
X58430Y-24906D01*
X58393Y-24720D01*
X58430Y-24502D01*
X58513Y-24468D01*
X58749Y-24704D01*
X58513Y-24940D01*
X58513Y-26155D01*
X58572Y-26096D01*
X58822Y-25993D01*
X58973Y-25993D01*
X58973Y-25268D01*
X58755Y-25231D01*
X58721Y-25148D01*
X58957Y-24912D01*
X58957Y-24496D01*
X58721Y-24260D01*
X58755Y-24177D01*
X58941Y-24140D01*
X59159Y-24177D01*
X59193Y-24260D01*
X58957Y-24496D01*
X58957Y-24912D01*
X59193Y-25148D01*
X59159Y-25231D01*
X58973Y-25268D01*
X58973Y-25993D01*
X59093Y-25993D01*
X59342Y-26097D01*
X59401Y-26155D01*
X59401Y-24940D01*
X59165Y-24704D01*
X59401Y-24468D01*
X59484Y-24502D01*
X59521Y-24688D01*
X59484Y-24906D01*
X59401Y-24940D01*
X59401Y-26155D01*
X59534Y-26288D01*
X59637Y-26538D01*
X59637Y-26809D01*
X59533Y-27058D01*
X59342Y-27250D01*
X59092Y-27353D01*
X58821Y-27353D01*
X58821Y-35563D01*
X58915Y-35657D01*
X59066Y-36023D01*
X59066Y-36419D01*
X58914Y-36784D01*
X58634Y-37064D01*
X58268Y-37215D01*
X57872Y-37215D01*
X57872Y-37405D01*
X63319Y-37405D01*
X63319Y-36671D01*
X63220Y-36616D01*
X63204Y-36575D01*
X63157Y-36298D01*
X63220Y-36024D01*
X63319Y-35969D01*
X63670Y-36320D01*
X63319Y-36671D01*
X63319Y-37405D01*
X63856Y-37405D01*
X63856Y-37041D01*
X63711Y-37007D01*
X63582Y-36978D01*
X63527Y-36879D01*
X63878Y-36528D01*
X63878Y-36112D01*
X63527Y-35761D01*
X63582Y-35662D01*
X63623Y-35646D01*
X63711Y-35631D01*
X63711Y-35188D01*
X63404Y-35060D01*
X63168Y-34825D01*
X63041Y-34517D01*
X63041Y-34184D01*
X63169Y-33877D01*
X63319Y-33726D01*
X63319Y-32734D01*
X63220Y-32679D01*
X63204Y-32638D01*
X63157Y-32361D01*
X63220Y-32087D01*
X63319Y-32032D01*
X63670Y-32383D01*
X63319Y-32734D01*
X63319Y-33726D01*
X63404Y-33641D01*
X63711Y-33514D01*
X63856Y-33514D01*
X63856Y-33104D01*
X63711Y-33070D01*
X63582Y-33041D01*
X63527Y-32942D01*
X63878Y-32591D01*
X63878Y-32175D01*
X63527Y-31824D01*
X63582Y-31725D01*
X63623Y-31709D01*
X63711Y-31694D01*
X63711Y-31251D01*
X63404Y-31123D01*
X63168Y-30888D01*
X63041Y-30580D01*
X63041Y-30247D01*
X63169Y-29940D01*
X63404Y-29704D01*
X63711Y-29577D01*
X63711Y-29283D01*
X63404Y-29155D01*
X63168Y-28920D01*
X63041Y-28612D01*
X63041Y-28279D01*
X63169Y-27972D01*
X63404Y-27736D01*
X63711Y-27609D01*
X63711Y-27314D01*
X63404Y-27186D01*
X63168Y-26951D01*
X63041Y-26643D01*
X63041Y-26310D01*
X63169Y-26003D01*
X63404Y-25767D01*
X63712Y-25640D01*
X63777Y-25640D01*
X63777Y-24617D01*
X63412Y-24465D01*
X63132Y-24185D01*
X62981Y-23819D01*
X62981Y-23423D01*
X63133Y-23058D01*
X63413Y-22778D01*
X63779Y-22627D01*
X64175Y-22627D01*
X64540Y-22779D01*
X64820Y-23059D01*
X64971Y-23425D01*
X64971Y-23821D01*
X64819Y-24186D01*
X64539Y-24466D01*
X64173Y-24617D01*
X63777Y-24617D01*
X63777Y-25640D01*
X64045Y-25640D01*
X64352Y-25768D01*
X64588Y-26003D01*
X64715Y-26311D01*
X64715Y-26644D01*
X64587Y-26951D01*
X64352Y-27187D01*
X64044Y-27314D01*
X63711Y-27314D01*
X63711Y-27609D01*
X64045Y-27609D01*
X64352Y-27737D01*
X64588Y-27972D01*
X64715Y-28280D01*
X64715Y-28613D01*
X64587Y-28920D01*
X64352Y-29156D01*
X64044Y-29283D01*
X63711Y-29283D01*
X63711Y-29577D01*
X64045Y-29577D01*
X64352Y-29705D01*
X64588Y-29940D01*
X64715Y-30248D01*
X64715Y-30581D01*
X64587Y-30888D01*
X64352Y-31124D01*
X64044Y-31251D01*
X63711Y-31251D01*
X63711Y-31694D01*
X63900Y-31662D01*
X64174Y-31725D01*
X64229Y-31824D01*
X63878Y-32175D01*
X63878Y-32591D01*
X64229Y-32942D01*
X64174Y-33041D01*
X64133Y-33057D01*
X63856Y-33104D01*
X63856Y-33514D01*
X64045Y-33514D01*
X64352Y-33642D01*
X64437Y-33726D01*
X64437Y-32734D01*
X64086Y-32383D01*
X64437Y-32032D01*
X64536Y-32087D01*
X64552Y-32128D01*
X64599Y-32405D01*
X64536Y-32679D01*
X64437Y-32734D01*
X64437Y-33726D01*
X64588Y-33877D01*
X64715Y-34185D01*
X64715Y-34518D01*
X64587Y-34825D01*
X64352Y-35061D01*
X64044Y-35188D01*
X63711Y-35188D01*
X63711Y-35631D01*
X63900Y-35599D01*
X64174Y-35662D01*
X64229Y-35761D01*
X63878Y-36112D01*
X63878Y-36528D01*
X64229Y-36879D01*
X64174Y-36978D01*
X64133Y-36994D01*
X63856Y-37041D01*
X63856Y-37405D01*
X64437Y-37405D01*
X64437Y-36671D01*
X64086Y-36320D01*
X64437Y-35969D01*
X64536Y-36024D01*
X64552Y-36065D01*
X64599Y-36342D01*
X64536Y-36616D01*
X64437Y-36671D01*
X64437Y-37405D01*
X65752Y-37405D01*
M02*
