G04 (created by PCBNEW-RS274X (2010-03-14)-final) date Wed 01 Feb 2012 01:55:13 GMT*
G01*
G70*
G90*
%MOIN*%
G04 Gerber Fmt 3.4, Leading zero omitted, Abs format*
%FSLAX34Y34*%
G04 APERTURE LIST*
%ADD10C,0.006000*%
%ADD11C,0.015000*%
%ADD12C,0.126000*%
%ADD13C,0.094500*%
%ADD14O,0.059100X0.126000*%
%ADD15O,0.126000X0.059100*%
%ADD16C,0.078700*%
%ADD17C,0.063000*%
%ADD18C,0.037400*%
%ADD19C,0.075000*%
%ADD20R,0.075000X0.075000*%
%ADD21C,0.039400*%
%ADD22C,0.031500*%
%ADD23C,0.015700*%
%ADD24C,0.007900*%
%ADD25C,0.039400*%
%ADD26C,0.078700*%
%ADD27C,0.010000*%
G04 APERTURE END LIST*
G54D10*
G54D11*
X67716Y-62205D02*
X34252Y-62205D01*
X67716Y-43307D02*
X67716Y-62205D01*
X34252Y-43307D02*
X67716Y-43307D01*
X34252Y-62205D02*
X34252Y-43307D01*
G54D12*
X39764Y-45079D03*
X39764Y-60827D03*
X66535Y-60827D03*
X66535Y-45079D03*
G54D13*
X36220Y-51968D03*
X36220Y-49999D03*
X36220Y-48031D03*
X36220Y-46062D03*
G54D14*
X47046Y-46850D03*
X49015Y-46850D03*
G54D15*
X65748Y-49802D03*
X65748Y-51771D03*
X36220Y-53936D03*
X36220Y-55905D03*
X36220Y-57873D03*
X36220Y-59842D03*
X65748Y-53739D03*
X65748Y-55708D03*
G54D16*
X57974Y-49016D03*
X60927Y-49016D03*
X57974Y-56496D03*
X60927Y-56496D03*
G54D17*
X42323Y-50000D03*
X44292Y-50000D03*
X42323Y-58661D03*
X44292Y-58661D03*
G54D18*
X45768Y-51772D03*
X46359Y-51772D03*
G54D19*
X39264Y-49819D03*
X39264Y-48819D03*
X39264Y-47819D03*
G54D20*
X40264Y-49819D03*
G54D19*
X40264Y-48819D03*
X40264Y-47819D03*
G54D17*
X53937Y-49016D03*
X51968Y-49016D03*
X53937Y-56496D03*
X51968Y-56496D03*
G54D21*
X55413Y-53838D03*
X55413Y-51673D03*
G54D22*
X44882Y-54744D03*
X44882Y-53917D03*
X46398Y-53051D03*
G54D21*
X46535Y-55610D03*
X43228Y-54842D03*
X39764Y-56299D03*
X39764Y-55512D03*
X39764Y-54724D03*
X39764Y-52362D03*
X49213Y-54331D03*
X45866Y-46161D03*
G54D23*
X45079Y-53150D03*
X45079Y-52756D03*
X44685Y-53150D03*
X44685Y-52756D03*
X45079Y-55512D03*
X45079Y-55905D03*
X44685Y-55512D03*
X44685Y-55905D03*
X45177Y-55118D03*
X44882Y-55118D03*
X44587Y-55118D03*
G54D22*
X44882Y-54331D03*
G54D23*
X45177Y-53543D03*
X44882Y-53543D03*
X44587Y-53543D03*
G54D22*
X44882Y-52953D03*
X44882Y-55709D03*
G54D23*
X45276Y-47539D03*
X45276Y-49213D03*
X44980Y-49213D03*
X44980Y-47539D03*
X43799Y-47539D03*
X43799Y-49213D03*
X43504Y-49213D03*
X43504Y-47539D03*
G54D21*
X46949Y-53051D03*
X46949Y-54429D03*
G54D24*
X45276Y-49213D02*
X45276Y-47539D01*
X44980Y-49213D02*
X44980Y-47539D01*
X43799Y-49213D02*
X43799Y-47539D01*
X43504Y-49213D02*
X43504Y-47539D01*
G54D25*
X46949Y-53051D02*
X46949Y-54429D01*
G54D26*
X42323Y-50000D02*
X42323Y-58661D01*
G54D27*
X34527Y-43582D02*
X67441Y-43582D01*
X34527Y-43662D02*
X67441Y-43662D01*
X34527Y-43742D02*
X67441Y-43742D01*
X34527Y-43822D02*
X67441Y-43822D01*
X34527Y-43902D02*
X67441Y-43902D01*
X34527Y-43982D02*
X67441Y-43982D01*
X34527Y-44062D02*
X67441Y-44062D01*
X34527Y-44142D02*
X67441Y-44142D01*
X34527Y-44222D02*
X39535Y-44222D01*
X39996Y-44222D02*
X66306Y-44222D01*
X66767Y-44222D02*
X67441Y-44222D01*
X34527Y-44302D02*
X39341Y-44302D01*
X40187Y-44302D02*
X66112Y-44302D01*
X66958Y-44302D02*
X67441Y-44302D01*
X34527Y-44382D02*
X39217Y-44382D01*
X40311Y-44382D02*
X65988Y-44382D01*
X67082Y-44382D02*
X67441Y-44382D01*
X34527Y-44462D02*
X39137Y-44462D01*
X40391Y-44462D02*
X65908Y-44462D01*
X67162Y-44462D02*
X67441Y-44462D01*
X34527Y-44542D02*
X39057Y-44542D01*
X40471Y-44542D02*
X65828Y-44542D01*
X67242Y-44542D02*
X67441Y-44542D01*
X34527Y-44622D02*
X39002Y-44622D01*
X40527Y-44622D02*
X65773Y-44622D01*
X67298Y-44622D02*
X67441Y-44622D01*
X34527Y-44702D02*
X38969Y-44702D01*
X40561Y-44702D02*
X65740Y-44702D01*
X67332Y-44702D02*
X67441Y-44702D01*
X34527Y-44782D02*
X38935Y-44782D01*
X40594Y-44782D02*
X65706Y-44782D01*
X67365Y-44782D02*
X67441Y-44782D01*
X34527Y-44862D02*
X38902Y-44862D01*
X40627Y-44862D02*
X65673Y-44862D01*
X67398Y-44862D02*
X67441Y-44862D01*
X34527Y-44942D02*
X38884Y-44942D01*
X40644Y-44942D02*
X65655Y-44942D01*
X67415Y-44942D02*
X67441Y-44942D01*
X34527Y-45022D02*
X38884Y-45022D01*
X40644Y-45022D02*
X65655Y-45022D01*
X67415Y-45022D02*
X67441Y-45022D01*
X34527Y-45102D02*
X38884Y-45102D01*
X40644Y-45102D02*
X65655Y-45102D01*
X67415Y-45102D02*
X67441Y-45102D01*
X34527Y-45182D02*
X38884Y-45182D01*
X40644Y-45182D02*
X65655Y-45182D01*
X67415Y-45182D02*
X67441Y-45182D01*
X34527Y-45262D02*
X38887Y-45262D01*
X40641Y-45262D02*
X65658Y-45262D01*
X67412Y-45262D02*
X67441Y-45262D01*
X34527Y-45342D02*
X36237Y-45342D01*
X36247Y-45342D02*
X38920Y-45342D01*
X40607Y-45342D02*
X65691Y-45342D01*
X67378Y-45342D02*
X67441Y-45342D01*
X34527Y-45422D02*
X35914Y-45422D01*
X36526Y-45422D02*
X38953Y-45422D01*
X40574Y-45422D02*
X65724Y-45422D01*
X67345Y-45422D02*
X67441Y-45422D01*
X34527Y-45502D02*
X35870Y-45502D01*
X36571Y-45502D02*
X38986Y-45502D01*
X40540Y-45502D02*
X65757Y-45502D01*
X67311Y-45502D02*
X67441Y-45502D01*
X34527Y-45582D02*
X35948Y-45582D01*
X36492Y-45582D02*
X39023Y-45582D01*
X40505Y-45582D02*
X65794Y-45582D01*
X67276Y-45582D02*
X67441Y-45582D01*
X34527Y-45662D02*
X36028Y-45662D01*
X36412Y-45662D02*
X39103Y-45662D01*
X40425Y-45662D02*
X65874Y-45662D01*
X67196Y-45662D02*
X67441Y-45662D01*
X34527Y-45742D02*
X35606Y-45742D01*
X35692Y-45742D02*
X36108Y-45742D01*
X36332Y-45742D02*
X36748Y-45742D01*
X36835Y-45742D02*
X39183Y-45742D01*
X40345Y-45742D02*
X65954Y-45742D01*
X67116Y-45742D02*
X67441Y-45742D01*
X34527Y-45822D02*
X35550Y-45822D01*
X35772Y-45822D02*
X36188Y-45822D01*
X36252Y-45822D02*
X36668Y-45822D01*
X36897Y-45822D02*
X39263Y-45822D01*
X40265Y-45822D02*
X66034Y-45822D01*
X67036Y-45822D02*
X67441Y-45822D01*
X34527Y-45902D02*
X35531Y-45902D01*
X35852Y-45902D02*
X36588Y-45902D01*
X36911Y-45902D02*
X39451Y-45902D01*
X40075Y-45902D02*
X66222Y-45902D01*
X66846Y-45902D02*
X67441Y-45902D01*
X34527Y-45982D02*
X35513Y-45982D01*
X35932Y-45982D02*
X36508Y-45982D01*
X36924Y-45982D02*
X46894Y-45982D01*
X47199Y-45982D02*
X67441Y-45982D01*
X34527Y-46062D02*
X35502Y-46062D01*
X36012Y-46062D02*
X36428Y-46062D01*
X36938Y-46062D02*
X46726Y-46062D01*
X47367Y-46062D02*
X48725Y-46062D01*
X48868Y-46062D02*
X49162Y-46062D01*
X49306Y-46062D02*
X67441Y-46062D01*
X34527Y-46142D02*
X35516Y-46142D01*
X35932Y-46142D02*
X36508Y-46142D01*
X36927Y-46142D02*
X46646Y-46142D01*
X47447Y-46142D02*
X48625Y-46142D01*
X48868Y-46142D02*
X49162Y-46142D01*
X49406Y-46142D02*
X67441Y-46142D01*
X34527Y-46222D02*
X35529Y-46222D01*
X35852Y-46222D02*
X36588Y-46222D01*
X36909Y-46222D02*
X46582Y-46222D01*
X47512Y-46222D02*
X48567Y-46222D01*
X48868Y-46222D02*
X49162Y-46222D01*
X49464Y-46222D02*
X67441Y-46222D01*
X34527Y-46302D02*
X35543Y-46302D01*
X35772Y-46302D02*
X36188Y-46302D01*
X36252Y-46302D02*
X36668Y-46302D01*
X36890Y-46302D02*
X46549Y-46302D01*
X47544Y-46302D02*
X48516Y-46302D01*
X48868Y-46302D02*
X49162Y-46302D01*
X49515Y-46302D02*
X67441Y-46302D01*
X34527Y-46382D02*
X35605Y-46382D01*
X35692Y-46382D02*
X36108Y-46382D01*
X36332Y-46382D02*
X36748Y-46382D01*
X36834Y-46382D02*
X46515Y-46382D01*
X47577Y-46382D02*
X48497Y-46382D01*
X48868Y-46382D02*
X49162Y-46382D01*
X49534Y-46382D02*
X67441Y-46382D01*
X34527Y-46462D02*
X36028Y-46462D01*
X36412Y-46462D02*
X46511Y-46462D01*
X47581Y-46462D02*
X48478Y-46462D01*
X48868Y-46462D02*
X49162Y-46462D01*
X49553Y-46462D02*
X67441Y-46462D01*
X34527Y-46542D02*
X35948Y-46542D01*
X36492Y-46542D02*
X46511Y-46542D01*
X47581Y-46542D02*
X48470Y-46542D01*
X48868Y-46542D02*
X49162Y-46542D01*
X49560Y-46542D02*
X67441Y-46542D01*
X34527Y-46622D02*
X35869Y-46622D01*
X36570Y-46622D02*
X46511Y-46622D01*
X47581Y-46622D02*
X48470Y-46622D01*
X48868Y-46622D02*
X49162Y-46622D01*
X49560Y-46622D02*
X67441Y-46622D01*
X34527Y-46702D02*
X35914Y-46702D01*
X36526Y-46702D02*
X46511Y-46702D01*
X47581Y-46702D02*
X48470Y-46702D01*
X48868Y-46702D02*
X49162Y-46702D01*
X49560Y-46702D02*
X67441Y-46702D01*
X34527Y-46782D02*
X36193Y-46782D01*
X36203Y-46782D02*
X46511Y-46782D01*
X47581Y-46782D02*
X67441Y-46782D01*
X34527Y-46862D02*
X46511Y-46862D01*
X47581Y-46862D02*
X67441Y-46862D01*
X34527Y-46942D02*
X46511Y-46942D01*
X47581Y-46942D02*
X67441Y-46942D01*
X34527Y-47022D02*
X46511Y-47022D01*
X47581Y-47022D02*
X48470Y-47022D01*
X48868Y-47022D02*
X49162Y-47022D01*
X49560Y-47022D02*
X67441Y-47022D01*
X34527Y-47102D02*
X46511Y-47102D01*
X47581Y-47102D02*
X48470Y-47102D01*
X48868Y-47102D02*
X49162Y-47102D01*
X49560Y-47102D02*
X67441Y-47102D01*
X34527Y-47182D02*
X46511Y-47182D01*
X47581Y-47182D02*
X48470Y-47182D01*
X48868Y-47182D02*
X49162Y-47182D01*
X49560Y-47182D02*
X67441Y-47182D01*
X34527Y-47262D02*
X39017Y-47262D01*
X39512Y-47262D02*
X39976Y-47262D01*
X40553Y-47262D02*
X43317Y-47262D01*
X43986Y-47262D02*
X44793Y-47262D01*
X45463Y-47262D02*
X46511Y-47262D01*
X47581Y-47262D02*
X48483Y-47262D01*
X48868Y-47262D02*
X49162Y-47262D01*
X49546Y-47262D02*
X67441Y-47262D01*
X34527Y-47342D02*
X35998Y-47342D01*
X36444Y-47342D02*
X38995Y-47342D01*
X39533Y-47342D02*
X39857Y-47342D01*
X40671Y-47342D02*
X43237Y-47342D01*
X44066Y-47342D02*
X44713Y-47342D01*
X45543Y-47342D02*
X46524Y-47342D01*
X47567Y-47342D02*
X48502Y-47342D01*
X48868Y-47342D02*
X49162Y-47342D01*
X49527Y-47342D02*
X67441Y-47342D01*
X34527Y-47422D02*
X35809Y-47422D01*
X36632Y-47422D02*
X39075Y-47422D01*
X39453Y-47422D02*
X39777Y-47422D01*
X40751Y-47422D02*
X43198Y-47422D01*
X44106Y-47422D02*
X44674Y-47422D01*
X45583Y-47422D02*
X46557Y-47422D01*
X47533Y-47422D02*
X48526Y-47422D01*
X48868Y-47422D02*
X49162Y-47422D01*
X49503Y-47422D02*
X67441Y-47422D01*
X34527Y-47502D02*
X35729Y-47502D01*
X36712Y-47502D02*
X39155Y-47502D01*
X39373Y-47502D02*
X39719Y-47502D01*
X40810Y-47502D02*
X43176Y-47502D01*
X44127Y-47502D02*
X44652Y-47502D01*
X45604Y-47502D02*
X46590Y-47502D01*
X47500Y-47502D02*
X48584Y-47502D01*
X48868Y-47502D02*
X49162Y-47502D01*
X49445Y-47502D02*
X67441Y-47502D01*
X34527Y-47582D02*
X35648Y-47582D01*
X36792Y-47582D02*
X38686Y-47582D01*
X38819Y-47582D02*
X39235Y-47582D01*
X39293Y-47582D02*
X39685Y-47582D01*
X40843Y-47582D02*
X43176Y-47582D01*
X44127Y-47582D02*
X44652Y-47582D01*
X45604Y-47582D02*
X46669Y-47582D01*
X47422Y-47582D02*
X48641Y-47582D01*
X48868Y-47582D02*
X49162Y-47582D01*
X49388Y-47582D02*
X67441Y-47582D01*
X34527Y-47662D02*
X35592Y-47662D01*
X36849Y-47662D02*
X38671Y-47662D01*
X38899Y-47662D02*
X39629Y-47662D01*
X40876Y-47662D02*
X43200Y-47662D01*
X44102Y-47662D02*
X44676Y-47662D01*
X45579Y-47662D02*
X46759Y-47662D01*
X47334Y-47662D02*
X48760Y-47662D01*
X48829Y-47662D02*
X49200Y-47662D01*
X49269Y-47662D02*
X67441Y-47662D01*
X34527Y-47742D02*
X35559Y-47742D01*
X36882Y-47742D02*
X38655Y-47742D01*
X38979Y-47742D02*
X39549Y-47742D01*
X40889Y-47742D02*
X43215Y-47742D01*
X44088Y-47742D02*
X44691Y-47742D01*
X45565Y-47742D02*
X67441Y-47742D01*
X34527Y-47822D02*
X35525Y-47822D01*
X36915Y-47822D02*
X38639Y-47822D01*
X39053Y-47822D02*
X39475Y-47822D01*
X40889Y-47822D02*
X43215Y-47822D01*
X44088Y-47822D02*
X44691Y-47822D01*
X45565Y-47822D02*
X67441Y-47822D01*
X34527Y-47902D02*
X35498Y-47902D01*
X36942Y-47902D02*
X38655Y-47902D01*
X38973Y-47902D02*
X39555Y-47902D01*
X40889Y-47902D02*
X43215Y-47902D01*
X44088Y-47902D02*
X44691Y-47902D01*
X45565Y-47902D02*
X67441Y-47902D01*
X34527Y-47982D02*
X35498Y-47982D01*
X36942Y-47982D02*
X38671Y-47982D01*
X38893Y-47982D02*
X39635Y-47982D01*
X40873Y-47982D02*
X43215Y-47982D01*
X44088Y-47982D02*
X44691Y-47982D01*
X45565Y-47982D02*
X67441Y-47982D01*
X34527Y-48062D02*
X35498Y-48062D01*
X36942Y-48062D02*
X38696Y-48062D01*
X38813Y-48062D02*
X39229Y-48062D01*
X39299Y-48062D02*
X39688Y-48062D01*
X40840Y-48062D02*
X43215Y-48062D01*
X44088Y-48062D02*
X44691Y-48062D01*
X45565Y-48062D02*
X67441Y-48062D01*
X34527Y-48142D02*
X35498Y-48142D01*
X36942Y-48142D02*
X39149Y-48142D01*
X39379Y-48142D02*
X39721Y-48142D01*
X40806Y-48142D02*
X43215Y-48142D01*
X44088Y-48142D02*
X44691Y-48142D01*
X45565Y-48142D02*
X67441Y-48142D01*
X34527Y-48222D02*
X35517Y-48222D01*
X36922Y-48222D02*
X39069Y-48222D01*
X39459Y-48222D02*
X39783Y-48222D01*
X40744Y-48222D02*
X43215Y-48222D01*
X44088Y-48222D02*
X44691Y-48222D01*
X45565Y-48222D02*
X67441Y-48222D01*
X34527Y-48302D02*
X35551Y-48302D01*
X36889Y-48302D02*
X38897Y-48302D01*
X39632Y-48302D02*
X39863Y-48302D01*
X40663Y-48302D02*
X43215Y-48302D01*
X44088Y-48302D02*
X44691Y-48302D01*
X45565Y-48302D02*
X67441Y-48302D01*
X34527Y-48382D02*
X35584Y-48382D01*
X36856Y-48382D02*
X38817Y-48382D01*
X39712Y-48382D02*
X39816Y-48382D01*
X40711Y-48382D02*
X43215Y-48382D01*
X44088Y-48382D02*
X44691Y-48382D01*
X45565Y-48382D02*
X57826Y-48382D01*
X58125Y-48382D02*
X60779Y-48382D01*
X61078Y-48382D02*
X67441Y-48382D01*
X34527Y-48462D02*
X35630Y-48462D01*
X36809Y-48462D02*
X38737Y-48462D01*
X40791Y-48462D02*
X43215Y-48462D01*
X44088Y-48462D02*
X44691Y-48462D01*
X45565Y-48462D02*
X51830Y-48462D01*
X52108Y-48462D02*
X53799Y-48462D01*
X54077Y-48462D02*
X57633Y-48462D01*
X58316Y-48462D02*
X60586Y-48462D01*
X61269Y-48462D02*
X67441Y-48462D01*
X34527Y-48542D02*
X35710Y-48542D01*
X36729Y-48542D02*
X38703Y-48542D01*
X40826Y-48542D02*
X43215Y-48542D01*
X44088Y-48542D02*
X44691Y-48542D01*
X45565Y-48542D02*
X51643Y-48542D01*
X52293Y-48542D02*
X53612Y-48542D01*
X54262Y-48542D02*
X57540Y-48542D01*
X58409Y-48542D02*
X60493Y-48542D01*
X61362Y-48542D02*
X67441Y-48542D01*
X34527Y-48622D02*
X35790Y-48622D01*
X36649Y-48622D02*
X38669Y-48622D01*
X40859Y-48622D02*
X43215Y-48622D01*
X44088Y-48622D02*
X44691Y-48622D01*
X45565Y-48622D02*
X51563Y-48622D01*
X52373Y-48622D02*
X53532Y-48622D01*
X54342Y-48622D02*
X57460Y-48622D01*
X58489Y-48622D02*
X60413Y-48622D01*
X61442Y-48622D02*
X67441Y-48622D01*
X34527Y-48702D02*
X35953Y-48702D01*
X36485Y-48702D02*
X38639Y-48702D01*
X40889Y-48702D02*
X43215Y-48702D01*
X44088Y-48702D02*
X44691Y-48702D01*
X45565Y-48702D02*
X51487Y-48702D01*
X52450Y-48702D02*
X53456Y-48702D01*
X54419Y-48702D02*
X57409Y-48702D01*
X58540Y-48702D02*
X60362Y-48702D01*
X61493Y-48702D02*
X67441Y-48702D01*
X34527Y-48782D02*
X38639Y-48782D01*
X40889Y-48782D02*
X43215Y-48782D01*
X44088Y-48782D02*
X44691Y-48782D01*
X45565Y-48782D02*
X51454Y-48782D01*
X52483Y-48782D02*
X53423Y-48782D01*
X54452Y-48782D02*
X57376Y-48782D01*
X58573Y-48782D02*
X60329Y-48782D01*
X61526Y-48782D02*
X67441Y-48782D01*
X34527Y-48862D02*
X38639Y-48862D01*
X40889Y-48862D02*
X43215Y-48862D01*
X44088Y-48862D02*
X44691Y-48862D01*
X45565Y-48862D02*
X51421Y-48862D01*
X52516Y-48862D02*
X53390Y-48862D01*
X54485Y-48862D02*
X57342Y-48862D01*
X58606Y-48862D02*
X60295Y-48862D01*
X61559Y-48862D02*
X67441Y-48862D01*
X34527Y-48942D02*
X38639Y-48942D01*
X40889Y-48942D02*
X43215Y-48942D01*
X44088Y-48942D02*
X44691Y-48942D01*
X45565Y-48942D02*
X51403Y-48942D01*
X52533Y-48942D02*
X53372Y-48942D01*
X54502Y-48942D02*
X57331Y-48942D01*
X58617Y-48942D02*
X60284Y-48942D01*
X61570Y-48942D02*
X67441Y-48942D01*
X34527Y-49022D02*
X38671Y-49022D01*
X40856Y-49022D02*
X43215Y-49022D01*
X44088Y-49022D02*
X44691Y-49022D01*
X45565Y-49022D02*
X51403Y-49022D01*
X52533Y-49022D02*
X53372Y-49022D01*
X54502Y-49022D02*
X57331Y-49022D01*
X58617Y-49022D02*
X60284Y-49022D01*
X61570Y-49022D02*
X67441Y-49022D01*
X34527Y-49102D02*
X38704Y-49102D01*
X40823Y-49102D02*
X43195Y-49102D01*
X44109Y-49102D02*
X44671Y-49102D01*
X45586Y-49102D02*
X51403Y-49102D01*
X52533Y-49102D02*
X53372Y-49102D01*
X54502Y-49102D02*
X57331Y-49102D01*
X58617Y-49102D02*
X60284Y-49102D01*
X61570Y-49102D02*
X67441Y-49102D01*
X34527Y-49182D02*
X38743Y-49182D01*
X40784Y-49182D02*
X43176Y-49182D01*
X44127Y-49182D02*
X44652Y-49182D01*
X45604Y-49182D02*
X51425Y-49182D01*
X52510Y-49182D02*
X53394Y-49182D01*
X54479Y-49182D02*
X57347Y-49182D01*
X58601Y-49182D02*
X60300Y-49182D01*
X61554Y-49182D02*
X67441Y-49182D01*
X34527Y-49262D02*
X38823Y-49262D01*
X40809Y-49262D02*
X43176Y-49262D01*
X44127Y-49262D02*
X44652Y-49262D01*
X45604Y-49262D02*
X51458Y-49262D01*
X52477Y-49262D02*
X53427Y-49262D01*
X54446Y-49262D02*
X57380Y-49262D01*
X58567Y-49262D02*
X60333Y-49262D01*
X61520Y-49262D02*
X67441Y-49262D01*
X34527Y-49342D02*
X35920Y-49342D01*
X36521Y-49342D02*
X38857Y-49342D01*
X40867Y-49342D02*
X43202Y-49342D01*
X44100Y-49342D02*
X44678Y-49342D01*
X45577Y-49342D02*
X51495Y-49342D01*
X52441Y-49342D02*
X53464Y-49342D01*
X54410Y-49342D02*
X57413Y-49342D01*
X58534Y-49342D02*
X60366Y-49342D01*
X61487Y-49342D02*
X65108Y-49342D01*
X66387Y-49342D02*
X67441Y-49342D01*
X34527Y-49422D02*
X35777Y-49422D01*
X36664Y-49422D02*
X38777Y-49422D01*
X40888Y-49422D02*
X42053Y-49422D01*
X42594Y-49422D02*
X43249Y-49422D01*
X44054Y-49422D02*
X44725Y-49422D01*
X45531Y-49422D02*
X51575Y-49422D01*
X52361Y-49422D02*
X53544Y-49422D01*
X54330Y-49422D02*
X57471Y-49422D01*
X58476Y-49422D02*
X60424Y-49422D01*
X61429Y-49422D02*
X65020Y-49422D01*
X66477Y-49422D02*
X67441Y-49422D01*
X34527Y-49502D02*
X35697Y-49502D01*
X36744Y-49502D02*
X38719Y-49502D01*
X40888Y-49502D02*
X41933Y-49502D01*
X42714Y-49502D02*
X43344Y-49502D01*
X43958Y-49502D02*
X44079Y-49502D01*
X44506Y-49502D02*
X44820Y-49502D01*
X45435Y-49502D02*
X51664Y-49502D01*
X52271Y-49502D02*
X53633Y-49502D01*
X54240Y-49502D02*
X57551Y-49502D01*
X58396Y-49502D02*
X60504Y-49502D01*
X61349Y-49502D02*
X64942Y-49502D01*
X66556Y-49502D02*
X67441Y-49502D01*
X34527Y-49582D02*
X35617Y-49582D01*
X36824Y-49582D02*
X38686Y-49582D01*
X40888Y-49582D02*
X41844Y-49582D01*
X42803Y-49582D02*
X44082Y-49582D01*
X44502Y-49582D02*
X57661Y-49582D01*
X58286Y-49582D02*
X60614Y-49582D01*
X61239Y-49582D02*
X64909Y-49582D01*
X66589Y-49582D02*
X67441Y-49582D01*
X34527Y-49662D02*
X35579Y-49662D01*
X36862Y-49662D02*
X38653Y-49662D01*
X40888Y-49662D02*
X41791Y-49662D01*
X42856Y-49662D02*
X44162Y-49662D01*
X44422Y-49662D02*
X64875Y-49662D01*
X66622Y-49662D02*
X67441Y-49662D01*
X34527Y-49742D02*
X35545Y-49742D01*
X36895Y-49742D02*
X38639Y-49742D01*
X40888Y-49742D02*
X41737Y-49742D01*
X42910Y-49742D02*
X44242Y-49742D01*
X44342Y-49742D02*
X64861Y-49742D01*
X66635Y-49742D02*
X67441Y-49742D01*
X34527Y-49822D02*
X35512Y-49822D01*
X36928Y-49822D02*
X38639Y-49822D01*
X40888Y-49822D02*
X41716Y-49822D01*
X42931Y-49822D02*
X43761Y-49822D01*
X43906Y-49822D02*
X44678Y-49822D01*
X44824Y-49822D02*
X64861Y-49822D01*
X66635Y-49822D02*
X67441Y-49822D01*
X34527Y-49902D02*
X35498Y-49902D01*
X36942Y-49902D02*
X38639Y-49902D01*
X40888Y-49902D02*
X41700Y-49902D01*
X42947Y-49902D02*
X43748Y-49902D01*
X43986Y-49902D02*
X44598Y-49902D01*
X44840Y-49902D02*
X64861Y-49902D01*
X66635Y-49902D02*
X67441Y-49902D01*
X34527Y-49982D02*
X35498Y-49982D01*
X36942Y-49982D02*
X38655Y-49982D01*
X40888Y-49982D02*
X41684Y-49982D01*
X42963Y-49982D02*
X43734Y-49982D01*
X44066Y-49982D02*
X44518Y-49982D01*
X44856Y-49982D02*
X64891Y-49982D01*
X66604Y-49982D02*
X67441Y-49982D01*
X34527Y-50062D02*
X35498Y-50062D01*
X36942Y-50062D02*
X38688Y-50062D01*
X40888Y-50062D02*
X41680Y-50062D01*
X42966Y-50062D02*
X43737Y-50062D01*
X44022Y-50062D02*
X44562Y-50062D01*
X44842Y-50062D02*
X64924Y-50062D01*
X66570Y-50062D02*
X67441Y-50062D01*
X34527Y-50142D02*
X35498Y-50142D01*
X36942Y-50142D02*
X38721Y-50142D01*
X40888Y-50142D02*
X41680Y-50142D01*
X42966Y-50142D02*
X43753Y-50142D01*
X43942Y-50142D02*
X44642Y-50142D01*
X44829Y-50142D02*
X64979Y-50142D01*
X66516Y-50142D02*
X67441Y-50142D01*
X34527Y-50222D02*
X35531Y-50222D01*
X36909Y-50222D02*
X38783Y-50222D01*
X40888Y-50222D02*
X41680Y-50222D01*
X42966Y-50222D02*
X43813Y-50222D01*
X43862Y-50222D02*
X44278Y-50222D01*
X44306Y-50222D02*
X44722Y-50222D01*
X44770Y-50222D02*
X65059Y-50222D01*
X66436Y-50222D02*
X67441Y-50222D01*
X34527Y-50302D02*
X35564Y-50302D01*
X36876Y-50302D02*
X38863Y-50302D01*
X39664Y-50302D02*
X39664Y-50302D01*
X40863Y-50302D02*
X41680Y-50302D01*
X42966Y-50302D02*
X44198Y-50302D01*
X44386Y-50302D02*
X65205Y-50302D01*
X66291Y-50302D02*
X67441Y-50302D01*
X34527Y-50382D02*
X35597Y-50382D01*
X36842Y-50382D02*
X38989Y-50382D01*
X39538Y-50382D02*
X39725Y-50382D01*
X40803Y-50382D02*
X41680Y-50382D01*
X42966Y-50382D02*
X44118Y-50382D01*
X44466Y-50382D02*
X67441Y-50382D01*
X34527Y-50462D02*
X35662Y-50462D01*
X36777Y-50462D02*
X41680Y-50462D01*
X42966Y-50462D02*
X44063Y-50462D01*
X44520Y-50462D02*
X67441Y-50462D01*
X34527Y-50542D02*
X35742Y-50542D01*
X36697Y-50542D02*
X41680Y-50542D01*
X42966Y-50542D02*
X44178Y-50542D01*
X44418Y-50542D02*
X67441Y-50542D01*
X34527Y-50622D02*
X35837Y-50622D01*
X36601Y-50622D02*
X41680Y-50622D01*
X42966Y-50622D02*
X67441Y-50622D01*
X34527Y-50702D02*
X36030Y-50702D01*
X36408Y-50702D02*
X41680Y-50702D01*
X42966Y-50702D02*
X67441Y-50702D01*
X34527Y-50782D02*
X41680Y-50782D01*
X42966Y-50782D02*
X67441Y-50782D01*
X34527Y-50862D02*
X41680Y-50862D01*
X42966Y-50862D02*
X67441Y-50862D01*
X34527Y-50942D02*
X41680Y-50942D01*
X42966Y-50942D02*
X67441Y-50942D01*
X34527Y-51022D02*
X41680Y-51022D01*
X42966Y-51022D02*
X67441Y-51022D01*
X34527Y-51102D02*
X41680Y-51102D01*
X42966Y-51102D02*
X67441Y-51102D01*
X34527Y-51182D02*
X41680Y-51182D01*
X42966Y-51182D02*
X67441Y-51182D01*
X34527Y-51262D02*
X36038Y-51262D01*
X36403Y-51262D02*
X41680Y-51262D01*
X42966Y-51262D02*
X65240Y-51262D01*
X65601Y-51262D02*
X65895Y-51262D01*
X66256Y-51262D02*
X67441Y-51262D01*
X34527Y-51342D02*
X35846Y-51342D01*
X36596Y-51342D02*
X41680Y-51342D01*
X42966Y-51342D02*
X45665Y-51342D01*
X45873Y-51342D02*
X46335Y-51342D01*
X46396Y-51342D02*
X65094Y-51342D01*
X65601Y-51342D02*
X65895Y-51342D01*
X66403Y-51342D02*
X67441Y-51342D01*
X34527Y-51422D02*
X35746Y-51422D01*
X36695Y-51422D02*
X41680Y-51422D01*
X42966Y-51422D02*
X45500Y-51422D01*
X46036Y-51422D02*
X46150Y-51422D01*
X46545Y-51422D02*
X64999Y-51422D01*
X65601Y-51422D02*
X65895Y-51422D01*
X66498Y-51422D02*
X67441Y-51422D01*
X34527Y-51502D02*
X35666Y-51502D01*
X36775Y-51502D02*
X41680Y-51502D01*
X42966Y-51502D02*
X45420Y-51502D01*
X46497Y-51502D02*
X64946Y-51502D01*
X65601Y-51502D02*
X65895Y-51502D01*
X66551Y-51502D02*
X67441Y-51502D01*
X34527Y-51582D02*
X35599Y-51582D01*
X36842Y-51582D02*
X41680Y-51582D01*
X42966Y-51582D02*
X45374Y-51582D01*
X46417Y-51582D02*
X46681Y-51582D01*
X46686Y-51582D02*
X64934Y-51582D01*
X65601Y-51582D02*
X65895Y-51582D01*
X66561Y-51582D02*
X67441Y-51582D01*
X34527Y-51662D02*
X35566Y-51662D01*
X36875Y-51662D02*
X41680Y-51662D01*
X42966Y-51662D02*
X45341Y-51662D01*
X46260Y-51662D02*
X46601Y-51662D01*
X46775Y-51662D02*
X67441Y-51662D01*
X34527Y-51742D02*
X35533Y-51742D01*
X36908Y-51742D02*
X41680Y-51742D01*
X42966Y-51742D02*
X45331Y-51742D01*
X46205Y-51742D02*
X46521Y-51742D01*
X46789Y-51742D02*
X67441Y-51742D01*
X34527Y-51822D02*
X35499Y-51822D01*
X36941Y-51822D02*
X41680Y-51822D01*
X42966Y-51822D02*
X45331Y-51822D01*
X46205Y-51822D02*
X46540Y-51822D01*
X46786Y-51822D02*
X67441Y-51822D01*
X34527Y-51902D02*
X35498Y-51902D01*
X36942Y-51902D02*
X41680Y-51902D01*
X42966Y-51902D02*
X45349Y-51902D01*
X46281Y-51902D02*
X46620Y-51902D01*
X46768Y-51902D02*
X67441Y-51902D01*
X34527Y-51982D02*
X35498Y-51982D01*
X36942Y-51982D02*
X41680Y-51982D01*
X42966Y-51982D02*
X45381Y-51982D01*
X46438Y-51982D02*
X64925Y-51982D01*
X65601Y-51982D02*
X65895Y-51982D01*
X66571Y-51982D02*
X67441Y-51982D01*
X34527Y-52062D02*
X35498Y-52062D01*
X36942Y-52062D02*
X41680Y-52062D01*
X42966Y-52062D02*
X45440Y-52062D01*
X46518Y-52062D02*
X64960Y-52062D01*
X65601Y-52062D02*
X65895Y-52062D01*
X66535Y-52062D02*
X67441Y-52062D01*
X34527Y-52142D02*
X35510Y-52142D01*
X36929Y-52142D02*
X41680Y-52142D01*
X42966Y-52142D02*
X45520Y-52142D01*
X46015Y-52142D02*
X46171Y-52142D01*
X46540Y-52142D02*
X65013Y-52142D01*
X65601Y-52142D02*
X65895Y-52142D01*
X66483Y-52142D02*
X67441Y-52142D01*
X34527Y-52222D02*
X35544Y-52222D01*
X36896Y-52222D02*
X41680Y-52222D01*
X42966Y-52222D02*
X65123Y-52222D01*
X65601Y-52222D02*
X65895Y-52222D01*
X66372Y-52222D02*
X67441Y-52222D01*
X34527Y-52302D02*
X35577Y-52302D01*
X36863Y-52302D02*
X41680Y-52302D01*
X42966Y-52302D02*
X65334Y-52302D01*
X65601Y-52302D02*
X65895Y-52302D01*
X66162Y-52302D02*
X67441Y-52302D01*
X34527Y-52382D02*
X35613Y-52382D01*
X36826Y-52382D02*
X41680Y-52382D01*
X42966Y-52382D02*
X67441Y-52382D01*
X34527Y-52462D02*
X35693Y-52462D01*
X36746Y-52462D02*
X41680Y-52462D01*
X42966Y-52462D02*
X67441Y-52462D01*
X34527Y-52542D02*
X35773Y-52542D01*
X36666Y-52542D02*
X41680Y-52542D01*
X42966Y-52542D02*
X67441Y-52542D01*
X34527Y-52622D02*
X35912Y-52622D01*
X36526Y-52622D02*
X41680Y-52622D01*
X42966Y-52622D02*
X46819Y-52622D01*
X47079Y-52622D02*
X67441Y-52622D01*
X34527Y-52702D02*
X41680Y-52702D01*
X42966Y-52702D02*
X46667Y-52702D01*
X47231Y-52702D02*
X67441Y-52702D01*
X34527Y-52782D02*
X41680Y-52782D01*
X42966Y-52782D02*
X46587Y-52782D01*
X47311Y-52782D02*
X67441Y-52782D01*
X34527Y-52862D02*
X41680Y-52862D01*
X42966Y-52862D02*
X46544Y-52862D01*
X47354Y-52862D02*
X67441Y-52862D01*
X34527Y-52942D02*
X41680Y-52942D01*
X42966Y-52942D02*
X46512Y-52942D01*
X47387Y-52942D02*
X67441Y-52942D01*
X34527Y-53022D02*
X41680Y-53022D01*
X42966Y-53022D02*
X46503Y-53022D01*
X47395Y-53022D02*
X67441Y-53022D01*
X34527Y-53102D02*
X41680Y-53102D01*
X42966Y-53102D02*
X46502Y-53102D01*
X47396Y-53102D02*
X67441Y-53102D01*
X34527Y-53182D02*
X41680Y-53182D01*
X42966Y-53182D02*
X46502Y-53182D01*
X47396Y-53182D02*
X67441Y-53182D01*
X34527Y-53262D02*
X41680Y-53262D01*
X42966Y-53262D02*
X46502Y-53262D01*
X47396Y-53262D02*
X65149Y-53262D01*
X66346Y-53262D02*
X67441Y-53262D01*
X34527Y-53342D02*
X41680Y-53342D01*
X42966Y-53342D02*
X46502Y-53342D01*
X47396Y-53342D02*
X65037Y-53342D01*
X66460Y-53342D02*
X67441Y-53342D01*
X34527Y-53422D02*
X35711Y-53422D01*
X36730Y-53422D02*
X41680Y-53422D01*
X42966Y-53422D02*
X46502Y-53422D01*
X47396Y-53422D02*
X64957Y-53422D01*
X66540Y-53422D02*
X67441Y-53422D01*
X34527Y-53502D02*
X35546Y-53502D01*
X36895Y-53502D02*
X41680Y-53502D01*
X42966Y-53502D02*
X46502Y-53502D01*
X47396Y-53502D02*
X64916Y-53502D01*
X66582Y-53502D02*
X67441Y-53502D01*
X34527Y-53582D02*
X35466Y-53582D01*
X36975Y-53582D02*
X41680Y-53582D01*
X42966Y-53582D02*
X46502Y-53582D01*
X47396Y-53582D02*
X64882Y-53582D01*
X66615Y-53582D02*
X67441Y-53582D01*
X34527Y-53662D02*
X35403Y-53662D01*
X37038Y-53662D02*
X41680Y-53662D01*
X42966Y-53662D02*
X46502Y-53662D01*
X47396Y-53662D02*
X64861Y-53662D01*
X66635Y-53662D02*
X67441Y-53662D01*
X34527Y-53742D02*
X35370Y-53742D01*
X37071Y-53742D02*
X41680Y-53742D01*
X42966Y-53742D02*
X46502Y-53742D01*
X47396Y-53742D02*
X64861Y-53742D01*
X66635Y-53742D02*
X67441Y-53742D01*
X34527Y-53822D02*
X35336Y-53822D01*
X37104Y-53822D02*
X41680Y-53822D01*
X42966Y-53822D02*
X46502Y-53822D01*
X47396Y-53822D02*
X64861Y-53822D01*
X66635Y-53822D02*
X67441Y-53822D01*
X34527Y-53902D02*
X35333Y-53902D01*
X37107Y-53902D02*
X41680Y-53902D01*
X42966Y-53902D02*
X46502Y-53902D01*
X47396Y-53902D02*
X64884Y-53902D01*
X66611Y-53902D02*
X67441Y-53902D01*
X34527Y-53982D02*
X35333Y-53982D01*
X37107Y-53982D02*
X41680Y-53982D01*
X42966Y-53982D02*
X46502Y-53982D01*
X47396Y-53982D02*
X64917Y-53982D01*
X66578Y-53982D02*
X67441Y-53982D01*
X34527Y-54062D02*
X35341Y-54062D01*
X37099Y-54062D02*
X41680Y-54062D01*
X42966Y-54062D02*
X46502Y-54062D01*
X47396Y-54062D02*
X64962Y-54062D01*
X66533Y-54062D02*
X67441Y-54062D01*
X34527Y-54142D02*
X35374Y-54142D01*
X37065Y-54142D02*
X41680Y-54142D01*
X42966Y-54142D02*
X46502Y-54142D01*
X47396Y-54142D02*
X65042Y-54142D01*
X66453Y-54142D02*
X67441Y-54142D01*
X34527Y-54222D02*
X35407Y-54222D01*
X37032Y-54222D02*
X41680Y-54222D01*
X42966Y-54222D02*
X46502Y-54222D01*
X47396Y-54222D02*
X65164Y-54222D01*
X66332Y-54222D02*
X67441Y-54222D01*
X34527Y-54302D02*
X35477Y-54302D01*
X36962Y-54302D02*
X41680Y-54302D01*
X42966Y-54302D02*
X46502Y-54302D01*
X47396Y-54302D02*
X67441Y-54302D01*
X34527Y-54382D02*
X35557Y-54382D01*
X36882Y-54382D02*
X41680Y-54382D01*
X42966Y-54382D02*
X46502Y-54382D01*
X47396Y-54382D02*
X67441Y-54382D01*
X34527Y-54462D02*
X35739Y-54462D01*
X36699Y-54462D02*
X41680Y-54462D01*
X42966Y-54462D02*
X46503Y-54462D01*
X47395Y-54462D02*
X67441Y-54462D01*
X34527Y-54542D02*
X41680Y-54542D01*
X42966Y-54542D02*
X46513Y-54542D01*
X47384Y-54542D02*
X67441Y-54542D01*
X34527Y-54622D02*
X41680Y-54622D01*
X42966Y-54622D02*
X46546Y-54622D01*
X47351Y-54622D02*
X67441Y-54622D01*
X34527Y-54702D02*
X41680Y-54702D01*
X42966Y-54702D02*
X46591Y-54702D01*
X47306Y-54702D02*
X67441Y-54702D01*
X34527Y-54782D02*
X41680Y-54782D01*
X42966Y-54782D02*
X46671Y-54782D01*
X47226Y-54782D02*
X67441Y-54782D01*
X34527Y-54862D02*
X41680Y-54862D01*
X42966Y-54862D02*
X46829Y-54862D01*
X47067Y-54862D02*
X67441Y-54862D01*
X34527Y-54942D02*
X41680Y-54942D01*
X42966Y-54942D02*
X67441Y-54942D01*
X34527Y-55022D02*
X41680Y-55022D01*
X42966Y-55022D02*
X67441Y-55022D01*
X34527Y-55102D02*
X41680Y-55102D01*
X42966Y-55102D02*
X67441Y-55102D01*
X34527Y-55182D02*
X41680Y-55182D01*
X42966Y-55182D02*
X65311Y-55182D01*
X65601Y-55182D02*
X65895Y-55182D01*
X66184Y-55182D02*
X67441Y-55182D01*
X34527Y-55262D02*
X41680Y-55262D01*
X42966Y-55262D02*
X65117Y-55262D01*
X65601Y-55262D02*
X65895Y-55262D01*
X66380Y-55262D02*
X67441Y-55262D01*
X34527Y-55342D02*
X41680Y-55342D01*
X42966Y-55342D02*
X65010Y-55342D01*
X65601Y-55342D02*
X65895Y-55342D01*
X66487Y-55342D02*
X67441Y-55342D01*
X34527Y-55422D02*
X35641Y-55422D01*
X36073Y-55422D02*
X36367Y-55422D01*
X36800Y-55422D02*
X41680Y-55422D01*
X42966Y-55422D02*
X64957Y-55422D01*
X65601Y-55422D02*
X65895Y-55422D01*
X66540Y-55422D02*
X67441Y-55422D01*
X34527Y-55502D02*
X35530Y-55502D01*
X36073Y-55502D02*
X36367Y-55502D01*
X36911Y-55502D02*
X41680Y-55502D01*
X42966Y-55502D02*
X64927Y-55502D01*
X65601Y-55502D02*
X65895Y-55502D01*
X66568Y-55502D02*
X67441Y-55502D01*
X34527Y-55582D02*
X35454Y-55582D01*
X36073Y-55582D02*
X36367Y-55582D01*
X36987Y-55582D02*
X41680Y-55582D01*
X42966Y-55582D02*
X67441Y-55582D01*
X34527Y-55662D02*
X35401Y-55662D01*
X36073Y-55662D02*
X36367Y-55662D01*
X37040Y-55662D02*
X41680Y-55662D01*
X42966Y-55662D02*
X67441Y-55662D01*
X34527Y-55742D02*
X35418Y-55742D01*
X36073Y-55742D02*
X36367Y-55742D01*
X37022Y-55742D02*
X41680Y-55742D01*
X42966Y-55742D02*
X67441Y-55742D01*
X34527Y-55822D02*
X41680Y-55822D01*
X42966Y-55822D02*
X67441Y-55822D01*
X34527Y-55902D02*
X41680Y-55902D01*
X42966Y-55902D02*
X57728Y-55902D01*
X58220Y-55902D02*
X60681Y-55902D01*
X61173Y-55902D02*
X64933Y-55902D01*
X65601Y-55902D02*
X65895Y-55902D01*
X66564Y-55902D02*
X67441Y-55902D01*
X34527Y-55982D02*
X41680Y-55982D01*
X42966Y-55982D02*
X51733Y-55982D01*
X52204Y-55982D02*
X53702Y-55982D01*
X54173Y-55982D02*
X57580Y-55982D01*
X58369Y-55982D02*
X60533Y-55982D01*
X61322Y-55982D02*
X64949Y-55982D01*
X65601Y-55982D02*
X65895Y-55982D01*
X66546Y-55982D02*
X67441Y-55982D01*
X34527Y-56062D02*
X35421Y-56062D01*
X36073Y-56062D02*
X36367Y-56062D01*
X37020Y-56062D02*
X41680Y-56062D01*
X42966Y-56062D02*
X51603Y-56062D01*
X52333Y-56062D02*
X53572Y-56062D01*
X54302Y-56062D02*
X57500Y-56062D01*
X58449Y-56062D02*
X60453Y-56062D01*
X61402Y-56062D02*
X65001Y-56062D01*
X65601Y-56062D02*
X65895Y-56062D01*
X66494Y-56062D02*
X67441Y-56062D01*
X34527Y-56142D02*
X35396Y-56142D01*
X36073Y-56142D02*
X36367Y-56142D01*
X37043Y-56142D02*
X41680Y-56142D01*
X42966Y-56142D02*
X51523Y-56142D01*
X52413Y-56142D02*
X53492Y-56142D01*
X54382Y-56142D02*
X57426Y-56142D01*
X58523Y-56142D02*
X60379Y-56142D01*
X61476Y-56142D02*
X65100Y-56142D01*
X65601Y-56142D02*
X65895Y-56142D01*
X66395Y-56142D02*
X67441Y-56142D01*
X34527Y-56222D02*
X35449Y-56222D01*
X36073Y-56222D02*
X36367Y-56222D01*
X36990Y-56222D02*
X41680Y-56222D01*
X42966Y-56222D02*
X51470Y-56222D01*
X52467Y-56222D02*
X53439Y-56222D01*
X54436Y-56222D02*
X57392Y-56222D01*
X58556Y-56222D02*
X60345Y-56222D01*
X61509Y-56222D02*
X65263Y-56222D01*
X65601Y-56222D02*
X65895Y-56222D01*
X66233Y-56222D02*
X67441Y-56222D01*
X34527Y-56302D02*
X35520Y-56302D01*
X36073Y-56302D02*
X36367Y-56302D01*
X36919Y-56302D02*
X41680Y-56302D01*
X42966Y-56302D02*
X51437Y-56302D01*
X52500Y-56302D02*
X53406Y-56302D01*
X54469Y-56302D02*
X57359Y-56302D01*
X58590Y-56302D02*
X60312Y-56302D01*
X61543Y-56302D02*
X67441Y-56302D01*
X34527Y-56382D02*
X35631Y-56382D01*
X36073Y-56382D02*
X36367Y-56382D01*
X36808Y-56382D02*
X41680Y-56382D01*
X42966Y-56382D02*
X51404Y-56382D01*
X52533Y-56382D02*
X53373Y-56382D01*
X54502Y-56382D02*
X57331Y-56382D01*
X58617Y-56382D02*
X60284Y-56382D01*
X61570Y-56382D02*
X67441Y-56382D01*
X34527Y-56462D02*
X41680Y-56462D01*
X42966Y-56462D02*
X51403Y-56462D01*
X52533Y-56462D02*
X53372Y-56462D01*
X54502Y-56462D02*
X57331Y-56462D01*
X58617Y-56462D02*
X60284Y-56462D01*
X61570Y-56462D02*
X67441Y-56462D01*
X34527Y-56542D02*
X41680Y-56542D01*
X42966Y-56542D02*
X51403Y-56542D01*
X52533Y-56542D02*
X53372Y-56542D01*
X54502Y-56542D02*
X57331Y-56542D01*
X58617Y-56542D02*
X60284Y-56542D01*
X61570Y-56542D02*
X67441Y-56542D01*
X34527Y-56622D02*
X41680Y-56622D01*
X42966Y-56622D02*
X51408Y-56622D01*
X52527Y-56622D02*
X53377Y-56622D01*
X54496Y-56622D02*
X57331Y-56622D01*
X58617Y-56622D02*
X60284Y-56622D01*
X61570Y-56622D02*
X67441Y-56622D01*
X34527Y-56702D02*
X41680Y-56702D01*
X42966Y-56702D02*
X51441Y-56702D01*
X52494Y-56702D02*
X53410Y-56702D01*
X54463Y-56702D02*
X57363Y-56702D01*
X58584Y-56702D02*
X60316Y-56702D01*
X61537Y-56702D02*
X67441Y-56702D01*
X34527Y-56782D02*
X41680Y-56782D01*
X42966Y-56782D02*
X51474Y-56782D01*
X52461Y-56782D02*
X53443Y-56782D01*
X54430Y-56782D02*
X57397Y-56782D01*
X58551Y-56782D02*
X60350Y-56782D01*
X61504Y-56782D02*
X67441Y-56782D01*
X34527Y-56862D02*
X41680Y-56862D01*
X42966Y-56862D02*
X51535Y-56862D01*
X52401Y-56862D02*
X53504Y-56862D01*
X54370Y-56862D02*
X57431Y-56862D01*
X58516Y-56862D02*
X60384Y-56862D01*
X61469Y-56862D02*
X67441Y-56862D01*
X34527Y-56942D02*
X41680Y-56942D01*
X42966Y-56942D02*
X51615Y-56942D01*
X52321Y-56942D02*
X53584Y-56942D01*
X54290Y-56942D02*
X57511Y-56942D01*
X58436Y-56942D02*
X60464Y-56942D01*
X61389Y-56942D02*
X67441Y-56942D01*
X34527Y-57022D02*
X41680Y-57022D01*
X42966Y-57022D02*
X51761Y-57022D01*
X52174Y-57022D02*
X53730Y-57022D01*
X54143Y-57022D02*
X57591Y-57022D01*
X58356Y-57022D02*
X60544Y-57022D01*
X61309Y-57022D02*
X67441Y-57022D01*
X34527Y-57102D02*
X41680Y-57102D01*
X42966Y-57102D02*
X57756Y-57102D01*
X58190Y-57102D02*
X60709Y-57102D01*
X61143Y-57102D02*
X67441Y-57102D01*
X34527Y-57182D02*
X41680Y-57182D01*
X42966Y-57182D02*
X67441Y-57182D01*
X34527Y-57262D02*
X41680Y-57262D01*
X42966Y-57262D02*
X67441Y-57262D01*
X34527Y-57342D02*
X35752Y-57342D01*
X36689Y-57342D02*
X41680Y-57342D01*
X42966Y-57342D02*
X67441Y-57342D01*
X34527Y-57422D02*
X35563Y-57422D01*
X36878Y-57422D02*
X41680Y-57422D01*
X42966Y-57422D02*
X67441Y-57422D01*
X34527Y-57502D02*
X35483Y-57502D01*
X36958Y-57502D02*
X41680Y-57502D01*
X42966Y-57502D02*
X67441Y-57502D01*
X34527Y-57582D02*
X35410Y-57582D01*
X37031Y-57582D02*
X41680Y-57582D01*
X42966Y-57582D02*
X67441Y-57582D01*
X34527Y-57662D02*
X35377Y-57662D01*
X37064Y-57662D02*
X41680Y-57662D01*
X42966Y-57662D02*
X67441Y-57662D01*
X34527Y-57742D02*
X35344Y-57742D01*
X37097Y-57742D02*
X41680Y-57742D01*
X42966Y-57742D02*
X67441Y-57742D01*
X34527Y-57822D02*
X35333Y-57822D01*
X37107Y-57822D02*
X41680Y-57822D01*
X42966Y-57822D02*
X67441Y-57822D01*
X34527Y-57902D02*
X35333Y-57902D01*
X37107Y-57902D02*
X41680Y-57902D01*
X42966Y-57902D02*
X67441Y-57902D01*
X34527Y-57982D02*
X35334Y-57982D01*
X37106Y-57982D02*
X41680Y-57982D01*
X42966Y-57982D02*
X67441Y-57982D01*
X34527Y-58062D02*
X35367Y-58062D01*
X37072Y-58062D02*
X41680Y-58062D01*
X42966Y-58062D02*
X67441Y-58062D01*
X34527Y-58142D02*
X35400Y-58142D01*
X37039Y-58142D02*
X41680Y-58142D01*
X42966Y-58142D02*
X44087Y-58142D01*
X44498Y-58142D02*
X67441Y-58142D01*
X34527Y-58222D02*
X35460Y-58222D01*
X36979Y-58222D02*
X41680Y-58222D01*
X42966Y-58222D02*
X44061Y-58222D01*
X44523Y-58222D02*
X67441Y-58222D01*
X34527Y-58302D02*
X35540Y-58302D01*
X36899Y-58302D02*
X41680Y-58302D01*
X42966Y-58302D02*
X44141Y-58302D01*
X44443Y-58302D02*
X67441Y-58302D01*
X34527Y-58382D02*
X35698Y-58382D01*
X36741Y-58382D02*
X41680Y-58382D01*
X42966Y-58382D02*
X44221Y-58382D01*
X44363Y-58382D02*
X67441Y-58382D01*
X34527Y-58462D02*
X41680Y-58462D01*
X42966Y-58462D02*
X43765Y-58462D01*
X43885Y-58462D02*
X44699Y-58462D01*
X44820Y-58462D02*
X67441Y-58462D01*
X34527Y-58542D02*
X41680Y-58542D01*
X42966Y-58542D02*
X43751Y-58542D01*
X43965Y-58542D02*
X44619Y-58542D01*
X44836Y-58542D02*
X67441Y-58542D01*
X34527Y-58622D02*
X41680Y-58622D01*
X42966Y-58622D02*
X43738Y-58622D01*
X44045Y-58622D02*
X44539Y-58622D01*
X44852Y-58622D02*
X67441Y-58622D01*
X34527Y-58702D02*
X41688Y-58702D01*
X42957Y-58702D02*
X43733Y-58702D01*
X44043Y-58702D02*
X44541Y-58702D01*
X44846Y-58702D02*
X67441Y-58702D01*
X34527Y-58782D02*
X41704Y-58782D01*
X42941Y-58782D02*
X43748Y-58782D01*
X43963Y-58782D02*
X44621Y-58782D01*
X44832Y-58782D02*
X67441Y-58782D01*
X34527Y-58862D02*
X41720Y-58862D01*
X42925Y-58862D02*
X43764Y-58862D01*
X43883Y-58862D02*
X44701Y-58862D01*
X44819Y-58862D02*
X67441Y-58862D01*
X34527Y-58942D02*
X41752Y-58942D01*
X42893Y-58942D02*
X44219Y-58942D01*
X44365Y-58942D02*
X67441Y-58942D01*
X34527Y-59022D02*
X41805Y-59022D01*
X42840Y-59022D02*
X44139Y-59022D01*
X44445Y-59022D02*
X67441Y-59022D01*
X34527Y-59102D02*
X41858Y-59102D01*
X42787Y-59102D02*
X44059Y-59102D01*
X44525Y-59102D02*
X67441Y-59102D01*
X34527Y-59182D02*
X41967Y-59182D01*
X42678Y-59182D02*
X44087Y-59182D01*
X44496Y-59182D02*
X67441Y-59182D01*
X34527Y-59262D02*
X42112Y-59262D01*
X42533Y-59262D02*
X67441Y-59262D01*
X34527Y-59342D02*
X35675Y-59342D01*
X36073Y-59342D02*
X36367Y-59342D01*
X36766Y-59342D02*
X67441Y-59342D01*
X34527Y-59422D02*
X35553Y-59422D01*
X36073Y-59422D02*
X36367Y-59422D01*
X36888Y-59422D02*
X67441Y-59422D01*
X34527Y-59502D02*
X35465Y-59502D01*
X36073Y-59502D02*
X36367Y-59502D01*
X36976Y-59502D02*
X67441Y-59502D01*
X34527Y-59582D02*
X35412Y-59582D01*
X36073Y-59582D02*
X36367Y-59582D01*
X37029Y-59582D02*
X67441Y-59582D01*
X34527Y-59662D02*
X35410Y-59662D01*
X36073Y-59662D02*
X36367Y-59662D01*
X37029Y-59662D02*
X67441Y-59662D01*
X34527Y-59742D02*
X67441Y-59742D01*
X34527Y-59822D02*
X67441Y-59822D01*
X34527Y-59902D02*
X67441Y-59902D01*
X34527Y-59982D02*
X39506Y-59982D01*
X40024Y-59982D02*
X66277Y-59982D01*
X66795Y-59982D02*
X67441Y-59982D01*
X34527Y-60062D02*
X35394Y-60062D01*
X36073Y-60062D02*
X36367Y-60062D01*
X37047Y-60062D02*
X39312Y-60062D01*
X40216Y-60062D02*
X66083Y-60062D01*
X66987Y-60062D02*
X67441Y-60062D01*
X34527Y-60142D02*
X35438Y-60142D01*
X36073Y-60142D02*
X36367Y-60142D01*
X37001Y-60142D02*
X39205Y-60142D01*
X40323Y-60142D02*
X65976Y-60142D01*
X67094Y-60142D02*
X67441Y-60142D01*
X34527Y-60222D02*
X35497Y-60222D01*
X36073Y-60222D02*
X36367Y-60222D01*
X36942Y-60222D02*
X39125Y-60222D01*
X40403Y-60222D02*
X65896Y-60222D01*
X67174Y-60222D02*
X67441Y-60222D01*
X34527Y-60302D02*
X35608Y-60302D01*
X36073Y-60302D02*
X36367Y-60302D01*
X36831Y-60302D02*
X39045Y-60302D01*
X40483Y-60302D02*
X65816Y-60302D01*
X67254Y-60302D02*
X67441Y-60302D01*
X34527Y-60382D02*
X35844Y-60382D01*
X36073Y-60382D02*
X36367Y-60382D01*
X36596Y-60382D02*
X38997Y-60382D01*
X40532Y-60382D02*
X65768Y-60382D01*
X67303Y-60382D02*
X67441Y-60382D01*
X34527Y-60462D02*
X38963Y-60462D01*
X40566Y-60462D02*
X65734Y-60462D01*
X67337Y-60462D02*
X67441Y-60462D01*
X34527Y-60542D02*
X38930Y-60542D01*
X40599Y-60542D02*
X65701Y-60542D01*
X67370Y-60542D02*
X67441Y-60542D01*
X34527Y-60622D02*
X38897Y-60622D01*
X40632Y-60622D02*
X65668Y-60622D01*
X67403Y-60622D02*
X67441Y-60622D01*
X34527Y-60702D02*
X38884Y-60702D01*
X40644Y-60702D02*
X65655Y-60702D01*
X67415Y-60702D02*
X67441Y-60702D01*
X34527Y-60782D02*
X38884Y-60782D01*
X40644Y-60782D02*
X65655Y-60782D01*
X67415Y-60782D02*
X67441Y-60782D01*
X34527Y-60862D02*
X38884Y-60862D01*
X40644Y-60862D02*
X65655Y-60862D01*
X67415Y-60862D02*
X67441Y-60862D01*
X34527Y-60942D02*
X38884Y-60942D01*
X40644Y-60942D02*
X65655Y-60942D01*
X67415Y-60942D02*
X67441Y-60942D01*
X34527Y-61022D02*
X38892Y-61022D01*
X40636Y-61022D02*
X65663Y-61022D01*
X67407Y-61022D02*
X67441Y-61022D01*
X34527Y-61102D02*
X38925Y-61102D01*
X40602Y-61102D02*
X65696Y-61102D01*
X67373Y-61102D02*
X67441Y-61102D01*
X34527Y-61182D02*
X38958Y-61182D01*
X40569Y-61182D02*
X65729Y-61182D01*
X67340Y-61182D02*
X67441Y-61182D01*
X34527Y-61262D02*
X38991Y-61262D01*
X40535Y-61262D02*
X65762Y-61262D01*
X67306Y-61262D02*
X67441Y-61262D01*
X34527Y-61342D02*
X39035Y-61342D01*
X40493Y-61342D02*
X65806Y-61342D01*
X67264Y-61342D02*
X67441Y-61342D01*
X34527Y-61422D02*
X39115Y-61422D01*
X40413Y-61422D02*
X65886Y-61422D01*
X67184Y-61422D02*
X67441Y-61422D01*
X34527Y-61502D02*
X39195Y-61502D01*
X40333Y-61502D02*
X65966Y-61502D01*
X67104Y-61502D02*
X67441Y-61502D01*
X34527Y-61582D02*
X39288Y-61582D01*
X40240Y-61582D02*
X66059Y-61582D01*
X67011Y-61582D02*
X67441Y-61582D01*
X34527Y-61662D02*
X39480Y-61662D01*
X40046Y-61662D02*
X66251Y-61662D01*
X66817Y-61662D02*
X67441Y-61662D01*
X34527Y-61742D02*
X67441Y-61742D01*
X34527Y-61822D02*
X67441Y-61822D01*
X34527Y-61902D02*
X67441Y-61902D01*
X67441Y-61930D02*
X67441Y-43582D01*
X34527Y-43582D01*
X34527Y-61930D01*
X35865Y-61930D01*
X35865Y-60387D01*
X35761Y-60362D01*
X35658Y-60338D01*
X35485Y-60213D01*
X35390Y-60069D01*
X35425Y-59989D01*
X35761Y-59989D01*
X35761Y-59695D01*
X35425Y-59695D01*
X35390Y-59615D01*
X35485Y-59471D01*
X35658Y-59346D01*
X35761Y-59321D01*
X35761Y-58408D01*
X35565Y-58326D01*
X35414Y-58176D01*
X35333Y-57979D01*
X35333Y-57766D01*
X35415Y-57570D01*
X35565Y-57419D01*
X35761Y-57338D01*
X35865Y-57338D01*
X35865Y-56450D01*
X35761Y-56425D01*
X35658Y-56401D01*
X35485Y-56276D01*
X35390Y-56132D01*
X35425Y-56052D01*
X35761Y-56052D01*
X35761Y-55758D01*
X35425Y-55758D01*
X35390Y-55678D01*
X35485Y-55534D01*
X35658Y-55409D01*
X35761Y-55384D01*
X35761Y-54471D01*
X35565Y-54389D01*
X35414Y-54239D01*
X35333Y-54042D01*
X35333Y-53829D01*
X35415Y-53633D01*
X35565Y-53482D01*
X35762Y-53401D01*
X36076Y-53401D01*
X36076Y-52690D01*
X35811Y-52580D01*
X35608Y-52376D01*
X35498Y-52111D01*
X35498Y-51824D01*
X35608Y-51559D01*
X35812Y-51356D01*
X36076Y-51246D01*
X36076Y-50721D01*
X35811Y-50611D01*
X35608Y-50407D01*
X35498Y-50142D01*
X35498Y-49855D01*
X35608Y-49590D01*
X35812Y-49387D01*
X36076Y-49277D01*
X36076Y-48753D01*
X35811Y-48643D01*
X35608Y-48439D01*
X35498Y-48174D01*
X35498Y-47887D01*
X35608Y-47622D01*
X35661Y-47569D01*
X35661Y-46413D01*
X35562Y-46358D01*
X35546Y-46317D01*
X35499Y-46040D01*
X35562Y-45766D01*
X35661Y-45711D01*
X36012Y-46062D01*
X35661Y-46413D01*
X35661Y-47569D01*
X35812Y-47419D01*
X36077Y-47309D01*
X36198Y-47309D01*
X36198Y-46783D01*
X35924Y-46720D01*
X35869Y-46621D01*
X36220Y-46270D01*
X36220Y-45854D01*
X35869Y-45503D01*
X35924Y-45404D01*
X35965Y-45388D01*
X36242Y-45341D01*
X36516Y-45404D01*
X36571Y-45503D01*
X36220Y-45854D01*
X36220Y-46270D01*
X36571Y-46621D01*
X36516Y-46720D01*
X36475Y-46736D01*
X36198Y-46783D01*
X36198Y-47309D01*
X36364Y-47309D01*
X36629Y-47419D01*
X36779Y-47569D01*
X36779Y-46413D01*
X36428Y-46062D01*
X36779Y-45711D01*
X36878Y-45766D01*
X36894Y-45807D01*
X36941Y-46084D01*
X36878Y-46358D01*
X36779Y-46413D01*
X36779Y-47569D01*
X36832Y-47623D01*
X36942Y-47888D01*
X36942Y-48175D01*
X36832Y-48440D01*
X36628Y-48643D01*
X36363Y-48753D01*
X36076Y-48753D01*
X36076Y-49277D01*
X36364Y-49277D01*
X36629Y-49387D01*
X36832Y-49591D01*
X36942Y-49856D01*
X36942Y-50143D01*
X36832Y-50408D01*
X36628Y-50611D01*
X36363Y-50721D01*
X36076Y-50721D01*
X36076Y-51246D01*
X36364Y-51246D01*
X36629Y-51356D01*
X36832Y-51560D01*
X36942Y-51825D01*
X36942Y-52112D01*
X36832Y-52377D01*
X36628Y-52580D01*
X36363Y-52690D01*
X36076Y-52690D01*
X36076Y-53401D01*
X36679Y-53401D01*
X36875Y-53483D01*
X37026Y-53633D01*
X37107Y-53830D01*
X37107Y-54043D01*
X37025Y-54239D01*
X36875Y-54390D01*
X36678Y-54471D01*
X35761Y-54471D01*
X35761Y-55384D01*
X35865Y-55360D01*
X36073Y-55360D01*
X36073Y-55758D01*
X35761Y-55758D01*
X35761Y-56052D01*
X36073Y-56052D01*
X36073Y-56450D01*
X35865Y-56450D01*
X35865Y-57338D01*
X36367Y-57338D01*
X36367Y-56450D01*
X36367Y-56052D01*
X36367Y-55758D01*
X36367Y-55360D01*
X36575Y-55360D01*
X36782Y-55409D01*
X36955Y-55534D01*
X37050Y-55678D01*
X37015Y-55758D01*
X36367Y-55758D01*
X36367Y-56052D01*
X37015Y-56052D01*
X37050Y-56132D01*
X36955Y-56276D01*
X36782Y-56401D01*
X36575Y-56450D01*
X36367Y-56450D01*
X36367Y-57338D01*
X36679Y-57338D01*
X36875Y-57420D01*
X37026Y-57570D01*
X37107Y-57767D01*
X37107Y-57980D01*
X37025Y-58176D01*
X36875Y-58327D01*
X36678Y-58408D01*
X35761Y-58408D01*
X35761Y-59321D01*
X35865Y-59297D01*
X36073Y-59297D01*
X36073Y-59695D01*
X35761Y-59695D01*
X35761Y-59989D01*
X36073Y-59989D01*
X36073Y-60387D01*
X35865Y-60387D01*
X35865Y-61930D01*
X36367Y-61930D01*
X36367Y-60387D01*
X36367Y-59989D01*
X36367Y-59695D01*
X36367Y-59297D01*
X36575Y-59297D01*
X36782Y-59346D01*
X36955Y-59471D01*
X37050Y-59615D01*
X37015Y-59695D01*
X36367Y-59695D01*
X36367Y-59989D01*
X37015Y-59989D01*
X37050Y-60069D01*
X36955Y-60213D01*
X36782Y-60338D01*
X36575Y-60387D01*
X36367Y-60387D01*
X36367Y-61930D01*
X39588Y-61930D01*
X39588Y-61707D01*
X39265Y-61572D01*
X39018Y-61325D01*
X38884Y-61001D01*
X38884Y-60651D01*
X39019Y-60328D01*
X39139Y-60208D01*
X39139Y-50444D01*
X38910Y-50349D01*
X38734Y-50173D01*
X38639Y-49943D01*
X38639Y-49694D01*
X38734Y-49465D01*
X38880Y-49318D01*
X38734Y-49173D01*
X38639Y-48943D01*
X38639Y-48694D01*
X38734Y-48465D01*
X38776Y-48423D01*
X38776Y-48099D01*
X38686Y-48057D01*
X38639Y-47820D01*
X38686Y-47581D01*
X38776Y-47539D01*
X39056Y-47819D01*
X38776Y-48099D01*
X38776Y-48423D01*
X38910Y-48289D01*
X39066Y-48224D01*
X39264Y-48027D01*
X39264Y-47611D01*
X38984Y-47331D01*
X39026Y-47241D01*
X39263Y-47194D01*
X39502Y-47241D01*
X39544Y-47331D01*
X39264Y-47611D01*
X39264Y-48027D01*
X39460Y-48223D01*
X39588Y-48276D01*
X39618Y-48289D01*
X39764Y-48434D01*
X39880Y-48318D01*
X39734Y-48173D01*
X39669Y-48016D01*
X39472Y-47819D01*
X39588Y-47703D01*
X39588Y-45959D01*
X39265Y-45824D01*
X39018Y-45577D01*
X38884Y-45253D01*
X38884Y-44903D01*
X39019Y-44580D01*
X39266Y-44333D01*
X39590Y-44199D01*
X39940Y-44199D01*
X40263Y-44334D01*
X40510Y-44581D01*
X40644Y-44905D01*
X40644Y-45255D01*
X40509Y-45578D01*
X40262Y-45825D01*
X39938Y-45959D01*
X39588Y-45959D01*
X39588Y-47703D01*
X39668Y-47622D01*
X39734Y-47465D01*
X39910Y-47289D01*
X40140Y-47194D01*
X40389Y-47194D01*
X40618Y-47289D01*
X40794Y-47465D01*
X40889Y-47695D01*
X40889Y-47944D01*
X40794Y-48173D01*
X40647Y-48318D01*
X40794Y-48465D01*
X40889Y-48695D01*
X40889Y-48944D01*
X40794Y-49173D01*
X40747Y-49219D01*
X40780Y-49233D01*
X40850Y-49303D01*
X40888Y-49395D01*
X40888Y-50244D01*
X40850Y-50335D01*
X40780Y-50405D01*
X40688Y-50443D01*
X39839Y-50443D01*
X39748Y-50405D01*
X39678Y-50335D01*
X39664Y-50302D01*
X39618Y-50349D01*
X39388Y-50444D01*
X39139Y-50444D01*
X39139Y-60208D01*
X39266Y-60081D01*
X39590Y-59947D01*
X39940Y-59947D01*
X40263Y-60082D01*
X40510Y-60329D01*
X40644Y-60653D01*
X40644Y-61003D01*
X40509Y-61326D01*
X40262Y-61573D01*
X39938Y-61707D01*
X39588Y-61707D01*
X39588Y-61930D01*
X42323Y-61930D01*
X42323Y-59304D01*
X42077Y-59255D01*
X41868Y-59116D01*
X41729Y-58907D01*
X41680Y-58661D01*
X41680Y-50000D01*
X41729Y-49754D01*
X41868Y-49545D01*
X42077Y-49406D01*
X42323Y-49357D01*
X42569Y-49406D01*
X42778Y-49545D01*
X42917Y-49754D01*
X42966Y-50000D01*
X42966Y-58661D01*
X42917Y-58907D01*
X42778Y-59116D01*
X42569Y-59255D01*
X42323Y-59304D01*
X42323Y-61930D01*
X43848Y-61930D01*
X43848Y-58897D01*
X43765Y-58863D01*
X43734Y-58707D01*
X43728Y-58677D01*
X43734Y-58641D01*
X43765Y-58459D01*
X43848Y-58425D01*
X43848Y-50236D01*
X43765Y-50202D01*
X43734Y-50046D01*
X43728Y-50016D01*
X43734Y-49980D01*
X43734Y-49541D01*
X43651Y-49506D01*
X43569Y-49541D01*
X43439Y-49541D01*
X43318Y-49491D01*
X43226Y-49399D01*
X43176Y-49278D01*
X43176Y-49148D01*
X43215Y-49053D01*
X43215Y-47698D01*
X43176Y-47604D01*
X43176Y-47474D01*
X43226Y-47353D01*
X43318Y-47261D01*
X43439Y-47211D01*
X43569Y-47211D01*
X43651Y-47245D01*
X43734Y-47211D01*
X43864Y-47211D01*
X43985Y-47261D01*
X44077Y-47353D01*
X44127Y-47474D01*
X44127Y-47604D01*
X44088Y-47698D01*
X44088Y-49053D01*
X44127Y-49148D01*
X44127Y-49278D01*
X44077Y-49399D01*
X43985Y-49491D01*
X43864Y-49541D01*
X43734Y-49541D01*
X43734Y-49980D01*
X43765Y-49798D01*
X43848Y-49764D01*
X44084Y-50000D01*
X43848Y-50236D01*
X43848Y-58425D01*
X44084Y-58661D01*
X43848Y-58897D01*
X43848Y-61930D01*
X44308Y-61930D01*
X44308Y-59225D01*
X44090Y-59188D01*
X44056Y-59105D01*
X44292Y-58869D01*
X44292Y-58453D01*
X44056Y-58217D01*
X44090Y-58134D01*
X44276Y-58097D01*
X44308Y-58102D01*
X44308Y-50564D01*
X44090Y-50527D01*
X44056Y-50444D01*
X44292Y-50208D01*
X44292Y-49792D01*
X44056Y-49556D01*
X44090Y-49473D01*
X44276Y-49436D01*
X44494Y-49473D01*
X44528Y-49556D01*
X44292Y-49792D01*
X44292Y-50208D01*
X44528Y-50444D01*
X44494Y-50527D01*
X44308Y-50564D01*
X44308Y-58102D01*
X44494Y-58134D01*
X44528Y-58217D01*
X44292Y-58453D01*
X44292Y-58869D01*
X44528Y-59105D01*
X44494Y-59188D01*
X44308Y-59225D01*
X44308Y-61930D01*
X44736Y-61930D01*
X44736Y-58897D01*
X44500Y-58661D01*
X44736Y-58425D01*
X44736Y-50236D01*
X44500Y-50000D01*
X44736Y-49764D01*
X44819Y-49798D01*
X44856Y-49984D01*
X44819Y-50202D01*
X44736Y-50236D01*
X44736Y-58425D01*
X44819Y-58459D01*
X44856Y-58645D01*
X44819Y-58863D01*
X44736Y-58897D01*
X44736Y-61930D01*
X45211Y-61930D01*
X45211Y-49541D01*
X45127Y-49506D01*
X45045Y-49541D01*
X44915Y-49541D01*
X44794Y-49491D01*
X44702Y-49399D01*
X44652Y-49278D01*
X44652Y-49148D01*
X44691Y-49053D01*
X44691Y-47698D01*
X44652Y-47604D01*
X44652Y-47474D01*
X44702Y-47353D01*
X44794Y-47261D01*
X44915Y-47211D01*
X45045Y-47211D01*
X45127Y-47245D01*
X45211Y-47211D01*
X45341Y-47211D01*
X45462Y-47261D01*
X45554Y-47353D01*
X45604Y-47474D01*
X45604Y-47604D01*
X45565Y-47698D01*
X45565Y-49053D01*
X45604Y-49148D01*
X45604Y-49278D01*
X45554Y-49399D01*
X45462Y-49491D01*
X45341Y-49541D01*
X45211Y-49541D01*
X45211Y-61930D01*
X45680Y-61930D01*
X45680Y-52209D01*
X45520Y-52142D01*
X45397Y-52019D01*
X45331Y-51858D01*
X45331Y-51684D01*
X45398Y-51524D01*
X45521Y-51401D01*
X45682Y-51335D01*
X45856Y-51335D01*
X46016Y-51402D01*
X46093Y-51479D01*
X46179Y-51393D01*
X46184Y-51373D01*
X46201Y-51365D01*
X46369Y-51336D01*
X46534Y-51373D01*
X46550Y-51450D01*
X46359Y-51640D01*
X46320Y-51602D01*
X46205Y-51718D01*
X46205Y-51749D01*
X46227Y-51772D01*
X46205Y-51794D01*
X46205Y-51826D01*
X46320Y-51941D01*
X46359Y-51904D01*
X46550Y-52094D01*
X46534Y-52171D01*
X46517Y-52179D01*
X46349Y-52208D01*
X46184Y-52171D01*
X46179Y-52150D01*
X46093Y-52064D01*
X46015Y-52143D01*
X45854Y-52209D01*
X45680Y-52209D01*
X45680Y-61930D01*
X46349Y-61930D01*
X46949Y-61930D01*
X46949Y-54876D01*
X46943Y-54875D01*
X46860Y-54875D01*
X46782Y-54842D01*
X46778Y-54842D01*
X46774Y-54839D01*
X46696Y-54807D01*
X46637Y-54747D01*
X46633Y-54745D01*
X46629Y-54740D01*
X46571Y-54681D01*
X46539Y-54605D01*
X46536Y-54600D01*
X46534Y-54593D01*
X46503Y-54517D01*
X46503Y-54434D01*
X46502Y-54429D01*
X46502Y-53051D01*
X46503Y-53045D01*
X46503Y-52962D01*
X46535Y-52884D01*
X46536Y-52880D01*
X46538Y-52876D01*
X46571Y-52798D01*
X46630Y-52739D01*
X46633Y-52735D01*
X46637Y-52731D01*
X46681Y-52688D01*
X46681Y-51963D01*
X46491Y-51772D01*
X46681Y-51581D01*
X46758Y-51597D01*
X46766Y-51614D01*
X46795Y-51782D01*
X46758Y-51947D01*
X46681Y-51963D01*
X46681Y-52688D01*
X46697Y-52673D01*
X46772Y-52641D01*
X46778Y-52638D01*
X46784Y-52636D01*
X46861Y-52605D01*
X46939Y-52605D01*
X46939Y-47737D01*
X46743Y-47655D01*
X46592Y-47505D01*
X46511Y-47308D01*
X46511Y-46391D01*
X46593Y-46195D01*
X46743Y-46044D01*
X46940Y-45963D01*
X47153Y-45963D01*
X47349Y-46045D01*
X47500Y-46195D01*
X47581Y-46392D01*
X47581Y-47309D01*
X47499Y-47505D01*
X47349Y-47656D01*
X47152Y-47737D01*
X46939Y-47737D01*
X46939Y-52605D01*
X46943Y-52605D01*
X46949Y-52604D01*
X46954Y-52605D01*
X47038Y-52605D01*
X47115Y-52637D01*
X47120Y-52638D01*
X47123Y-52640D01*
X47202Y-52673D01*
X47260Y-52732D01*
X47265Y-52735D01*
X47268Y-52739D01*
X47327Y-52799D01*
X47358Y-52874D01*
X47362Y-52880D01*
X47363Y-52886D01*
X47395Y-52963D01*
X47395Y-53045D01*
X47396Y-53051D01*
X47396Y-54429D01*
X47395Y-54434D01*
X47395Y-54518D01*
X47362Y-54595D01*
X47362Y-54600D01*
X47359Y-54603D01*
X47327Y-54682D01*
X47267Y-54740D01*
X47265Y-54745D01*
X47260Y-54748D01*
X47201Y-54807D01*
X47125Y-54838D01*
X47120Y-54842D01*
X47113Y-54843D01*
X47037Y-54875D01*
X46954Y-54875D01*
X46949Y-54876D01*
X46949Y-61930D01*
X48788Y-61930D01*
X48788Y-47680D01*
X48644Y-47585D01*
X48519Y-47412D01*
X48470Y-47205D01*
X48470Y-46997D01*
X48470Y-46703D01*
X48470Y-46495D01*
X48519Y-46288D01*
X48644Y-46115D01*
X48788Y-46020D01*
X48868Y-46055D01*
X48868Y-46703D01*
X48470Y-46703D01*
X48470Y-46997D01*
X48868Y-46997D01*
X48868Y-47645D01*
X48788Y-47680D01*
X48788Y-61930D01*
X49242Y-61930D01*
X49242Y-47680D01*
X49162Y-47645D01*
X49162Y-46997D01*
X49162Y-46703D01*
X49162Y-46055D01*
X49242Y-46020D01*
X49386Y-46115D01*
X49511Y-46288D01*
X49560Y-46495D01*
X49560Y-46703D01*
X49162Y-46703D01*
X49162Y-46997D01*
X49560Y-46997D01*
X49560Y-47205D01*
X49511Y-47412D01*
X49386Y-47585D01*
X49242Y-47680D01*
X49242Y-61930D01*
X51855Y-61930D01*
X51855Y-57061D01*
X51648Y-56975D01*
X51489Y-56816D01*
X51403Y-56608D01*
X51403Y-56383D01*
X51489Y-56176D01*
X51648Y-56017D01*
X51855Y-55931D01*
X51855Y-49581D01*
X51648Y-49495D01*
X51489Y-49336D01*
X51403Y-49128D01*
X51403Y-48903D01*
X51489Y-48696D01*
X51648Y-48537D01*
X51856Y-48451D01*
X52081Y-48451D01*
X52288Y-48537D01*
X52447Y-48696D01*
X52533Y-48904D01*
X52533Y-49129D01*
X52447Y-49336D01*
X52288Y-49495D01*
X52080Y-49581D01*
X51855Y-49581D01*
X51855Y-55931D01*
X52081Y-55931D01*
X52288Y-56017D01*
X52447Y-56176D01*
X52533Y-56384D01*
X52533Y-56609D01*
X52447Y-56816D01*
X52288Y-56975D01*
X52080Y-57061D01*
X51855Y-57061D01*
X51855Y-61930D01*
X53824Y-61930D01*
X53824Y-57061D01*
X53617Y-56975D01*
X53458Y-56816D01*
X53372Y-56608D01*
X53372Y-56383D01*
X53458Y-56176D01*
X53617Y-56017D01*
X53824Y-55931D01*
X53824Y-49581D01*
X53617Y-49495D01*
X53458Y-49336D01*
X53372Y-49128D01*
X53372Y-48903D01*
X53458Y-48696D01*
X53617Y-48537D01*
X53825Y-48451D01*
X54050Y-48451D01*
X54257Y-48537D01*
X54416Y-48696D01*
X54502Y-48904D01*
X54502Y-49129D01*
X54416Y-49336D01*
X54257Y-49495D01*
X54049Y-49581D01*
X53824Y-49581D01*
X53824Y-55931D01*
X54050Y-55931D01*
X54257Y-56017D01*
X54416Y-56176D01*
X54502Y-56384D01*
X54502Y-56609D01*
X54416Y-56816D01*
X54257Y-56975D01*
X54049Y-57061D01*
X53824Y-57061D01*
X53824Y-61930D01*
X57845Y-61930D01*
X57845Y-57139D01*
X57609Y-57040D01*
X57429Y-56859D01*
X57331Y-56623D01*
X57331Y-56367D01*
X57430Y-56131D01*
X57611Y-55951D01*
X57845Y-55853D01*
X57845Y-49659D01*
X57609Y-49560D01*
X57429Y-49379D01*
X57331Y-49143D01*
X57331Y-48887D01*
X57430Y-48651D01*
X57611Y-48471D01*
X57847Y-48373D01*
X58103Y-48373D01*
X58339Y-48472D01*
X58519Y-48653D01*
X58617Y-48889D01*
X58617Y-49145D01*
X58518Y-49381D01*
X58337Y-49561D01*
X58101Y-49659D01*
X57845Y-49659D01*
X57845Y-55853D01*
X58103Y-55853D01*
X58339Y-55952D01*
X58519Y-56133D01*
X58617Y-56369D01*
X58617Y-56625D01*
X58518Y-56861D01*
X58337Y-57041D01*
X58101Y-57139D01*
X57845Y-57139D01*
X57845Y-61930D01*
X60798Y-61930D01*
X60798Y-57139D01*
X60562Y-57040D01*
X60382Y-56859D01*
X60284Y-56623D01*
X60284Y-56367D01*
X60383Y-56131D01*
X60564Y-55951D01*
X60798Y-55853D01*
X60798Y-49659D01*
X60562Y-49560D01*
X60382Y-49379D01*
X60284Y-49143D01*
X60284Y-48887D01*
X60383Y-48651D01*
X60564Y-48471D01*
X60800Y-48373D01*
X61056Y-48373D01*
X61292Y-48472D01*
X61472Y-48653D01*
X61570Y-48889D01*
X61570Y-49145D01*
X61471Y-49381D01*
X61290Y-49561D01*
X61054Y-49659D01*
X60798Y-49659D01*
X60798Y-55853D01*
X61056Y-55853D01*
X61292Y-55952D01*
X61472Y-56133D01*
X61570Y-56369D01*
X61570Y-56625D01*
X61471Y-56861D01*
X61290Y-57041D01*
X61054Y-57139D01*
X60798Y-57139D01*
X60798Y-61930D01*
X65393Y-61930D01*
X65393Y-56253D01*
X65289Y-56228D01*
X65186Y-56204D01*
X65013Y-56079D01*
X64918Y-55935D01*
X64953Y-55855D01*
X65289Y-55855D01*
X65289Y-55561D01*
X64953Y-55561D01*
X64918Y-55481D01*
X65013Y-55337D01*
X65186Y-55212D01*
X65289Y-55187D01*
X65289Y-54274D01*
X65093Y-54192D01*
X64942Y-54042D01*
X64861Y-53845D01*
X64861Y-53632D01*
X64943Y-53436D01*
X65093Y-53285D01*
X65289Y-53204D01*
X65393Y-53204D01*
X65393Y-52316D01*
X65289Y-52291D01*
X65186Y-52267D01*
X65013Y-52142D01*
X64918Y-51998D01*
X64953Y-51918D01*
X65289Y-51918D01*
X65289Y-51624D01*
X64953Y-51624D01*
X64918Y-51544D01*
X65013Y-51400D01*
X65186Y-51275D01*
X65289Y-51250D01*
X65289Y-50337D01*
X65093Y-50255D01*
X64942Y-50105D01*
X64861Y-49908D01*
X64861Y-49695D01*
X64943Y-49499D01*
X65093Y-49348D01*
X65290Y-49267D01*
X66207Y-49267D01*
X66359Y-49330D01*
X66359Y-45959D01*
X66036Y-45824D01*
X65789Y-45577D01*
X65655Y-45253D01*
X65655Y-44903D01*
X65790Y-44580D01*
X66037Y-44333D01*
X66361Y-44199D01*
X66711Y-44199D01*
X67034Y-44334D01*
X67281Y-44581D01*
X67415Y-44905D01*
X67415Y-45255D01*
X67280Y-45578D01*
X67033Y-45825D01*
X66709Y-45959D01*
X66359Y-45959D01*
X66359Y-49330D01*
X66403Y-49349D01*
X66554Y-49499D01*
X66635Y-49696D01*
X66635Y-49909D01*
X66553Y-50105D01*
X66403Y-50256D01*
X66206Y-50337D01*
X65289Y-50337D01*
X65289Y-51250D01*
X65393Y-51226D01*
X65601Y-51226D01*
X65601Y-51624D01*
X65289Y-51624D01*
X65289Y-51918D01*
X65601Y-51918D01*
X65601Y-52316D01*
X65393Y-52316D01*
X65393Y-53204D01*
X65895Y-53204D01*
X65895Y-52316D01*
X65895Y-51918D01*
X65895Y-51624D01*
X65895Y-51226D01*
X66103Y-51226D01*
X66310Y-51275D01*
X66483Y-51400D01*
X66578Y-51544D01*
X66543Y-51624D01*
X65895Y-51624D01*
X65895Y-51918D01*
X66543Y-51918D01*
X66578Y-51998D01*
X66483Y-52142D01*
X66310Y-52267D01*
X66103Y-52316D01*
X65895Y-52316D01*
X65895Y-53204D01*
X66207Y-53204D01*
X66403Y-53286D01*
X66554Y-53436D01*
X66635Y-53633D01*
X66635Y-53846D01*
X66553Y-54042D01*
X66403Y-54193D01*
X66206Y-54274D01*
X65289Y-54274D01*
X65289Y-55187D01*
X65393Y-55163D01*
X65601Y-55163D01*
X65601Y-55561D01*
X65289Y-55561D01*
X65289Y-55855D01*
X65601Y-55855D01*
X65601Y-56253D01*
X65393Y-56253D01*
X65393Y-61930D01*
X66359Y-61930D01*
X66359Y-61707D01*
X66036Y-61572D01*
X65789Y-61325D01*
X65655Y-61001D01*
X65655Y-60651D01*
X65790Y-60328D01*
X65895Y-60223D01*
X65895Y-56253D01*
X65895Y-55855D01*
X65895Y-55561D01*
X65895Y-55163D01*
X66103Y-55163D01*
X66310Y-55212D01*
X66483Y-55337D01*
X66578Y-55481D01*
X66543Y-55561D01*
X65895Y-55561D01*
X65895Y-55855D01*
X66543Y-55855D01*
X66578Y-55935D01*
X66483Y-56079D01*
X66310Y-56204D01*
X66103Y-56253D01*
X65895Y-56253D01*
X65895Y-60223D01*
X66037Y-60081D01*
X66361Y-59947D01*
X66711Y-59947D01*
X67034Y-60082D01*
X67281Y-60329D01*
X67415Y-60653D01*
X67415Y-61003D01*
X67280Y-61326D01*
X67033Y-61573D01*
X66709Y-61707D01*
X66359Y-61707D01*
X66359Y-61930D01*
X67441Y-61930D01*
M02*
