M48
INCH,TZ
T1C0.012
T2C0.020
T3C0.024
T4C0.032
T5C0.039
T6C0.047
T7C0.126
%
G05
T1
X043504Y-047539
X043504Y-049213
X043799Y-047539
X043799Y-049213
X044587Y-053543
X044587Y-055118
X044685Y-052756
X044685Y-053150
X044685Y-055512
X044685Y-055905
X044882Y-053543
X044882Y-055118
X044980Y-047539
X044980Y-049213
X045079Y-052756
X045079Y-053150
X045079Y-055512
X045079Y-055905
X045177Y-053543
X045177Y-055118
X045276Y-047539
X045276Y-049213
T2
X044882Y-052953
X044882Y-053917
X044882Y-054331
X044882Y-054744
X044882Y-055709
X046398Y-053051
T3
X045768Y-051772
X046359Y-051772
T4
X039764Y-052362
X039764Y-054724
X039764Y-055512
X039764Y-056299
X042323Y-050000
X042323Y-058661
X043228Y-054842
X044292Y-050000
X044292Y-058661
X045866Y-046161
X046535Y-055610
X046949Y-053051
X046949Y-054429
X049213Y-054331
X051968Y-049016
X051968Y-056496
X053937Y-049016
X053937Y-056496
X055413Y-051673
X055413Y-053838
T5
X039264Y-047819
X039264Y-048819
X039264Y-049819
X040264Y-047819
X040264Y-048819
X040264Y-049819
X057974Y-049016
X057974Y-056496
X060927Y-049016
X060927Y-056496
T6
X036220Y-046062
X036220Y-048031
X036220Y-049999
X036220Y-051968
X036220Y-053936
X036220Y-055905
X036220Y-057873
X036220Y-059842
X047046Y-046850
X049015Y-046850
X065748Y-049802
X065748Y-051771
X065748Y-053739
X065748Y-055708
T7
X039764Y-045079
X039764Y-060827
X066535Y-045079
X066535Y-060827
T0
M30
