G04 (created by PCBNEW-RS274X (2010-03-14)-final) date Wed 01 Feb 2012 01:55:13 GMT*
G01*
G70*
G90*
%MOIN*%
G04 Gerber Fmt 3.4, Leading zero omitted, Abs format*
%FSLAX34Y34*%
G04 APERTURE LIST*
%ADD10C,0.006000*%
%ADD11C,0.015000*%
%ADD12C,0.146000*%
%ADD13R,0.075100X0.075100*%
%ADD14C,0.114500*%
%ADD15O,0.079100X0.146000*%
%ADD16O,0.146000X0.079100*%
%ADD17C,0.098700*%
%ADD18C,0.083000*%
%ADD19C,0.057400*%
%ADD20R,0.039700X0.090900*%
%ADD21R,0.075100X0.031800*%
%ADD22R,0.114500X0.216900*%
%ADD23C,0.095000*%
%ADD24R,0.095000X0.095000*%
G04 APERTURE END LIST*
G54D10*
G54D11*
X67716Y-62205D02*
X34252Y-62205D01*
X67716Y-43307D02*
X67716Y-62205D01*
X34252Y-43307D02*
X67716Y-43307D01*
X34252Y-62205D02*
X34252Y-43307D01*
G54D12*
X39764Y-45079D03*
X39764Y-60827D03*
X66535Y-60827D03*
X66535Y-45079D03*
G54D13*
X45276Y-46102D03*
X45276Y-45236D03*
X55413Y-50059D03*
X55413Y-50925D03*
X41378Y-53150D03*
X40512Y-53150D03*
X48464Y-53150D03*
X47598Y-53150D03*
X41378Y-53937D03*
X40512Y-53937D03*
X48464Y-55512D03*
X47598Y-55512D03*
X40512Y-54724D03*
X41378Y-54724D03*
X40512Y-55512D03*
X41378Y-55512D03*
X55413Y-55453D03*
X55413Y-54587D03*
X41378Y-56299D03*
X40512Y-56299D03*
X47598Y-54331D03*
X48464Y-54331D03*
G54D14*
X36220Y-51968D03*
X36220Y-49999D03*
X36220Y-48031D03*
X36220Y-46062D03*
G54D15*
X47046Y-46850D03*
X49015Y-46850D03*
G54D16*
X65748Y-49802D03*
X65748Y-51771D03*
X36220Y-53936D03*
X36220Y-55905D03*
X36220Y-57873D03*
X36220Y-59842D03*
X65748Y-53739D03*
X65748Y-55708D03*
G54D17*
X57974Y-49016D03*
X60927Y-49016D03*
X57974Y-56496D03*
X60927Y-56496D03*
G54D18*
X42323Y-50000D03*
X44292Y-50000D03*
X42323Y-58661D03*
X44292Y-58661D03*
G54D19*
X45768Y-51772D03*
X46359Y-51772D03*
G54D13*
X41378Y-52362D03*
X40512Y-52362D03*
G54D20*
X44413Y-44690D03*
X43913Y-44690D03*
X43413Y-44690D03*
X42913Y-44690D03*
X42413Y-44690D03*
X41913Y-44690D03*
X41413Y-44690D03*
X41413Y-46648D03*
X41913Y-46648D03*
X42413Y-46648D03*
X42913Y-46648D03*
X43413Y-46648D03*
X43913Y-46648D03*
X44409Y-46653D03*
G54D21*
X43729Y-52925D03*
X43729Y-53181D03*
X43729Y-53437D03*
X43729Y-53693D03*
X43729Y-53949D03*
X43729Y-54205D03*
X43729Y-54460D03*
X43729Y-54716D03*
X43729Y-54972D03*
X43729Y-55228D03*
X43729Y-55484D03*
X43729Y-55740D03*
X46012Y-55740D03*
X46012Y-55484D03*
X46012Y-55228D03*
X46012Y-54972D03*
X46012Y-54716D03*
X46012Y-54460D03*
X46012Y-54205D03*
X46012Y-53949D03*
X46012Y-53693D03*
X46012Y-53437D03*
X46012Y-53181D03*
X46012Y-52925D03*
G54D22*
X44882Y-54331D03*
G54D23*
X39264Y-49819D03*
X39264Y-48819D03*
X39264Y-47819D03*
G54D24*
X40264Y-49819D03*
G54D23*
X40264Y-48819D03*
X40264Y-47819D03*
G54D18*
X53937Y-49016D03*
X51968Y-49016D03*
X53937Y-56496D03*
X51968Y-56496D03*
M02*
